{"glyphs":{"0":{"ha":884,"x_min":107,"x_max":778,"o":"m 442 -13 q 192 100 277 -13 q 107 431 107 212 l 107 574 q 193 909 107 795 q 443 1023 278 1023 q 693 909 609 1023 q 778 574 778 795 l 778 431 q 693 100 778 212 q 442 -13 607 -13 m 442 88 q 614 167 562 88 q 667 426 667 246 l 667 580 q 614 842 667 761 q 442 922 562 922 q 270 842 322 922 q 218 580 218 761 l 218 426 q 270 167 218 246 q 442 88 322 88 m 442 409 q 376 423 402 409 q 351 476 351 437 l 351 533 q 376 585 351 571 q 442 600 402 600 q 507 585 482 600 q 532 533 532 571 l 532 476 q 506 423 532 437 q 442 409 481 409 z "},"1":{"ha":884,"x_min":134,"x_max":821,"o":"m 174 0 l 174 98 l 456 98 l 456 874 l 419 874 q 304 771 372 799 q 146 763 236 744 l 134 874 q 313 893 231 859 q 460 1010 394 927 l 563 1010 l 563 98 l 821 98 l 821 0 l 174 0 z "},"2":{"ha":884,"x_min":107,"x_max":778,"o":"m 107 0 l 107 216 q 164 396 107 330 q 346 497 220 463 l 525 548 q 628 600 597 567 q 658 697 658 634 l 658 755 q 614 884 658 846 q 442 922 569 922 q 282 874 327 922 q 227 693 237 826 l 120 706 q 202 951 130 880 q 441 1023 274 1023 q 684 960 602 1023 q 765 770 765 898 l 765 681 q 712 533 765 590 q 532 441 659 476 l 351 390 q 254 342 294 378 q 215 218 215 306 l 215 98 l 778 98 l 778 0 l 107 0 z "},"3":{"ha":884,"x_min":95,"x_max":778,"o":"m 427 -13 q 168 58 232 -13 q 95 270 104 129 l 202 283 q 258 124 215 164 q 426 83 301 83 q 616 125 562 83 q 670 273 670 167 l 670 307 q 620 448 670 408 q 442 489 569 489 l 318 489 l 318 588 l 442 588 q 600 621 554 588 q 645 732 645 653 l 645 773 q 597 893 645 860 q 428 927 549 927 q 280 889 322 927 q 227 745 237 851 l 120 758 q 206 961 129 900 q 429 1023 283 1023 q 664 963 576 1023 q 753 768 753 904 l 753 723 q 700 606 753 649 q 552 558 648 563 l 552 521 q 723 451 669 513 q 778 311 778 389 l 778 274 q 701 65 778 143 q 427 -13 625 -13 z "},"4":{"ha":884,"x_min":95,"x_max":841,"o":"m 222 370 l 582 370 l 582 895 l 222 370 m 841 269 l 689 269 l 689 0 l 582 0 l 582 269 l 95 269 l 95 370 l 525 1010 l 689 1010 l 689 370 l 841 370 l 841 269 z "},"5":{"ha":884,"x_min":95,"x_max":778,"o":"m 441 -13 q 175 46 246 -13 q 95 271 104 105 l 202 284 q 255 124 211 160 q 442 88 299 88 q 617 133 563 88 q 670 265 670 178 l 670 331 q 628 468 670 426 q 497 510 586 510 l 133 510 l 133 1010 l 725 1010 l 725 909 l 240 909 l 240 616 l 485 616 q 705 547 633 616 q 778 336 778 477 l 778 258 q 689 59 778 131 q 441 -13 601 -13 z "},"6":{"ha":884,"x_min":107,"x_max":778,"o":"m 442 -13 q 186 87 265 -13 q 107 348 107 187 l 107 655 q 195 927 107 831 q 444 1023 283 1023 q 667 969 592 1023 q 766 798 741 915 l 648 769 q 593 884 631 846 q 444 922 554 922 q 267 860 319 922 q 215 657 215 799 l 215 532 l 241 532 q 328 604 275 578 q 467 630 380 630 q 700 545 622 630 q 778 331 778 460 l 778 303 q 690 69 778 152 q 442 -13 602 -13 m 441 88 q 612 139 557 88 q 668 299 668 189 l 668 316 q 612 475 668 426 q 441 524 557 524 q 270 475 324 524 q 215 316 215 426 l 215 299 q 270 140 215 191 q 441 88 324 88 z "},"7":{"ha":884,"x_min":107,"x_max":778,"o":"m 326 0 q 457 497 394 317 q 670 896 520 677 l 107 896 l 107 1010 l 778 1010 l 778 896 q 561 465 631 657 q 443 0 490 273 l 326 0 z "},"8":{"ha":884,"x_min":107,"x_max":778,"o":"m 442 -13 q 186 52 265 -13 q 107 261 107 116 l 107 289 q 159 444 107 384 q 303 514 211 505 l 303 551 q 182 607 231 557 q 133 740 133 658 l 133 780 q 205 965 133 908 q 442 1023 278 1023 q 679 965 606 1023 q 753 780 753 908 l 753 740 q 703 607 753 658 q 581 551 653 557 l 581 514 q 725 444 673 505 q 778 289 778 383 l 778 261 q 698 52 778 116 q 442 -13 619 -13 m 442 581 q 600 616 556 581 q 645 737 645 650 l 645 773 q 600 893 645 859 q 442 927 556 927 q 284 893 328 927 q 240 773 240 859 l 240 737 q 284 616 240 650 q 442 581 328 581 m 442 83 q 619 123 568 83 q 670 269 670 163 l 670 292 q 619 440 670 400 q 442 480 568 480 q 265 440 316 480 q 215 292 215 400 l 215 269 q 265 123 215 163 q 442 83 316 83 z "},"9":{"ha":884,"x_min":107,"x_max":778,"o":"m 443 486 q 614 537 557 486 q 670 694 670 588 l 670 711 q 614 869 670 817 q 443 922 557 922 q 273 871 330 922 q 217 711 217 819 l 217 694 q 273 537 217 588 q 443 486 330 486 m 439 -13 q 217 40 290 -13 q 119 212 143 93 l 237 241 q 299 121 256 154 q 439 88 342 88 q 616 151 561 88 q 670 354 670 213 l 670 479 l 643 479 q 548 403 606 427 q 410 380 490 380 q 184 465 260 380 q 107 679 107 551 l 107 707 q 194 941 107 859 q 442 1023 282 1023 q 698 923 619 1023 q 778 662 778 823 l 778 355 q 697 90 778 192 q 439 -13 616 -13 z "},"\u0000":{"ha":0,"x_min":0,"x_max":0,"o":""},"\r":{"ha":0,"x_min":0,"x_max":0,"o":""}," ":{"ha":884,"x_min":0,"x_max":0,"o":""}," ":{"ha":884,"x_min":0,"x_max":0,"o":""},"A":{"ha":884,"x_min":57,"x_max":830,"o":"m 586 402 l 439 876 l 294 402 l 586 402 m 711 0 l 617 303 l 264 303 l 170 0 l 57 0 l 390 1010 l 496 1010 l 830 0 l 711 0 z "},"À":{"ha":884,"x_min":57,"x_max":830,"o":"m 586 402 l 439 876 l 294 402 l 586 402 m 711 0 l 617 303 l 264 303 l 170 0 l 57 0 l 390 1010 l 496 1010 l 830 0 l 711 0 m 448 1136 l 207 1389 l 378 1389 l 556 1136 l 448 1136 z "},"Á":{"ha":884,"x_min":57,"x_max":830,"o":"m 586 402 l 439 876 l 294 402 l 586 402 m 711 0 l 617 303 l 264 303 l 170 0 l 57 0 l 390 1010 l 496 1010 l 830 0 l 711 0 m 303 1136 l 481 1389 l 652 1389 l 410 1136 l 303 1136 z "},"Â":{"ha":884,"x_min":57,"x_max":830,"o":"m 586 402 l 439 876 l 294 402 l 586 402 m 711 0 l 617 303 l 264 303 l 170 0 l 57 0 l 390 1010 l 496 1010 l 830 0 l 711 0 m 230 1146 l 186 1222 l 404 1408 l 480 1408 l 701 1222 l 657 1146 l 442 1295 l 230 1146 z "},"Ã":{"ha":884,"x_min":57,"x_max":830,"o":"m 586 402 l 439 876 l 294 402 l 586 402 m 711 0 l 617 303 l 264 303 l 170 0 l 57 0 l 390 1010 l 496 1010 l 830 0 l 711 0 m 539 1149 q 470 1173 499 1149 q 418 1225 441 1197 q 375 1276 395 1253 q 333 1299 355 1299 q 291 1275 309 1299 q 274 1176 273 1251 l 274 1162 l 186 1162 l 186 1181 q 227 1335 186 1273 q 346 1396 268 1396 q 423 1373 393 1396 q 475 1322 453 1350 q 514 1270 496 1294 q 553 1246 532 1246 q 595 1270 577 1246 q 612 1370 612 1294 l 612 1384 l 701 1384 l 701 1365 q 660 1210 701 1270 q 539 1149 619 1149 z "},"Ä":{"ha":884,"x_min":57,"x_max":830,"o":"m 586 402 l 439 876 l 294 402 l 586 402 m 711 0 l 617 303 l 264 303 l 170 0 l 57 0 l 390 1010 l 496 1010 l 830 0 l 711 0 m 301 1154 q 246 1168 266 1154 q 225 1221 225 1182 l 225 1229 q 246 1283 225 1268 q 301 1298 266 1298 q 355 1283 335 1298 q 376 1229 376 1268 l 376 1221 q 355 1168 376 1182 q 301 1154 333 1154 m 586 1154 q 531 1168 552 1154 q 510 1221 510 1182 l 510 1229 q 531 1283 510 1268 q 586 1298 552 1298 q 641 1283 620 1298 q 662 1229 662 1268 l 662 1221 q 640 1168 662 1182 q 586 1154 619 1154 z "},"Å":{"ha":884,"x_min":57,"x_max":830,"o":"m 586 402 l 439 876 l 294 402 l 586 402 m 711 0 l 617 303 l 264 303 l 170 0 l 57 0 l 390 1010 l 496 1010 l 830 0 l 711 0 m 443 1120 q 303 1164 356 1120 q 250 1301 250 1208 l 250 1341 q 303 1480 250 1434 q 443 1525 356 1525 q 583 1480 530 1525 q 636 1341 636 1434 l 636 1301 q 583 1164 636 1208 q 443 1120 530 1120 m 443 1205 q 522 1227 495 1205 q 549 1301 549 1249 l 549 1341 q 522 1416 549 1391 q 443 1441 495 1441 q 364 1416 390 1441 q 337 1341 337 1391 l 337 1301 q 364 1227 337 1249 q 443 1205 390 1205 z "},"Ā":{"ha":884,"x_min":57,"x_max":830,"o":"m 586 402 l 439 876 l 294 402 l 586 402 m 711 0 l 617 303 l 264 303 l 170 0 l 57 0 l 390 1010 l 496 1010 l 830 0 l 711 0 m 196 1213 l 196 1312 l 691 1312 l 691 1213 l 196 1213 z "},"Ă":{"ha":884,"x_min":57,"x_max":830,"o":"m 586 402 l 439 876 l 294 402 l 586 402 m 711 0 l 617 303 l 264 303 l 170 0 l 57 0 l 390 1010 l 496 1010 l 830 0 l 711 0 m 443 1128 q 243 1184 328 1128 q 157 1385 158 1241 l 271 1385 q 316 1256 273 1294 q 443 1217 359 1217 q 571 1256 528 1217 q 615 1385 614 1294 l 730 1385 q 643 1184 729 1241 q 443 1128 558 1128 z "},"Ą":{"ha":884,"x_min":57,"x_max":907,"o":"m 586 402 l 439 876 l 294 402 l 586 402 m 711 0 l 617 303 l 264 303 l 170 0 l 57 0 l 390 1010 l 496 1010 l 830 0 l 711 0 m 785 -269 q 655 -229 710 -269 q 601 -121 601 -189 q 647 -18 601 -64 q 749 52 693 28 l 783 29 q 723 -30 740 3 q 706 -90 706 -63 q 730 -144 706 -125 q 794 -163 754 -163 q 852 -159 817 -163 q 907 -150 888 -155 l 907 -258 q 850 -266 886 -263 q 785 -269 813 -269 z "},"Ǻ":{"ha":884,"x_min":57,"x_max":830,"o":"m 586 402 l 439 876 l 294 402 l 586 402 m 711 0 l 617 303 l 264 303 l 170 0 l 57 0 l 390 1010 l 496 1010 l 830 0 l 711 0 m 443 1120 q 303 1164 356 1120 q 250 1301 250 1208 l 250 1341 q 303 1480 250 1434 q 443 1525 356 1525 q 583 1480 530 1525 q 636 1341 636 1434 l 636 1301 q 583 1164 636 1208 q 443 1120 530 1120 m 443 1205 q 522 1227 495 1205 q 549 1301 549 1249 l 549 1341 q 522 1416 549 1391 q 443 1441 495 1441 q 364 1416 390 1441 q 337 1341 337 1391 l 337 1301 q 364 1227 337 1249 q 443 1205 390 1205 m 376 1515 l 554 1768 l 725 1768 l 484 1515 l 376 1515 z "},"B":{"ha":884,"x_min":136,"x_max":783,"o":"m 136 0 l 136 1010 l 437 1010 q 667 952 592 1010 q 741 773 741 894 l 741 713 q 704 608 741 653 q 605 553 667 563 l 605 516 q 735 453 687 509 q 783 311 783 398 l 783 256 q 701 63 783 126 q 447 0 619 0 l 136 0 m 244 576 l 455 576 q 593 612 549 576 q 636 727 636 648 l 636 758 q 593 873 636 837 q 455 909 549 909 l 244 909 l 244 576 m 244 101 l 485 101 q 629 141 583 101 q 676 270 676 182 l 676 306 q 629 434 676 394 q 485 475 583 475 l 244 475 l 244 101 z "},"":{"ha":884,"x_min":136,"x_max":783,"o":"m 136 0 l 136 1010 l 437 1010 q 667 952 592 1010 q 741 773 741 894 l 741 713 q 704 608 741 653 q 605 553 667 563 l 605 516 q 735 453 687 509 q 783 311 783 398 l 783 256 q 701 63 783 126 q 447 0 619 0 l 136 0 m 244 576 l 455 576 q 593 612 549 576 q 636 727 636 648 l 636 758 q 593 873 636 837 q 455 909 549 909 l 244 909 l 244 576 m 244 101 l 485 101 q 629 141 583 101 q 676 270 676 182 l 676 306 q 629 434 676 394 q 485 475 583 475 l 244 475 l 244 101 z "},"C":{"ha":884,"x_min":107,"x_max":803,"o":"m 455 -13 q 194 80 280 -13 q 107 357 107 172 l 107 648 q 194 929 107 836 q 456 1023 280 1023 q 709 942 626 1023 q 803 686 792 861 l 696 673 q 630 869 683 813 q 455 924 577 924 q 268 864 322 924 q 215 653 215 803 l 215 352 q 268 146 215 206 q 455 86 322 86 q 631 140 580 86 q 696 332 683 194 l 803 319 q 709 67 792 146 q 455 -13 626 -13 z "},"Ç":{"ha":884,"x_min":107,"x_max":803,"o":"m 455 -13 q 194 80 280 -13 q 107 357 107 172 l 107 648 q 194 929 107 836 q 456 1023 280 1023 q 709 942 626 1023 q 803 686 792 861 l 696 673 q 630 869 683 813 q 455 924 577 924 q 268 864 322 924 q 215 653 215 803 l 215 352 q 268 146 215 206 q 455 86 322 86 q 631 140 580 86 q 696 332 683 194 l 803 319 q 709 67 792 146 q 455 -13 626 -13 m 415 0 l 441 53 q 537 5 489 43 q 585 -116 585 -33 q 532 -233 585 -196 q 413 -270 479 -270 q 287 -241 336 -270 q 232 -144 237 -212 l 328 -131 q 348 -165 331 -155 q 407 -174 366 -174 q 466 -158 446 -174 q 486 -98 486 -141 q 470 -32 486 -53 q 415 0 453 -10 z "},"Ć":{"ha":884,"x_min":107,"x_max":803,"o":"m 455 -13 q 194 80 280 -13 q 107 357 107 172 l 107 648 q 194 929 107 836 q 456 1023 280 1023 q 709 942 626 1023 q 803 686 792 861 l 696 673 q 630 869 683 813 q 455 924 577 924 q 268 864 322 924 q 215 653 215 803 l 215 352 q 268 146 215 206 q 455 86 322 86 q 631 140 580 86 q 696 332 683 194 l 803 319 q 709 67 792 146 q 455 -13 626 -13 m 367 1136 l 545 1389 l 716 1389 l 475 1136 l 367 1136 z "},"Ĉ":{"ha":884,"x_min":107,"x_max":803,"o":"m 455 -13 q 194 80 280 -13 q 107 357 107 172 l 107 648 q 194 929 107 836 q 456 1023 280 1023 q 709 942 626 1023 q 803 686 792 861 l 696 673 q 630 869 683 813 q 455 924 577 924 q 268 864 322 924 q 215 653 215 803 l 215 352 q 268 146 215 206 q 455 86 322 86 q 631 140 580 86 q 696 332 683 194 l 803 319 q 709 67 792 146 q 455 -13 626 -13 m 240 1146 l 196 1222 l 414 1408 l 490 1408 l 711 1222 l 667 1146 l 452 1295 l 240 1146 z "},"Ċ":{"ha":884,"x_min":107,"x_max":803,"o":"m 455 -13 q 194 80 280 -13 q 107 357 107 172 l 107 648 q 194 929 107 836 q 456 1023 280 1023 q 709 942 626 1023 q 803 686 792 861 l 696 673 q 630 869 683 813 q 455 924 577 924 q 268 864 322 924 q 215 653 215 803 l 215 352 q 268 146 215 206 q 455 86 322 86 q 631 140 580 86 q 696 332 683 194 l 803 319 q 709 67 792 146 q 455 -13 626 -13 m 453 1154 q 381 1168 409 1154 q 354 1221 354 1182 l 354 1229 q 381 1283 354 1268 q 453 1298 409 1298 q 525 1283 497 1298 q 553 1229 553 1268 l 553 1221 q 525 1168 553 1182 q 453 1154 496 1154 z "},"Č":{"ha":884,"x_min":107,"x_max":803,"o":"m 455 -13 q 194 80 280 -13 q 107 357 107 172 l 107 648 q 194 929 107 836 q 456 1023 280 1023 q 709 942 626 1023 q 803 686 792 861 l 696 673 q 630 869 683 813 q 455 924 577 924 q 268 864 322 924 q 215 653 215 803 l 215 352 q 268 146 215 206 q 455 86 322 86 q 631 140 580 86 q 696 332 683 194 l 803 319 q 709 67 792 146 q 455 -13 626 -13 m 417 1141 l 196 1327 l 240 1403 l 455 1254 l 667 1403 l 711 1327 l 492 1141 l 417 1141 z "},"D":{"ha":884,"x_min":136,"x_max":778,"o":"m 136 0 l 136 1010 l 400 1010 q 677 910 577 1010 q 778 643 778 809 l 778 362 q 677 98 778 197 q 399 0 576 0 l 136 0 m 244 98 l 403 98 q 604 172 537 98 q 670 357 670 246 l 670 648 q 604 835 670 758 q 403 912 537 912 l 244 912 l 244 98 z "},"Ď":{"ha":884,"x_min":136,"x_max":778,"o":"m 136 0 l 136 1010 l 400 1010 q 677 910 577 1010 q 778 643 778 809 l 778 362 q 677 98 778 197 q 399 0 576 0 l 136 0 m 244 98 l 403 98 q 604 172 537 98 q 670 357 670 246 l 670 648 q 604 835 670 758 q 403 912 537 912 l 244 912 l 244 98 m 405 1141 l 184 1327 l 229 1403 l 443 1254 l 655 1403 l 699 1327 l 481 1141 l 405 1141 z "},"E":{"ha":884,"x_min":136,"x_max":778,"o":"m 136 0 l 136 1010 l 778 1010 l 778 912 l 244 912 l 244 601 l 715 601 l 715 503 l 244 503 l 244 98 l 778 98 l 778 0 l 136 0 z "},"":{"ha":884,"x_min":136,"x_max":778,"o":"m 136 0 l 136 1010 l 778 1010 l 778 912 l 244 912 l 244 601 l 715 601 l 715 503 l 244 503 l 244 98 l 778 98 l 778 0 l 136 0 z "},"È":{"ha":884,"x_min":136,"x_max":778,"o":"m 136 0 l 136 1010 l 778 1010 l 778 912 l 244 912 l 244 601 l 715 601 l 715 503 l 244 503 l 244 98 l 778 98 l 778 0 l 136 0 m 456 1136 l 215 1389 l 385 1389 l 563 1136 l 456 1136 z "},"É":{"ha":884,"x_min":136,"x_max":778,"o":"m 136 0 l 136 1010 l 778 1010 l 778 912 l 244 912 l 244 601 l 715 601 l 715 503 l 244 503 l 244 98 l 778 98 l 778 0 l 136 0 m 340 1136 l 518 1389 l 688 1389 l 447 1136 l 340 1136 z "},"Ê":{"ha":884,"x_min":136,"x_max":778,"o":"m 136 0 l 136 1010 l 778 1010 l 778 912 l 244 912 l 244 601 l 715 601 l 715 503 l 244 503 l 244 98 l 778 98 l 778 0 l 136 0 m 256 1146 l 212 1222 l 431 1408 l 506 1408 l 727 1222 l 683 1146 l 468 1295 l 256 1146 z "},"Ë":{"ha":884,"x_min":136,"x_max":778,"o":"m 136 0 l 136 1010 l 778 1010 l 778 912 l 244 912 l 244 601 l 715 601 l 715 503 l 244 503 l 244 98 l 778 98 l 778 0 l 136 0 m 324 1154 q 270 1168 290 1154 q 249 1221 249 1182 l 249 1229 q 270 1283 249 1268 q 324 1298 290 1298 q 379 1283 359 1298 q 400 1229 400 1268 l 400 1221 q 379 1168 400 1182 q 324 1154 357 1154 m 610 1154 q 555 1168 576 1154 q 534 1221 534 1182 l 534 1229 q 555 1283 534 1268 q 610 1298 576 1298 q 665 1283 644 1298 q 686 1229 686 1268 l 686 1221 q 664 1168 686 1182 q 610 1154 643 1154 z "},"Ē":{"ha":884,"x_min":136,"x_max":778,"o":"m 136 0 l 136 1010 l 778 1010 l 778 912 l 244 912 l 244 601 l 715 601 l 715 503 l 244 503 l 244 98 l 778 98 l 778 0 l 136 0 m 222 1213 l 222 1312 l 717 1312 l 717 1213 l 222 1213 z "},"Ĕ":{"ha":884,"x_min":136,"x_max":778,"o":"m 136 0 l 136 1010 l 778 1010 l 778 912 l 244 912 l 244 601 l 715 601 l 715 503 l 244 503 l 244 98 l 778 98 l 778 0 l 136 0 m 470 1128 q 270 1184 355 1128 q 183 1385 184 1241 l 298 1385 q 342 1256 299 1294 q 470 1217 385 1217 q 597 1256 554 1217 q 641 1385 640 1294 l 756 1385 q 670 1184 755 1241 q 470 1128 585 1128 z "},"Ė":{"ha":884,"x_min":136,"x_max":778,"o":"m 136 0 l 136 1010 l 778 1010 l 778 912 l 244 912 l 244 601 l 715 601 l 715 503 l 244 503 l 244 98 l 778 98 l 778 0 l 136 0 m 470 1154 q 398 1168 426 1154 q 370 1221 370 1182 l 370 1229 q 398 1283 370 1268 q 470 1298 426 1298 q 542 1283 514 1298 q 569 1229 569 1268 l 569 1221 q 541 1168 569 1182 q 470 1154 513 1154 z "},"Ę":{"ha":884,"x_min":136,"x_max":778,"o":"m 657 -269 q 527 -229 581 -269 q 472 -121 472 -189 q 518 -18 472 -64 q 620 52 564 28 l 654 29 q 594 -30 611 3 q 577 -90 577 -63 q 601 -144 577 -125 q 665 -163 625 -163 q 723 -159 688 -163 q 778 -150 759 -155 l 778 -258 q 721 -266 758 -263 q 657 -269 684 -269 m 136 0 l 136 1010 l 778 1010 l 778 912 l 244 912 l 244 601 l 715 601 l 715 503 l 244 503 l 244 98 l 778 98 l 778 0 l 136 0 z "},"Ě":{"ha":884,"x_min":136,"x_max":778,"o":"m 136 0 l 136 1010 l 778 1010 l 778 912 l 244 912 l 244 601 l 715 601 l 715 503 l 244 503 l 244 98 l 778 98 l 778 0 l 136 0 m 447 1141 l 226 1327 l 270 1403 l 485 1254 l 697 1403 l 741 1327 l 523 1141 l 447 1141 z "},"F":{"ha":884,"x_min":126,"x_max":774,"o":"m 126 0 l 126 1010 l 774 1010 l 774 912 l 234 912 l 234 492 l 686 492 l 686 394 l 234 394 l 234 0 l 126 0 z "},"G":{"ha":884,"x_min":107,"x_max":807,"o":"m 471 -13 q 201 82 295 -13 q 107 352 107 177 l 107 653 q 198 926 107 830 q 458 1023 289 1023 q 688 945 609 1023 q 778 706 768 867 l 670 693 q 610 871 659 818 q 456 924 561 924 q 270 862 326 924 q 215 658 215 801 l 215 347 q 274 146 215 207 q 471 86 333 86 q 646 157 593 86 q 699 391 698 227 l 442 391 l 442 490 l 807 490 l 807 367 q 720 86 807 186 q 471 -13 633 -13 z "},"Ĝ":{"ha":884,"x_min":107,"x_max":807,"o":"m 471 -13 q 201 82 295 -13 q 107 352 107 177 l 107 653 q 198 926 107 830 q 458 1023 289 1023 q 688 945 609 1023 q 778 706 768 867 l 670 693 q 610 871 659 818 q 456 924 561 924 q 270 862 326 924 q 215 658 215 801 l 215 347 q 274 146 215 207 q 471 86 333 86 q 646 157 593 86 q 699 391 698 227 l 442 391 l 442 490 l 807 490 l 807 367 q 720 86 807 186 q 471 -13 633 -13 m 258 1146 l 213 1222 l 432 1408 l 508 1408 l 729 1222 l 684 1146 l 470 1295 l 258 1146 z "},"Ğ":{"ha":884,"x_min":107,"x_max":807,"o":"m 471 -13 q 201 82 295 -13 q 107 352 107 177 l 107 653 q 198 926 107 830 q 458 1023 289 1023 q 688 945 609 1023 q 778 706 768 867 l 670 693 q 610 871 659 818 q 456 924 561 924 q 270 862 326 924 q 215 658 215 801 l 215 347 q 274 146 215 207 q 471 86 333 86 q 646 157 593 86 q 699 391 698 227 l 442 391 l 442 490 l 807 490 l 807 367 q 720 86 807 186 q 471 -13 633 -13 m 471 1128 q 271 1184 356 1128 q 184 1385 186 1241 l 299 1385 q 343 1256 301 1294 q 471 1217 386 1217 q 598 1256 556 1217 q 643 1385 641 1294 l 758 1385 q 671 1184 756 1241 q 471 1128 586 1128 z "},"Ġ":{"ha":884,"x_min":107,"x_max":807,"o":"m 471 -13 q 201 82 295 -13 q 107 352 107 177 l 107 653 q 198 926 107 830 q 458 1023 289 1023 q 688 945 609 1023 q 778 706 768 867 l 670 693 q 610 871 659 818 q 456 924 561 924 q 270 862 326 924 q 215 658 215 801 l 215 347 q 274 146 215 207 q 471 86 333 86 q 646 157 593 86 q 699 391 698 227 l 442 391 l 442 490 l 807 490 l 807 367 q 720 86 807 186 q 471 -13 633 -13 m 455 1154 q 383 1168 410 1154 q 355 1221 355 1182 l 355 1229 q 383 1283 355 1268 q 455 1298 410 1298 q 527 1283 499 1298 q 554 1229 554 1268 l 554 1221 q 526 1168 554 1182 q 455 1154 497 1154 z "},"Ģ":{"ha":884,"x_min":107,"x_max":807,"o":"m 293 -379 l 420 -126 l 591 -126 l 400 -379 l 293 -379 m 471 -13 q 201 82 295 -13 q 107 352 107 177 l 107 653 q 198 926 107 830 q 458 1023 289 1023 q 688 945 609 1023 q 778 706 768 867 l 670 693 q 610 871 659 818 q 456 924 561 924 q 270 862 326 924 q 215 658 215 801 l 215 347 q 274 146 215 207 q 471 86 333 86 q 646 157 593 86 q 699 391 698 227 l 442 391 l 442 490 l 807 490 l 807 367 q 720 86 807 186 q 471 -13 633 -13 z "},"H":{"ha":884,"x_min":136,"x_max":749,"o":"m 136 0 l 136 1010 l 244 1010 l 244 596 l 641 596 l 641 1010 l 749 1010 l 749 0 l 641 0 l 641 497 l 244 497 l 244 0 l 136 0 z "},"Ĥ":{"ha":884,"x_min":136,"x_max":749,"o":"m 136 0 l 136 1010 l 244 1010 l 244 596 l 641 596 l 641 1010 l 749 1010 l 749 0 l 641 0 l 641 497 l 244 497 l 244 0 l 136 0 m 229 1146 l 184 1222 l 403 1408 l 479 1408 l 699 1222 l 655 1146 l 441 1295 l 229 1146 z "},"I":{"ha":884,"x_min":136,"x_max":749,"o":"m 136 0 l 136 98 l 389 98 l 389 912 l 136 912 l 136 1010 l 749 1010 l 749 912 l 496 912 l 496 98 l 749 98 l 749 0 l 136 0 z "},"Ì":{"ha":884,"x_min":136,"x_max":749,"o":"m 136 0 l 136 98 l 389 98 l 389 912 l 136 912 l 136 1010 l 749 1010 l 749 912 l 496 912 l 496 98 l 749 98 l 749 0 l 136 0 m 447 1136 l 206 1389 l 376 1389 l 554 1136 l 447 1136 z "},"Í":{"ha":884,"x_min":136,"x_max":749,"o":"m 136 0 l 136 98 l 389 98 l 389 912 l 136 912 l 136 1010 l 749 1010 l 749 912 l 496 912 l 496 98 l 749 98 l 749 0 l 136 0 m 302 1136 l 480 1389 l 650 1389 l 409 1136 l 302 1136 z "},"Î":{"ha":884,"x_min":136,"x_max":749,"o":"m 136 0 l 136 98 l 389 98 l 389 912 l 136 912 l 136 1010 l 749 1010 l 749 912 l 496 912 l 496 98 l 749 98 l 749 0 l 136 0 m 229 1146 l 184 1222 l 403 1408 l 479 1408 l 699 1222 l 655 1146 l 441 1295 l 229 1146 z "},"Ï":{"ha":884,"x_min":136,"x_max":749,"o":"m 136 0 l 136 98 l 389 98 l 389 912 l 136 912 l 136 1010 l 749 1010 l 749 912 l 496 912 l 496 98 l 749 98 l 749 0 l 136 0 m 299 1154 q 244 1168 265 1154 q 223 1221 223 1182 l 223 1229 q 244 1283 223 1268 q 299 1298 265 1298 q 354 1283 333 1298 q 375 1229 375 1268 l 375 1221 q 354 1168 375 1182 q 299 1154 332 1154 m 585 1154 q 530 1168 551 1154 q 509 1221 509 1182 l 509 1229 q 530 1283 509 1268 q 585 1298 551 1298 q 640 1283 619 1298 q 660 1229 660 1268 l 660 1221 q 639 1168 660 1182 q 585 1154 617 1154 z "},"Ĩ":{"ha":884,"x_min":136,"x_max":749,"o":"m 136 0 l 136 98 l 389 98 l 389 912 l 136 912 l 136 1010 l 749 1010 l 749 912 l 496 912 l 496 98 l 749 98 l 749 0 l 136 0 m 538 1149 q 468 1173 497 1149 q 417 1225 439 1197 q 374 1276 394 1253 q 332 1299 354 1299 q 290 1275 308 1299 q 273 1176 271 1251 l 273 1162 l 184 1162 l 184 1181 q 225 1335 184 1273 q 345 1396 266 1396 q 422 1373 391 1396 q 473 1322 452 1350 q 513 1270 495 1294 q 552 1246 530 1246 q 593 1270 576 1246 q 611 1370 611 1294 l 611 1384 l 699 1384 l 699 1365 q 658 1210 699 1270 q 538 1149 617 1149 z "},"Ī":{"ha":884,"x_min":136,"x_max":749,"o":"m 136 0 l 136 98 l 389 98 l 389 912 l 136 912 l 136 1010 l 749 1010 l 749 912 l 496 912 l 496 98 l 749 98 l 749 0 l 136 0 m 194 1213 l 194 1312 l 689 1312 l 689 1213 l 194 1213 z "},"Ĭ":{"ha":884,"x_min":136,"x_max":749,"o":"m 136 0 l 136 98 l 389 98 l 389 912 l 136 912 l 136 1010 l 749 1010 l 749 912 l 496 912 l 496 98 l 749 98 l 749 0 l 136 0 m 442 1128 q 242 1184 327 1128 q 155 1385 157 1241 l 270 1385 q 314 1256 271 1294 q 442 1217 357 1217 q 569 1256 527 1217 q 614 1385 612 1294 l 729 1385 q 642 1184 727 1241 q 442 1128 557 1128 z "},"Į":{"ha":884,"x_min":136,"x_max":749,"o":"m 136 0 l 136 98 l 389 98 l 389 912 l 136 912 l 136 1010 l 749 1010 l 749 912 l 496 912 l 496 98 l 749 98 l 749 0 l 136 0 m 533 -269 q 403 -229 457 -269 q 348 -121 348 -189 q 395 -18 348 -64 q 496 52 441 28 l 530 29 q 470 -30 487 3 q 453 -90 453 -63 q 477 -144 453 -125 q 542 -163 501 -163 q 600 -159 564 -163 q 654 -150 635 -155 l 654 -258 q 597 -266 634 -263 q 533 -269 561 -269 z "},"İ":{"ha":884,"x_min":136,"x_max":749,"o":"m 136 0 l 136 98 l 389 98 l 389 912 l 136 912 l 136 1010 l 749 1010 l 749 912 l 496 912 l 496 98 l 749 98 l 749 0 l 136 0 m 442 1154 q 370 1168 398 1154 q 342 1221 342 1182 l 342 1229 q 370 1283 342 1268 q 442 1298 398 1298 q 514 1283 486 1298 q 542 1229 542 1268 l 542 1221 q 513 1168 542 1182 q 442 1154 485 1154 z "},"J":{"ha":884,"x_min":82,"x_max":753,"o":"m 414 -13 q 171 69 253 -13 q 82 317 90 150 l 189 331 q 244 136 198 186 q 415 86 290 86 q 588 146 530 86 q 645 324 645 207 l 645 912 l 398 912 l 398 1010 l 753 1010 l 753 328 q 665 74 753 162 q 414 -13 577 -13 z "},"Ĵ":{"ha":884,"x_min":82,"x_max":819,"o":"m 414 -13 q 171 69 253 -13 q 82 317 90 150 l 189 331 q 244 136 198 186 q 415 86 290 86 q 588 146 530 86 q 645 324 645 207 l 645 912 l 398 912 l 398 1010 l 753 1010 l 753 328 q 665 74 753 162 q 414 -13 577 -13 m 348 1146 l 304 1222 l 523 1408 l 598 1408 l 819 1222 l 775 1146 l 561 1295 l 348 1146 z "},"K":{"ha":884,"x_min":136,"x_max":827,"o":"m 244 491 l 244 0 l 136 0 l 136 1010 l 244 1010 l 244 590 l 285 590 l 697 1010 l 827 1010 l 371 545 l 823 0 l 687 0 l 289 491 l 244 491 z "},"Ķ":{"ha":884,"x_min":136,"x_max":827,"o":"m 244 491 l 244 0 l 136 0 l 136 1010 l 244 1010 l 244 590 l 285 590 l 697 1010 l 827 1010 l 371 545 l 823 0 l 687 0 l 289 491 l 244 491 m 274 -379 l 402 -126 l 572 -126 l 381 -379 l 274 -379 z "},"L":{"ha":884,"x_min":199,"x_max":749,"o":"m 199 0 l 199 1010 l 307 1010 l 307 98 l 749 98 l 749 0 l 199 0 z "},"Ĺ":{"ha":884,"x_min":199,"x_max":749,"o":"m 199 0 l 199 1010 l 307 1010 l 307 98 l 749 98 l 749 0 l 199 0 m 251 1136 l 429 1389 l 600 1389 l 359 1136 l 251 1136 z "},"Ļ":{"ha":884,"x_min":199,"x_max":749,"o":"m 199 0 l 199 1010 l 307 1010 l 307 98 l 749 98 l 749 0 l 199 0 m 292 -379 l 419 -126 l 590 -126 l 399 -379 l 292 -379 z "},"Ľ":{"ha":884,"x_min":199,"x_max":761,"o":"m 199 0 l 199 1010 l 307 1010 l 307 98 l 749 98 l 749 0 l 199 0 m 486 638 l 593 1010 l 761 1010 l 569 638 l 486 638 z "},"M":{"ha":884,"x_min":95,"x_max":790,"o":"m 384 240 l 196 837 l 192 0 l 95 0 l 95 1010 l 255 1010 l 446 376 l 635 1010 l 790 1010 l 790 0 l 692 0 l 688 842 l 500 240 l 384 240 z "},"N":{"ha":884,"x_min":136,"x_max":749,"o":"m 585 0 l 235 884 l 235 0 l 136 0 l 136 1010 l 294 1010 l 650 110 l 650 1010 l 749 1010 l 749 0 l 585 0 z "},"Ñ":{"ha":884,"x_min":136,"x_max":749,"o":"m 585 0 l 235 884 l 235 0 l 136 0 l 136 1010 l 294 1010 l 650 110 l 650 1010 l 749 1010 l 749 0 l 585 0 m 567 1149 q 497 1173 527 1149 q 446 1225 468 1197 q 403 1276 423 1253 q 361 1299 383 1299 q 319 1275 337 1299 q 302 1176 301 1251 l 302 1162 l 213 1162 l 213 1181 q 254 1335 213 1273 q 374 1396 295 1396 q 451 1373 420 1396 q 503 1322 481 1350 q 542 1270 524 1294 q 581 1246 559 1246 q 622 1270 605 1246 q 640 1370 640 1294 l 640 1384 l 729 1384 l 729 1365 q 688 1210 729 1270 q 567 1149 646 1149 z "},"Ń":{"ha":884,"x_min":136,"x_max":749,"o":"m 585 0 l 235 884 l 235 0 l 136 0 l 136 1010 l 294 1010 l 650 110 l 650 1010 l 749 1010 l 749 0 l 585 0 m 326 1136 l 504 1389 l 674 1389 l 433 1136 l 326 1136 z "},"Ņ":{"ha":884,"x_min":136,"x_max":749,"o":"m 249 -379 l 376 -126 l 547 -126 l 356 -379 l 249 -379 m 585 0 l 235 884 l 235 0 l 136 0 l 136 1010 l 294 1010 l 650 110 l 650 1010 l 749 1010 l 749 0 l 585 0 z "},"Ň":{"ha":884,"x_min":136,"x_max":749,"o":"m 585 0 l 235 884 l 235 0 l 136 0 l 136 1010 l 294 1010 l 650 110 l 650 1010 l 749 1010 l 749 0 l 585 0 m 434 1141 l 213 1327 l 258 1403 l 472 1254 l 684 1403 l 729 1327 l 510 1141 l 434 1141 z "},"O":{"ha":884,"x_min":107,"x_max":778,"o":"m 442 -13 q 193 81 278 -13 q 107 357 107 176 l 107 648 q 193 927 107 832 q 443 1023 279 1023 q 692 927 606 1023 q 778 648 778 832 l 778 357 q 692 81 778 176 q 442 -13 606 -13 m 442 86 q 618 147 566 86 q 670 352 670 208 l 670 653 q 618 862 670 801 q 442 924 566 924 q 266 862 318 924 q 215 653 215 801 l 215 352 q 266 147 215 208 q 442 86 318 86 z "},"Ò":{"ha":884,"x_min":107,"x_max":778,"o":"m 442 -13 q 193 81 278 -13 q 107 357 107 176 l 107 648 q 193 927 107 832 q 443 1023 279 1023 q 692 927 606 1023 q 778 648 778 832 l 778 357 q 692 81 778 176 q 442 -13 606 -13 m 442 86 q 618 147 566 86 q 670 352 670 208 l 670 653 q 618 862 670 801 q 442 924 566 924 q 266 862 318 924 q 215 653 215 801 l 215 352 q 266 147 215 208 q 442 86 318 86 m 447 1136 l 206 1389 l 376 1389 l 554 1136 l 447 1136 z "},"Ó":{"ha":884,"x_min":107,"x_max":778,"o":"m 442 -13 q 193 81 278 -13 q 107 357 107 176 l 107 648 q 193 927 107 832 q 443 1023 279 1023 q 692 927 606 1023 q 778 648 778 832 l 778 357 q 692 81 778 176 q 442 -13 606 -13 m 442 86 q 618 147 566 86 q 670 352 670 208 l 670 653 q 618 862 670 801 q 442 924 566 924 q 266 862 318 924 q 215 653 215 801 l 215 352 q 266 147 215 208 q 442 86 318 86 m 355 1136 l 533 1389 l 703 1389 l 462 1136 l 355 1136 z "},"Ô":{"ha":884,"x_min":107,"x_max":778,"o":"m 442 -13 q 193 81 278 -13 q 107 357 107 176 l 107 648 q 193 927 107 832 q 443 1023 279 1023 q 692 927 606 1023 q 778 648 778 832 l 778 357 q 692 81 778 176 q 442 -13 606 -13 m 442 86 q 618 147 566 86 q 670 352 670 208 l 670 653 q 618 862 670 801 q 442 924 566 924 q 266 862 318 924 q 215 653 215 801 l 215 352 q 266 147 215 208 q 442 86 318 86 m 229 1146 l 184 1222 l 403 1408 l 479 1408 l 699 1222 l 655 1146 l 441 1295 l 229 1146 z "},"Õ":{"ha":884,"x_min":107,"x_max":778,"o":"m 442 -13 q 193 81 278 -13 q 107 357 107 176 l 107 648 q 193 927 107 832 q 443 1023 279 1023 q 692 927 606 1023 q 778 648 778 832 l 778 357 q 692 81 778 176 q 442 -13 606 -13 m 442 86 q 618 147 566 86 q 670 352 670 208 l 670 653 q 618 862 670 801 q 442 924 566 924 q 266 862 318 924 q 215 653 215 801 l 215 352 q 266 147 215 208 q 442 86 318 86 m 538 1149 q 468 1173 497 1149 q 417 1225 439 1197 q 374 1276 394 1253 q 332 1299 354 1299 q 290 1275 308 1299 q 273 1176 271 1251 l 273 1162 l 184 1162 l 184 1181 q 225 1335 184 1273 q 345 1396 266 1396 q 422 1373 391 1396 q 473 1322 452 1350 q 513 1270 495 1294 q 552 1246 530 1246 q 593 1270 576 1246 q 611 1370 611 1294 l 611 1384 l 699 1384 l 699 1365 q 658 1210 699 1270 q 538 1149 617 1149 z "},"Ö":{"ha":884,"x_min":107,"x_max":778,"o":"m 442 -13 q 193 81 278 -13 q 107 357 107 176 l 107 648 q 193 927 107 832 q 443 1023 279 1023 q 692 927 606 1023 q 778 648 778 832 l 778 357 q 692 81 778 176 q 442 -13 606 -13 m 442 86 q 618 147 566 86 q 670 352 670 208 l 670 653 q 618 862 670 801 q 442 924 566 924 q 266 862 318 924 q 215 653 215 801 l 215 352 q 266 147 215 208 q 442 86 318 86 m 299 1154 q 244 1168 265 1154 q 223 1221 223 1182 l 223 1229 q 244 1283 223 1268 q 299 1298 265 1298 q 354 1283 333 1298 q 375 1229 375 1268 l 375 1221 q 354 1168 375 1182 q 299 1154 332 1154 m 585 1154 q 530 1168 551 1154 q 509 1221 509 1182 l 509 1229 q 530 1283 509 1268 q 585 1298 551 1298 q 640 1283 619 1298 q 660 1229 660 1268 l 660 1221 q 639 1168 660 1182 q 585 1154 617 1154 z "},"Ō":{"ha":884,"x_min":107,"x_max":778,"o":"m 442 -13 q 193 81 278 -13 q 107 357 107 176 l 107 648 q 193 927 107 832 q 443 1023 279 1023 q 692 927 606 1023 q 778 648 778 832 l 778 357 q 692 81 778 176 q 442 -13 606 -13 m 442 86 q 618 147 566 86 q 670 352 670 208 l 670 653 q 618 862 670 801 q 442 924 566 924 q 266 862 318 924 q 215 653 215 801 l 215 352 q 266 147 215 208 q 442 86 318 86 m 194 1213 l 194 1312 l 689 1312 l 689 1213 l 194 1213 z "},"Ŏ":{"ha":884,"x_min":107,"x_max":778,"o":"m 442 -13 q 193 81 278 -13 q 107 357 107 176 l 107 648 q 193 927 107 832 q 443 1023 279 1023 q 692 927 606 1023 q 778 648 778 832 l 778 357 q 692 81 778 176 q 442 -13 606 -13 m 442 86 q 618 147 566 86 q 670 352 670 208 l 670 653 q 618 862 670 801 q 442 924 566 924 q 266 862 318 924 q 215 653 215 801 l 215 352 q 266 147 215 208 q 442 86 318 86 m 442 1128 q 242 1184 327 1128 q 155 1385 157 1241 l 270 1385 q 314 1256 271 1294 q 442 1217 357 1217 q 569 1256 527 1217 q 614 1385 612 1294 l 729 1385 q 642 1184 727 1241 q 442 1128 557 1128 z "},"Ő":{"ha":884,"x_min":107,"x_max":778,"o":"m 442 -13 q 193 81 278 -13 q 107 357 107 176 l 107 648 q 193 927 107 832 q 443 1023 279 1023 q 692 927 606 1023 q 778 648 778 832 l 778 357 q 692 81 778 176 q 442 -13 606 -13 m 442 86 q 618 147 566 86 q 670 352 670 208 l 670 653 q 618 862 670 801 q 442 924 566 924 q 266 862 318 924 q 215 653 215 801 l 215 352 q 266 147 215 208 q 442 86 318 86 m 513 1136 l 586 1389 l 753 1389 l 597 1136 l 513 1136 m 222 1136 l 294 1389 l 462 1389 l 306 1136 l 222 1136 z "},"P":{"ha":884,"x_min":136,"x_max":792,"o":"m 136 0 l 136 1010 l 485 1010 q 717 944 641 1010 q 792 749 792 879 l 792 628 q 716 430 792 496 q 484 364 640 364 l 244 364 l 244 0 l 136 0 m 244 460 l 486 460 q 640 498 595 460 q 684 626 684 537 l 684 745 q 640 873 684 835 q 486 912 595 912 l 244 912 l 244 460 z "},"Q":{"ha":884,"x_min":107,"x_max":828,"o":"m 828 -236 q 549 -222 649 -278 q 444 -23 449 -165 q 193 71 278 -23 q 107 350 107 165 l 107 648 q 193 929 107 835 q 443 1023 278 1023 q 693 929 609 1023 q 778 648 778 835 l 778 350 q 723 114 778 203 q 562 -6 668 24 q 624 -131 563 -98 q 811 -140 686 -164 l 828 -236 m 442 96 q 618 153 566 96 q 670 345 670 210 l 670 653 q 618 850 670 792 q 442 909 566 909 q 266 850 318 909 q 215 653 215 792 l 215 345 q 266 153 215 210 q 442 96 318 96 z "},"R":{"ha":884,"x_min":136,"x_max":831,"o":"m 244 495 l 515 495 q 668 535 622 495 q 713 669 713 574 l 713 749 q 668 874 713 837 q 515 912 622 912 l 244 912 l 244 495 m 244 0 l 136 0 l 136 1010 l 510 1010 q 745 945 667 1010 q 823 746 823 880 l 823 670 q 759 477 823 545 q 564 399 694 409 l 831 0 l 705 0 l 439 399 l 244 399 l 244 0 z "},"Ŕ":{"ha":884,"x_min":136,"x_max":831,"o":"m 244 495 l 515 495 q 668 535 622 495 q 713 669 713 574 l 713 749 q 668 874 713 837 q 515 912 622 912 l 244 912 l 244 495 m 244 0 l 136 0 l 136 1010 l 510 1010 q 745 945 667 1010 q 823 746 823 880 l 823 670 q 759 477 823 545 q 564 399 694 409 l 831 0 l 705 0 l 439 399 l 244 399 l 244 0 m 407 1136 l 585 1389 l 755 1389 l 514 1136 l 407 1136 z "},"Ŗ":{"ha":884,"x_min":136,"x_max":831,"o":"m 244 495 l 515 495 q 668 535 622 495 q 713 669 713 574 l 713 749 q 668 874 713 837 q 515 912 622 912 l 244 912 l 244 495 m 244 0 l 136 0 l 136 1010 l 510 1010 q 745 945 667 1010 q 823 746 823 880 l 823 670 q 759 477 823 545 q 564 399 694 409 l 831 0 l 705 0 l 439 399 l 244 399 l 244 0 m 261 -379 l 389 -126 l 559 -126 l 369 -379 l 261 -379 z "},"Ř":{"ha":884,"x_min":136,"x_max":831,"o":"m 244 495 l 515 495 q 668 535 622 495 q 713 669 713 574 l 713 749 q 668 874 713 837 q 515 912 622 912 l 244 912 l 244 495 m 244 0 l 136 0 l 136 1010 l 510 1010 q 745 945 667 1010 q 823 746 823 880 l 823 670 q 759 477 823 545 q 564 399 694 409 l 831 0 l 705 0 l 439 399 l 244 399 l 244 0 m 415 1141 l 194 1327 l 239 1403 l 453 1254 l 665 1403 l 710 1327 l 491 1141 l 415 1141 z "},"S":{"ha":884,"x_min":72,"x_max":792,"o":"m 462 -6 q 251 32 351 -6 q 72 178 152 69 l 168 242 q 292 129 218 167 q 466 92 365 92 q 623 139 562 92 q 684 265 684 186 q 634 382 684 340 q 433 471 583 424 q 181 587 247 527 q 114 759 114 648 q 201 951 114 889 q 404 1014 288 1014 q 607 976 511 1014 q 779 830 703 938 l 686 761 q 562 878 639 841 q 407 915 485 915 q 273 881 324 915 q 222 766 222 847 q 278 655 222 696 q 492 566 333 614 q 729 455 667 513 q 792 288 792 396 q 689 68 792 143 q 462 -6 587 -6 z "},"":{"ha":884,"x_min":72,"x_max":792,"o":"m 462 -6 q 251 32 351 -6 q 72 178 152 69 l 168 242 q 292 129 218 167 q 466 92 365 92 q 623 139 562 92 q 684 265 684 186 q 634 382 684 340 q 433 471 583 424 q 181 587 247 527 q 114 759 114 648 q 201 951 114 889 q 404 1014 288 1014 q 607 976 511 1014 q 779 830 703 938 l 686 761 q 562 878 639 841 q 407 915 485 915 q 273 881 324 915 q 222 766 222 847 q 278 655 222 696 q 492 566 333 614 q 729 455 667 513 q 792 288 792 396 q 689 68 792 143 q 462 -6 587 -6 z "},"Ś":{"ha":884,"x_min":72,"x_max":792,"o":"m 462 -6 q 251 32 351 -6 q 72 178 152 69 l 168 242 q 292 129 218 167 q 466 92 365 92 q 623 139 562 92 q 684 265 684 186 q 634 382 684 340 q 433 471 583 424 q 181 587 247 527 q 114 759 114 648 q 201 951 114 889 q 404 1014 288 1014 q 607 976 511 1014 q 779 830 703 938 l 686 761 q 562 878 639 841 q 407 915 485 915 q 273 881 324 915 q 222 766 222 847 q 278 655 222 696 q 492 566 333 614 q 729 455 667 513 q 792 288 792 396 q 689 68 792 143 q 462 -6 587 -6 m 303 1136 l 481 1389 l 652 1389 l 410 1136 l 303 1136 z "},"Ŝ":{"ha":884,"x_min":72,"x_max":792,"o":"m 462 -6 q 251 32 351 -6 q 72 178 152 69 l 168 242 q 292 129 218 167 q 466 92 365 92 q 623 139 562 92 q 684 265 684 186 q 634 382 684 340 q 433 471 583 424 q 181 587 247 527 q 114 759 114 648 q 201 951 114 889 q 404 1014 288 1014 q 607 976 511 1014 q 779 830 703 938 l 686 761 q 562 878 639 841 q 407 915 485 915 q 273 881 324 915 q 222 766 222 847 q 278 655 222 696 q 492 566 333 614 q 729 455 667 513 q 792 288 792 396 q 689 68 792 143 q 462 -6 587 -6 m 230 1146 l 186 1222 l 404 1408 l 480 1408 l 701 1222 l 657 1146 l 442 1295 l 230 1146 z "},"Ş":{"ha":884,"x_min":72,"x_max":792,"o":"m 462 -6 q 251 32 351 -6 q 72 178 152 69 l 168 242 q 292 129 218 167 q 466 92 365 92 q 623 139 562 92 q 684 265 684 186 q 634 382 684 340 q 433 471 583 424 q 181 587 247 527 q 114 759 114 648 q 201 951 114 889 q 404 1014 288 1014 q 607 976 511 1014 q 779 830 703 938 l 686 761 q 562 878 639 841 q 407 915 485 915 q 273 881 324 915 q 222 766 222 847 q 278 655 222 696 q 492 566 333 614 q 729 455 667 513 q 792 288 792 396 q 689 68 792 143 q 462 -6 587 -6 m 405 0 l 431 53 q 527 5 479 43 q 574 -116 574 -33 q 521 -233 574 -196 q 403 -270 468 -270 q 277 -241 326 -270 q 222 -144 227 -212 l 318 -131 q 338 -165 321 -155 q 396 -174 356 -174 q 456 -158 436 -174 q 476 -98 476 -141 q 460 -32 476 -53 q 405 0 443 -10 z "},"Š":{"ha":884,"x_min":72,"x_max":792,"o":"m 462 -6 q 251 32 351 -6 q 72 178 152 69 l 168 242 q 292 129 218 167 q 466 92 365 92 q 623 139 562 92 q 684 265 684 186 q 634 382 684 340 q 433 471 583 424 q 181 587 247 527 q 114 759 114 648 q 201 951 114 889 q 404 1014 288 1014 q 607 976 511 1014 q 779 830 703 938 l 686 761 q 562 878 639 841 q 407 915 485 915 q 273 881 324 915 q 222 766 222 847 q 278 655 222 696 q 492 566 333 614 q 729 455 667 513 q 792 288 792 396 q 689 68 792 143 q 462 -6 587 -6 m 407 1141 l 186 1327 l 230 1403 l 444 1254 l 657 1403 l 701 1327 l 482 1141 l 407 1141 z "},"Ș":{"ha":884,"x_min":72,"x_max":792,"o":"m 462 -6 q 251 32 351 -6 q 72 178 152 69 l 168 242 q 292 129 218 167 q 466 92 365 92 q 623 139 562 92 q 684 265 684 186 q 634 382 684 340 q 433 471 583 424 q 181 587 247 527 q 114 759 114 648 q 201 951 114 889 q 404 1014 288 1014 q 607 976 511 1014 q 779 830 703 938 l 686 761 q 562 878 639 841 q 407 915 485 915 q 273 881 324 915 q 222 766 222 847 q 278 655 222 696 q 492 566 333 614 q 729 455 667 513 q 792 288 792 396 q 689 68 792 143 q 462 -6 587 -6 m 253 -379 l 380 -126 l 551 -126 l 360 -379 l 253 -379 z "},"T":{"ha":884,"x_min":67,"x_max":817,"o":"m 389 0 l 389 912 l 67 912 l 67 1010 l 817 1010 l 817 912 l 496 912 l 496 0 l 389 0 z "},"Ţ":{"ha":884,"x_min":67,"x_max":817,"o":"m 389 0 l 389 912 l 67 912 l 67 1010 l 817 1010 l 817 912 l 496 912 l 496 0 l 389 0 m 388 0 l 413 53 q 509 5 461 43 q 557 -116 557 -33 q 504 -233 557 -196 q 385 -270 451 -270 q 259 -241 308 -270 q 205 -144 210 -212 l 301 -131 q 321 -165 303 -155 q 379 -174 338 -174 q 438 -158 418 -174 q 458 -98 458 -141 q 442 -32 458 -53 q 388 0 426 -10 z "},"Ť":{"ha":884,"x_min":67,"x_max":817,"o":"m 389 0 l 389 912 l 67 912 l 67 1010 l 817 1010 l 817 912 l 496 912 l 496 0 l 389 0 m 405 1141 l 184 1327 l 229 1403 l 443 1254 l 655 1403 l 699 1327 l 481 1141 l 405 1141 z "},"Ț":{"ha":884,"x_min":67,"x_max":817,"o":"m 389 0 l 389 912 l 67 912 l 67 1010 l 817 1010 l 817 912 l 496 912 l 496 0 l 389 0 m 249 -379 l 376 -126 l 547 -126 l 356 -379 l 249 -379 z "},"U":{"ha":884,"x_min":136,"x_max":749,"o":"m 442 -13 q 213 78 289 -13 q 136 350 136 169 l 136 1010 l 244 1010 l 244 347 q 289 144 244 205 q 442 83 333 83 q 596 144 551 83 q 641 347 641 205 l 641 1010 l 749 1010 l 749 350 q 672 78 749 169 q 442 -13 595 -13 z "},"Ù":{"ha":884,"x_min":136,"x_max":749,"o":"m 442 -13 q 213 78 289 -13 q 136 350 136 169 l 136 1010 l 244 1010 l 244 347 q 289 144 244 205 q 442 83 333 83 q 596 144 551 83 q 641 347 641 205 l 641 1010 l 749 1010 l 749 350 q 672 78 749 169 q 442 -13 595 -13 m 447 1136 l 206 1389 l 376 1389 l 554 1136 l 447 1136 z "},"Ú":{"ha":884,"x_min":136,"x_max":749,"o":"m 442 -13 q 213 78 289 -13 q 136 350 136 169 l 136 1010 l 244 1010 l 244 347 q 289 144 244 205 q 442 83 333 83 q 596 144 551 83 q 641 347 641 205 l 641 1010 l 749 1010 l 749 350 q 672 78 749 169 q 442 -13 595 -13 m 302 1136 l 480 1389 l 650 1389 l 409 1136 l 302 1136 z "},"Û":{"ha":884,"x_min":136,"x_max":749,"o":"m 442 -13 q 213 78 289 -13 q 136 350 136 169 l 136 1010 l 244 1010 l 244 347 q 289 144 244 205 q 442 83 333 83 q 596 144 551 83 q 641 347 641 205 l 641 1010 l 749 1010 l 749 350 q 672 78 749 169 q 442 -13 595 -13 m 229 1146 l 184 1222 l 403 1408 l 479 1408 l 699 1222 l 655 1146 l 441 1295 l 229 1146 z "},"Ü":{"ha":884,"x_min":136,"x_max":749,"o":"m 442 -13 q 213 78 289 -13 q 136 350 136 169 l 136 1010 l 244 1010 l 244 347 q 289 144 244 205 q 442 83 333 83 q 596 144 551 83 q 641 347 641 205 l 641 1010 l 749 1010 l 749 350 q 672 78 749 169 q 442 -13 595 -13 m 299 1154 q 244 1168 265 1154 q 223 1221 223 1182 l 223 1229 q 244 1283 223 1268 q 299 1298 265 1298 q 354 1283 333 1298 q 375 1229 375 1268 l 375 1221 q 354 1168 375 1182 q 299 1154 332 1154 m 585 1154 q 530 1168 551 1154 q 509 1221 509 1182 l 509 1229 q 530 1283 509 1268 q 585 1298 551 1298 q 640 1283 619 1298 q 660 1229 660 1268 l 660 1221 q 639 1168 660 1182 q 585 1154 617 1154 z "},"Ũ":{"ha":884,"x_min":136,"x_max":749,"o":"m 442 -13 q 213 78 289 -13 q 136 350 136 169 l 136 1010 l 244 1010 l 244 347 q 289 144 244 205 q 442 83 333 83 q 596 144 551 83 q 641 347 641 205 l 641 1010 l 749 1010 l 749 350 q 672 78 749 169 q 442 -13 595 -13 m 538 1149 q 468 1173 497 1149 q 417 1225 439 1197 q 374 1276 394 1253 q 332 1299 354 1299 q 290 1275 308 1299 q 273 1176 271 1251 l 273 1162 l 184 1162 l 184 1181 q 225 1335 184 1273 q 345 1396 266 1396 q 422 1373 391 1396 q 473 1322 452 1350 q 513 1270 495 1294 q 552 1246 530 1246 q 593 1270 576 1246 q 611 1370 611 1294 l 611 1384 l 699 1384 l 699 1365 q 658 1210 699 1270 q 538 1149 617 1149 z "},"Ū":{"ha":884,"x_min":136,"x_max":749,"o":"m 442 -13 q 213 78 289 -13 q 136 350 136 169 l 136 1010 l 244 1010 l 244 347 q 289 144 244 205 q 442 83 333 83 q 596 144 551 83 q 641 347 641 205 l 641 1010 l 749 1010 l 749 350 q 672 78 749 169 q 442 -13 595 -13 m 194 1213 l 194 1312 l 689 1312 l 689 1213 l 194 1213 z "},"Ŭ":{"ha":884,"x_min":136,"x_max":749,"o":"m 442 -13 q 213 78 289 -13 q 136 350 136 169 l 136 1010 l 244 1010 l 244 347 q 289 144 244 205 q 442 83 333 83 q 596 144 551 83 q 641 347 641 205 l 641 1010 l 749 1010 l 749 350 q 672 78 749 169 q 442 -13 595 -13 m 442 1128 q 242 1184 327 1128 q 155 1385 157 1241 l 270 1385 q 314 1256 271 1294 q 442 1217 357 1217 q 569 1256 527 1217 q 614 1385 612 1294 l 729 1385 q 642 1184 727 1241 q 442 1128 557 1128 z "},"Ů":{"ha":884,"x_min":136,"x_max":749,"o":"m 442 -13 q 213 78 289 -13 q 136 350 136 169 l 136 1010 l 244 1010 l 244 347 q 289 144 244 205 q 442 83 333 83 q 596 144 551 83 q 641 347 641 205 l 641 1010 l 749 1010 l 749 350 q 672 78 749 169 q 442 -13 595 -13 m 442 1120 q 302 1164 355 1120 q 249 1301 249 1208 l 249 1341 q 302 1480 249 1434 q 442 1525 355 1525 q 582 1480 529 1525 q 635 1341 635 1434 l 635 1301 q 582 1164 635 1208 q 442 1120 529 1120 m 442 1205 q 521 1227 494 1205 q 548 1301 548 1249 l 548 1341 q 521 1416 548 1391 q 442 1441 494 1441 q 362 1416 389 1441 q 336 1341 336 1391 l 336 1301 q 362 1227 336 1249 q 442 1205 389 1205 z "},"Ű":{"ha":884,"x_min":136,"x_max":765,"o":"m 442 -13 q 213 78 289 -13 q 136 350 136 169 l 136 1010 l 244 1010 l 244 347 q 289 144 244 205 q 442 83 333 83 q 596 144 551 83 q 641 347 641 205 l 641 1010 l 749 1010 l 749 350 q 672 78 749 169 q 442 -13 595 -13 m 525 1136 l 598 1389 l 765 1389 l 610 1136 l 525 1136 m 235 1136 l 307 1389 l 475 1389 l 318 1136 l 235 1136 z "},"Ų":{"ha":884,"x_min":136,"x_max":749,"o":"m 523 -269 q 393 -229 447 -269 q 338 -121 338 -189 q 384 -18 338 -64 q 486 52 431 28 l 520 29 q 460 -30 477 3 q 443 -90 443 -63 q 467 -144 443 -125 q 532 -163 491 -163 q 590 -159 554 -163 q 644 -150 625 -155 l 644 -258 q 587 -266 624 -263 q 523 -269 551 -269 m 442 -13 q 213 78 289 -13 q 136 350 136 169 l 136 1010 l 244 1010 l 244 347 q 289 144 244 205 q 442 83 333 83 q 596 144 551 83 q 641 347 641 205 l 641 1010 l 749 1010 l 749 350 q 672 78 749 169 q 442 -13 595 -13 z "},"V":{"ha":884,"x_min":57,"x_max":830,"o":"m 494 0 l 391 0 l 57 1010 l 176 1010 l 444 160 l 712 1010 l 830 1010 l 494 0 z "},"W":{"ha":884,"x_min":33,"x_max":851,"o":"m 601 0 l 441 629 l 283 0 l 170 0 l 33 1010 l 145 1010 l 242 173 l 383 758 l 509 758 l 649 169 l 746 1010 l 851 1010 l 713 0 l 601 0 z "},"Ŵ":{"ha":884,"x_min":33,"x_max":851,"o":"m 601 0 l 441 629 l 283 0 l 170 0 l 33 1010 l 145 1010 l 242 173 l 383 758 l 509 758 l 649 169 l 746 1010 l 851 1010 l 713 0 l 601 0 m 229 1146 l 184 1222 l 403 1408 l 479 1408 l 699 1222 l 655 1146 l 441 1295 l 229 1146 z "},"Ẁ":{"ha":884,"x_min":33,"x_max":851,"o":"m 601 0 l 441 629 l 283 0 l 170 0 l 33 1010 l 145 1010 l 242 173 l 383 758 l 509 758 l 649 169 l 746 1010 l 851 1010 l 713 0 l 601 0 m 462 1136 l 221 1389 l 391 1389 l 569 1136 l 462 1136 z "},"Ẃ":{"ha":884,"x_min":33,"x_max":851,"o":"m 601 0 l 441 629 l 283 0 l 170 0 l 33 1010 l 145 1010 l 242 173 l 383 758 l 509 758 l 649 169 l 746 1010 l 851 1010 l 713 0 l 601 0 m 317 1136 l 495 1389 l 665 1389 l 424 1136 l 317 1136 z "},"Ẅ":{"ha":884,"x_min":33,"x_max":851,"o":"m 601 0 l 441 629 l 283 0 l 170 0 l 33 1010 l 145 1010 l 242 173 l 383 758 l 509 758 l 649 169 l 746 1010 l 851 1010 l 713 0 l 601 0 m 298 1154 q 243 1168 264 1154 q 222 1221 222 1182 l 222 1229 q 243 1283 222 1268 q 298 1298 264 1298 q 353 1283 332 1298 q 374 1229 374 1268 l 374 1221 q 352 1168 374 1182 q 298 1154 331 1154 m 583 1154 q 528 1168 549 1154 q 508 1221 508 1182 l 508 1229 q 528 1283 508 1268 q 583 1298 549 1298 q 638 1283 617 1298 q 659 1229 659 1268 l 659 1221 q 638 1168 659 1182 q 583 1154 616 1154 z "},"X":{"ha":884,"x_min":24,"x_max":862,"o":"m 729 0 l 444 434 l 158 0 l 24 0 l 385 514 l 56 1010 l 184 1010 l 456 593 l 730 1010 l 862 1010 l 515 515 l 859 0 l 729 0 z "},"Y":{"ha":884,"x_min":18,"x_max":865,"o":"m 496 0 l 389 0 l 389 379 l 18 1010 l 143 1010 l 451 480 l 742 1010 l 865 1010 l 496 379 l 496 0 z "},"Ý":{"ha":884,"x_min":18,"x_max":865,"o":"m 496 0 l 389 0 l 389 379 l 18 1010 l 143 1010 l 451 480 l 742 1010 l 865 1010 l 496 379 l 496 0 m 302 1136 l 480 1389 l 650 1389 l 409 1136 l 302 1136 z "},"Ŷ":{"ha":884,"x_min":18,"x_max":865,"o":"m 496 0 l 389 0 l 389 379 l 18 1010 l 143 1010 l 451 480 l 742 1010 l 865 1010 l 496 379 l 496 0 m 229 1146 l 184 1222 l 403 1408 l 479 1408 l 699 1222 l 655 1146 l 441 1295 l 229 1146 z "},"Ÿ":{"ha":884,"x_min":18,"x_max":865,"o":"m 496 0 l 389 0 l 389 379 l 18 1010 l 143 1010 l 451 480 l 742 1010 l 865 1010 l 496 379 l 496 0 m 299 1154 q 244 1168 265 1154 q 223 1221 223 1182 l 223 1229 q 244 1283 223 1268 q 299 1298 265 1298 q 354 1283 333 1298 q 375 1229 375 1268 l 375 1221 q 354 1168 375 1182 q 299 1154 332 1154 m 585 1154 q 530 1168 551 1154 q 509 1221 509 1182 l 509 1229 q 530 1283 509 1268 q 585 1298 551 1298 q 640 1283 619 1298 q 660 1229 660 1268 l 660 1221 q 639 1168 660 1182 q 585 1154 617 1154 z "},"Ỳ":{"ha":884,"x_min":18,"x_max":865,"o":"m 496 0 l 389 0 l 389 379 l 18 1010 l 143 1010 l 451 480 l 742 1010 l 865 1010 l 496 379 l 496 0 m 447 1136 l 206 1389 l 376 1389 l 554 1136 l 447 1136 z "},"Z":{"ha":884,"x_min":107,"x_max":778,"o":"m 778 0 l 107 0 l 107 98 l 643 912 l 107 912 l 107 1010 l 778 1010 l 778 912 l 240 98 l 778 98 l 778 0 z "},"Ź":{"ha":884,"x_min":107,"x_max":778,"o":"m 778 0 l 107 0 l 107 98 l 643 912 l 107 912 l 107 1010 l 778 1010 l 778 912 l 240 98 l 778 98 l 778 0 m 340 1136 l 518 1389 l 688 1389 l 447 1136 l 340 1136 z "},"Ż":{"ha":884,"x_min":107,"x_max":778,"o":"m 778 0 l 107 0 l 107 98 l 643 912 l 107 912 l 107 1010 l 778 1010 l 778 912 l 240 98 l 778 98 l 778 0 m 442 1154 q 370 1168 398 1154 q 342 1221 342 1182 l 342 1229 q 370 1283 342 1268 q 442 1298 398 1298 q 514 1283 486 1298 q 542 1229 542 1268 l 542 1221 q 513 1168 542 1182 q 442 1154 485 1154 z "},"Ž":{"ha":884,"x_min":107,"x_max":778,"o":"m 778 0 l 107 0 l 107 98 l 643 912 l 107 912 l 107 1010 l 778 1010 l 778 912 l 240 98 l 778 98 l 778 0 m 405 1141 l 184 1327 l 229 1403 l 443 1254 l 655 1403 l 699 1327 l 481 1141 l 405 1141 z "},"Æ":{"ha":884,"x_min":-3,"x_max":874,"o":"m 371 924 l 212 389 l 461 389 l 461 924 l 371 924 m 461 303 l 186 303 l 96 0 l -3 0 l 313 1010 l 874 1010 l 874 924 l 559 924 l 559 586 l 862 586 l 862 500 l 559 500 l 559 86 l 874 86 l 874 0 l 461 0 l 461 303 z "},"Ǽ":{"ha":884,"x_min":-3,"x_max":874,"o":"m 371 924 l 212 389 l 461 389 l 461 924 l 371 924 m 461 303 l 186 303 l 96 0 l -3 0 l 313 1010 l 874 1010 l 874 924 l 559 924 l 559 586 l 862 586 l 862 500 l 559 500 l 559 86 l 874 86 l 874 0 l 461 0 l 461 303 m 468 1136 l 646 1389 l 817 1389 l 576 1136 l 468 1136 z "},"Ð":{"ha":884,"x_min":0,"x_max":778,"o":"m 136 0 l 136 503 l 0 503 l 0 609 l 136 609 l 136 1010 l 400 1010 q 677 910 577 1010 q 778 643 778 809 l 778 362 q 677 98 778 197 q 399 0 576 0 l 136 0 m 244 98 l 403 98 q 604 172 537 98 q 670 357 670 246 l 670 648 q 604 835 670 758 q 403 912 537 912 l 244 912 l 244 609 l 442 609 l 442 503 l 244 503 l 244 98 z "},"Ø":{"ha":884,"x_min":107,"x_max":778,"o":"m 249 167 l 542 912 q 496 921 521 918 q 442 924 471 924 q 270 864 321 924 q 218 658 218 804 l 218 347 q 225 244 218 289 q 249 167 232 199 m 442 86 q 615 145 563 86 q 667 347 667 205 l 667 658 q 655 787 667 734 q 619 874 643 840 l 318 107 q 373 92 342 97 q 442 86 404 86 m 442 -13 q 360 -6 399 -13 q 290 14 322 1 l 235 -126 l 116 -126 l 196 77 q 130 192 153 122 q 107 352 107 261 l 107 653 q 193 929 107 835 q 443 1023 279 1023 q 509 1018 479 1023 q 568 1005 540 1014 l 621 1136 l 740 1136 l 665 953 q 749 832 721 908 q 778 653 778 756 l 778 352 q 691 81 778 174 q 442 -13 605 -13 z "},"Ǿ":{"ha":884,"x_min":107,"x_max":778,"o":"m 249 167 l 542 912 q 496 921 521 918 q 442 924 471 924 q 270 864 321 924 q 218 658 218 804 l 218 347 q 225 244 218 289 q 249 167 232 199 m 442 86 q 615 145 563 86 q 667 347 667 205 l 667 658 q 655 787 667 734 q 619 874 643 840 l 318 107 q 373 92 342 97 q 442 86 404 86 m 442 -13 q 360 -6 399 -13 q 290 14 322 1 l 235 -126 l 116 -126 l 196 77 q 130 192 153 122 q 107 352 107 261 l 107 653 q 193 929 107 835 q 443 1023 279 1023 q 509 1018 479 1023 q 568 1005 540 1014 l 621 1136 l 740 1136 l 665 953 q 749 832 721 908 q 778 653 778 756 l 778 352 q 691 81 778 174 q 442 -13 605 -13 m 355 1136 l 533 1389 l 703 1389 l 462 1136 l 355 1136 z "},"Þ":{"ha":884,"x_min":136,"x_max":792,"o":"m 136 0 l 136 1010 l 244 1010 l 244 843 l 485 843 q 715 778 639 843 q 792 582 792 712 l 792 471 q 715 266 792 335 q 484 197 638 197 l 244 197 l 244 0 l 136 0 m 244 293 l 487 293 q 640 333 595 293 q 684 468 684 372 l 684 582 q 640 708 684 670 q 487 745 595 745 l 244 745 l 244 293 z "},"Đ":{"ha":884,"x_min":0,"x_max":778,"o":"m 136 0 l 136 503 l 0 503 l 0 609 l 136 609 l 136 1010 l 400 1010 q 677 910 577 1010 q 778 643 778 809 l 778 362 q 677 98 778 197 q 399 0 576 0 l 136 0 m 244 98 l 403 98 q 604 172 537 98 q 670 357 670 246 l 670 648 q 604 835 670 758 q 403 912 537 912 l 244 912 l 244 609 l 442 609 l 442 503 l 244 503 l 244 98 z "},"Ħ":{"ha":884,"x_min":0,"x_max":884,"o":"m 241 545 l 643 545 l 643 710 l 241 710 l 241 545 m 241 447 l 241 0 l 134 0 l 134 710 l 0 710 l 0 816 l 134 816 l 134 1010 l 241 1010 l 241 816 l 643 816 l 643 1010 l 750 1010 l 750 816 l 884 816 l 884 710 l 750 710 l 750 0 l 643 0 l 643 447 l 241 447 z "},"Ĳ":{"ha":884,"x_min":80,"x_max":806,"o":"m 197 0 l 80 0 l 80 1010 l 197 1010 l 197 0 m 551 -13 q 378 57 443 -13 q 301 322 312 128 l 418 336 q 454 141 428 191 q 552 91 480 91 q 661 157 633 91 q 689 307 689 222 l 689 907 l 438 907 l 438 1010 l 806 1010 l 806 311 q 744 74 806 160 q 551 -13 682 -13 z "},"Ŀ":{"ha":884,"x_min":199,"x_max":845,"o":"m 199 0 l 199 1010 l 307 1010 l 307 98 l 749 98 l 749 0 l 199 0 m 745 524 q 673 538 701 524 q 645 591 645 552 l 645 598 q 673 653 645 638 q 745 668 701 668 q 817 653 789 668 q 845 598 845 638 l 845 591 q 816 538 845 552 q 745 524 788 524 z "},"Ł":{"ha":884,"x_min":67,"x_max":749,"o":"m 199 0 l 199 465 l 67 424 l 67 515 l 199 556 l 199 1010 l 307 1010 l 307 588 l 626 687 l 626 596 l 307 497 l 307 98 l 749 98 l 749 0 l 199 0 z "},"Ŋ":{"ha":884,"x_min":136,"x_max":749,"o":"m 460 -263 q 364 -250 413 -263 q 258 -220 316 -237 l 283 -106 q 378 -138 336 -126 q 460 -149 420 -149 q 591 -96 540 -149 q 641 82 641 -43 l 641 730 q 595 874 641 832 q 482 917 548 917 q 355 871 404 917 q 244 754 306 826 l 244 0 l 136 0 l 136 1010 l 244 1010 l 244 861 l 282 861 q 375 979 313 936 q 511 1023 437 1023 q 686 950 624 1023 q 749 753 749 878 l 749 67 q 667 -181 749 -100 q 460 -263 585 -263 z "},"Œ":{"ha":884,"x_min":9,"x_max":898,"o":"m 340 0 q 97 98 184 0 q 9 361 9 197 l 9 641 q 96 910 9 809 q 337 1010 183 1010 l 888 1010 l 888 924 l 559 924 l 559 601 l 898 601 l 898 515 l 559 515 l 559 86 l 888 86 l 888 0 l 340 0 m 336 83 l 461 83 l 461 927 l 336 927 q 165 846 222 927 q 107 646 107 765 l 107 356 q 165 160 107 236 q 336 83 222 83 z "},"Ŧ":{"ha":884,"x_min":67,"x_max":817,"o":"m 389 0 l 389 396 l 129 396 l 129 503 l 389 503 l 389 912 l 67 912 l 67 1010 l 817 1010 l 817 912 l 496 912 l 496 503 l 756 503 l 756 396 l 496 396 l 496 0 l 389 0 z "},"Α":{"ha":884,"x_min":57,"x_max":830,"o":"m 586 402 l 439 876 l 294 402 l 586 402 m 711 0 l 617 303 l 264 303 l 170 0 l 57 0 l 390 1010 l 496 1010 l 830 0 l 711 0 z "},"Ά":{"ha":884,"x_min":45,"x_max":830,"o":"m 586 402 l 439 876 l 294 402 l 586 402 m 711 0 l 617 303 l 264 303 l 170 0 l 57 0 l 390 1010 l 496 1010 l 830 0 l 711 0 m 45 884 l 148 1136 l 306 1136 l 140 884 l 45 884 z "},"Β":{"ha":884,"x_min":136,"x_max":783,"o":"m 136 0 l 136 1010 l 437 1010 q 667 952 592 1010 q 741 773 741 894 l 741 713 q 704 608 741 653 q 605 553 667 563 l 605 516 q 735 453 687 509 q 783 311 783 398 l 783 256 q 701 63 783 126 q 447 0 619 0 l 136 0 m 244 576 l 455 576 q 593 612 549 576 q 636 727 636 648 l 636 758 q 593 873 636 837 q 455 909 549 909 l 244 909 l 244 576 m 244 101 l 485 101 q 629 141 583 101 q 676 270 676 182 l 676 306 q 629 434 676 394 q 485 475 583 475 l 244 475 l 244 101 z "},"Γ":{"ha":884,"x_min":126,"x_max":774,"o":"m 126 0 l 126 1010 l 774 1010 l 774 912 l 234 912 l 234 0 l 126 0 z "},"Δ":{"ha":884,"x_min":53,"x_max":832,"o":"m 53 0 l 53 98 l 385 1010 l 484 1010 l 832 98 l 832 0 l 53 0 m 721 98 l 439 883 l 159 98 l 721 98 z "},"Ε":{"ha":884,"x_min":136,"x_max":778,"o":"m 136 0 l 136 1010 l 778 1010 l 778 912 l 244 912 l 244 601 l 715 601 l 715 503 l 244 503 l 244 98 l 778 98 l 778 0 l 136 0 z "},"Έ":{"ha":884,"x_min":-130,"x_max":778,"o":"m 136 0 l 136 1010 l 778 1010 l 778 912 l 244 912 l 244 601 l 715 601 l 715 503 l 244 503 l 244 98 l 778 98 l 778 0 l 136 0 m -130 884 l -28 1136 l 130 1136 l -35 884 l -130 884 z "},"Ζ":{"ha":884,"x_min":107,"x_max":778,"o":"m 778 0 l 107 0 l 107 98 l 643 912 l 107 912 l 107 1010 l 778 1010 l 778 912 l 240 98 l 778 98 l 778 0 z "},"Η":{"ha":884,"x_min":136,"x_max":749,"o":"m 136 0 l 136 1010 l 244 1010 l 244 596 l 641 596 l 641 1010 l 749 1010 l 749 0 l 641 0 l 641 497 l 244 497 l 244 0 l 136 0 z "},"Ή":{"ha":884,"x_min":-140,"x_max":749,"o":"m 136 0 l 136 1010 l 244 1010 l 244 596 l 641 596 l 641 1010 l 749 1010 l 749 0 l 641 0 l 641 497 l 244 497 l 244 0 l 136 0 m -140 884 l -38 1136 l 120 1136 l -45 884 l -140 884 z "},"Θ":{"ha":884,"x_min":63,"x_max":821,"o":"m 442 -13 q 158 80 254 -13 q 63 352 63 172 l 63 653 q 159 929 63 836 q 443 1023 255 1023 q 725 929 630 1023 q 821 653 821 836 l 821 352 q 725 80 821 172 q 442 -13 630 -13 m 442 86 q 648 145 588 86 q 708 347 708 205 l 708 658 q 648 864 708 804 q 442 924 588 924 q 236 864 295 924 q 177 658 177 804 l 177 347 q 236 145 177 205 q 442 86 295 86 m 312 460 l 312 563 l 572 563 l 572 460 l 312 460 z "},"Ι":{"ha":884,"x_min":136,"x_max":749,"o":"m 136 0 l 136 98 l 389 98 l 389 912 l 136 912 l 136 1010 l 749 1010 l 749 912 l 496 912 l 496 98 l 749 98 l 749 0 l 136 0 z "},"Ί":{"ha":884,"x_min":-140,"x_max":749,"o":"m 136 0 l 136 98 l 389 98 l 389 912 l 136 912 l 136 1010 l 749 1010 l 749 912 l 496 912 l 496 98 l 749 98 l 749 0 l 136 0 m -140 884 l -38 1136 l 120 1136 l -45 884 l -140 884 z "},"Ϊ":{"ha":884,"x_min":136,"x_max":749,"o":"m 136 0 l 136 98 l 389 98 l 389 912 l 136 912 l 136 1010 l 749 1010 l 749 912 l 496 912 l 496 98 l 749 98 l 749 0 l 136 0 m 299 1154 q 244 1168 265 1154 q 223 1221 223 1182 l 223 1229 q 244 1283 223 1268 q 299 1298 265 1298 q 354 1283 333 1298 q 375 1229 375 1268 l 375 1221 q 354 1168 375 1182 q 299 1154 332 1154 m 585 1154 q 530 1168 551 1154 q 509 1221 509 1182 l 509 1229 q 530 1283 509 1268 q 585 1298 551 1298 q 640 1283 619 1298 q 660 1229 660 1268 l 660 1221 q 639 1168 660 1182 q 585 1154 617 1154 z "},"Κ":{"ha":884,"x_min":136,"x_max":827,"o":"m 244 491 l 244 0 l 136 0 l 136 1010 l 244 1010 l 244 590 l 285 590 l 697 1010 l 827 1010 l 371 545 l 823 0 l 687 0 l 289 491 l 244 491 z "},"Λ":{"ha":884,"x_min":57,"x_max":830,"o":"m 711 0 l 439 876 l 170 0 l 57 0 l 390 1010 l 496 1010 l 830 0 l 711 0 z "},"Μ":{"ha":884,"x_min":95,"x_max":790,"o":"m 384 240 l 196 837 l 192 0 l 95 0 l 95 1010 l 255 1010 l 446 376 l 635 1010 l 790 1010 l 790 0 l 692 0 l 688 842 l 500 240 l 384 240 z "},"Ν":{"ha":884,"x_min":136,"x_max":749,"o":"m 585 0 l 235 884 l 235 0 l 136 0 l 136 1010 l 294 1010 l 650 110 l 650 1010 l 749 1010 l 749 0 l 585 0 z "},"Ξ":{"ha":884,"x_min":107,"x_max":778,"o":"m 107 912 l 107 1010 l 778 1010 l 778 912 l 107 912 m 139 503 l 139 601 l 746 601 l 746 503 l 139 503 m 107 0 l 107 98 l 778 98 l 778 0 l 107 0 z "},"Ο":{"ha":884,"x_min":107,"x_max":778,"o":"m 442 -13 q 193 81 278 -13 q 107 357 107 176 l 107 648 q 193 927 107 832 q 443 1023 279 1023 q 692 927 606 1023 q 778 648 778 832 l 778 357 q 692 81 778 176 q 442 -13 606 -13 m 442 86 q 618 147 566 86 q 670 352 670 208 l 670 653 q 618 862 670 801 q 442 924 566 924 q 266 862 318 924 q 215 653 215 801 l 215 352 q 266 147 215 208 q 442 86 318 86 z "},"Ό":{"ha":884,"x_min":-39,"x_max":785,"o":"m 449 -13 q 200 81 285 -13 q 115 357 115 176 l 115 648 q 201 927 115 832 q 451 1023 287 1023 q 699 927 614 1023 q 785 648 785 832 l 785 357 q 699 81 785 176 q 449 -13 614 -13 m 449 86 q 626 147 573 86 q 678 352 678 208 l 678 653 q 626 862 678 801 q 449 924 573 924 q 274 862 326 924 q 222 653 222 801 l 222 352 q 274 147 222 208 q 449 86 326 86 m -39 884 l 63 1136 l 221 1136 l 56 884 l -39 884 z "},"Π":{"ha":884,"x_min":136,"x_max":749,"o":"m 136 0 l 136 1010 l 749 1010 l 749 0 l 641 0 l 641 912 l 244 912 l 244 0 l 136 0 z "},"Ρ":{"ha":884,"x_min":136,"x_max":792,"o":"m 136 0 l 136 1010 l 485 1010 q 717 944 641 1010 q 792 749 792 879 l 792 628 q 716 430 792 496 q 484 364 640 364 l 244 364 l 244 0 l 136 0 m 244 460 l 486 460 q 640 498 595 460 q 684 626 684 537 l 684 745 q 640 873 684 835 q 486 912 595 912 l 244 912 l 244 460 z "},"Σ":{"ha":884,"x_min":88,"x_max":783,"o":"m 783 0 l 88 0 l 88 98 l 547 520 l 88 912 l 88 1010 l 783 1010 l 783 912 l 242 912 l 631 569 l 631 481 l 227 98 l 783 98 l 783 0 z "},"Τ":{"ha":884,"x_min":67,"x_max":817,"o":"m 389 0 l 389 912 l 67 912 l 67 1010 l 817 1010 l 817 912 l 496 912 l 496 0 l 389 0 z "},"Υ":{"ha":884,"x_min":18,"x_max":865,"o":"m 496 0 l 389 0 l 389 379 l 18 1010 l 143 1010 l 451 480 l 742 1010 l 865 1010 l 496 379 l 496 0 z "},"Ύ":{"ha":884,"x_min":-184,"x_max":865,"o":"m 496 0 l 389 0 l 389 379 l 18 1010 l 143 1010 l 451 480 l 742 1010 l 865 1010 l 496 379 l 496 0 m -184 884 l -82 1136 l 76 1136 l -90 884 l -184 884 z "},"Ϋ":{"ha":884,"x_min":18,"x_max":865,"o":"m 496 0 l 389 0 l 389 379 l 18 1010 l 143 1010 l 451 480 l 742 1010 l 865 1010 l 496 379 l 496 0 m 299 1154 q 244 1168 265 1154 q 223 1221 223 1182 l 223 1229 q 244 1283 223 1268 q 299 1298 265 1298 q 354 1283 333 1298 q 375 1229 375 1268 l 375 1221 q 354 1168 375 1182 q 299 1154 332 1154 m 585 1154 q 530 1168 551 1154 q 509 1221 509 1182 l 509 1229 q 530 1283 509 1268 q 585 1298 551 1298 q 640 1283 619 1298 q 660 1229 660 1268 l 660 1221 q 639 1168 660 1182 q 585 1154 617 1154 z "},"Φ":{"ha":884,"x_min":66,"x_max":818,"o":"m 547 114 l 500 114 l 500 -13 l 385 -13 l 385 114 l 340 114 q 131 208 196 114 q 66 451 66 302 l 66 554 q 131 801 66 705 q 338 896 196 896 l 385 896 l 385 1023 l 500 1023 l 500 896 l 547 896 q 754 801 691 896 q 818 554 818 705 l 818 451 q 754 208 818 302 q 547 114 691 114 m 544 795 l 494 795 l 494 215 l 544 215 q 668 267 631 215 q 705 451 705 319 l 705 554 q 668 742 705 689 q 544 795 631 795 m 340 215 l 391 215 l 391 795 l 340 795 q 217 742 253 795 q 181 554 181 689 l 181 451 q 217 267 181 319 q 340 215 253 215 z "},"Χ":{"ha":884,"x_min":24,"x_max":862,"o":"m 729 0 l 444 434 l 158 0 l 24 0 l 385 514 l 56 1010 l 184 1010 l 456 593 l 730 1010 l 862 1010 l 515 515 l 859 0 l 729 0 z "},"Ψ":{"ha":884,"x_min":109,"x_max":775,"o":"m 500 0 l 385 0 l 385 245 q 174 349 240 260 q 109 577 109 438 l 109 1010 l 216 1010 l 216 574 q 255 416 216 468 q 385 352 294 364 l 385 1010 l 500 1010 l 500 352 q 629 416 591 364 q 668 574 668 468 l 668 1010 l 775 1010 l 775 577 q 710 349 775 438 q 500 245 644 260 l 500 0 z "},"Ω":{"ha":884,"x_min":95,"x_max":790,"o":"m 375 0 l 95 0 l 95 106 l 263 106 l 263 220 q 133 326 170 244 q 95 519 95 409 l 95 653 q 182 930 95 837 q 442 1023 269 1023 q 703 930 615 1023 q 790 653 790 837 l 790 519 q 752 326 790 409 q 622 220 713 244 l 622 106 l 790 106 l 790 0 l 509 0 l 509 290 q 648 367 614 307 q 683 519 683 428 l 683 650 q 628 861 683 798 q 442 924 573 924 q 256 861 311 924 q 202 650 202 798 l 202 519 q 236 367 202 428 q 375 290 270 307 l 375 0 z "},"Ώ":{"ha":884,"x_min":-68,"x_max":790,"o":"m 375 0 l 95 0 l 95 106 l 263 106 l 263 220 q 133 326 170 244 q 95 519 95 409 l 95 653 q 182 930 95 837 q 442 1023 269 1023 q 703 930 615 1023 q 790 653 790 837 l 790 519 q 752 326 790 409 q 622 220 713 244 l 622 106 l 790 106 l 790 0 l 509 0 l 509 290 q 648 367 614 307 q 683 519 683 428 l 683 650 q 628 861 683 798 q 442 924 573 924 q 256 861 311 924 q 202 650 202 798 l 202 519 q 236 367 202 428 q 375 290 270 307 l 375 0 m -68 884 l 34 1136 l 192 1136 l 27 884 l -68 884 z "},"Ω":{"ha":884,"x_min":95,"x_max":790,"o":"m 375 0 l 95 0 l 95 106 l 263 106 l 263 220 q 133 326 170 244 q 95 519 95 409 l 95 653 q 182 930 95 837 q 442 1023 269 1023 q 703 930 615 1023 q 790 653 790 837 l 790 519 q 752 326 790 409 q 622 220 713 244 l 622 106 l 790 106 l 790 0 l 509 0 l 509 290 q 648 367 614 307 q 683 519 683 428 l 683 650 q 628 861 683 798 q 442 924 573 924 q 256 861 311 924 q 202 650 202 798 l 202 519 q 236 367 202 428 q 375 290 270 307 l 375 0 z "},"Ђ":{"ha":884,"x_min":42,"x_max":804,"o":"m 239 0 l 239 912 l 42 912 l 42 1010 l 681 1010 l 681 912 l 346 912 l 346 657 l 521 657 q 735 593 667 657 q 804 398 804 529 l 804 260 q 735 64 804 128 q 521 0 667 0 l 521 96 q 648 132 601 96 q 696 263 696 168 l 696 395 q 648 525 696 490 q 521 561 601 561 l 346 561 l 346 0 l 239 0 z "},"Є":{"ha":884,"x_min":107,"x_max":803,"o":"m 803 319 q 704 73 793 158 q 455 -13 615 -13 q 194 80 282 -13 q 107 357 107 173 l 107 648 q 195 928 107 833 q 456 1023 283 1023 q 705 935 616 1023 q 803 686 794 847 l 696 673 q 628 866 683 808 q 455 924 572 924 q 269 862 323 924 q 215 653 215 801 l 215 601 l 515 601 l 515 503 l 215 503 l 215 352 q 269 146 215 207 q 455 86 323 86 q 628 143 572 86 q 696 332 684 201 l 803 319 z "},"Ѕ":{"ha":884,"x_min":72,"x_max":792,"o":"m 462 -6 q 251 32 351 -6 q 72 178 152 69 l 168 242 q 292 129 218 167 q 466 92 365 92 q 623 139 562 92 q 684 265 684 186 q 634 382 684 340 q 433 471 583 424 q 181 587 247 527 q 114 759 114 648 q 201 951 114 889 q 404 1014 288 1014 q 607 976 511 1014 q 779 830 703 938 l 686 761 q 562 878 639 841 q 407 915 485 915 q 273 881 324 915 q 222 766 222 847 q 278 655 222 696 q 492 566 333 614 q 729 455 667 513 q 792 288 792 396 q 689 68 792 143 q 462 -6 587 -6 z "},"І":{"ha":884,"x_min":136,"x_max":749,"o":"m 136 0 l 136 98 l 389 98 l 389 912 l 136 912 l 136 1010 l 749 1010 l 749 912 l 496 912 l 496 98 l 749 98 l 749 0 l 136 0 z "},"Ї":{"ha":884,"x_min":136,"x_max":749,"o":"m 136 0 l 136 98 l 389 98 l 389 912 l 136 912 l 136 1010 l 749 1010 l 749 912 l 496 912 l 496 98 l 749 98 l 749 0 l 136 0 m 299 1154 q 244 1168 265 1154 q 223 1221 223 1182 l 223 1229 q 244 1283 223 1268 q 299 1298 265 1298 q 354 1283 333 1298 q 375 1229 375 1268 l 375 1221 q 354 1168 375 1182 q 299 1154 332 1154 m 585 1154 q 530 1168 551 1154 q 509 1221 509 1182 l 509 1229 q 530 1283 509 1268 q 585 1298 551 1298 q 640 1283 619 1298 q 660 1229 660 1268 l 660 1221 q 639 1168 660 1182 q 585 1154 617 1154 z "},"Ј":{"ha":884,"x_min":82,"x_max":753,"o":"m 414 -13 q 171 69 253 -13 q 82 317 90 150 l 189 331 q 244 136 198 186 q 415 86 290 86 q 588 146 530 86 q 645 324 645 207 l 645 912 l 398 912 l 398 1010 l 753 1010 l 753 328 q 665 74 753 162 q 414 -13 577 -13 z "},"Љ":{"ha":884,"x_min":-24,"x_max":804,"o":"m 215 215 q 165 43 212 93 q 54 -8 117 -8 q 16 -5 35 -9 q -24 5 -4 -1 l 1 107 q 24 100 13 104 q 48 96 35 96 q 90 117 72 95 q 110 212 109 140 l 126 1010 l 492 1010 l 492 646 l 545 646 q 739 578 674 646 q 804 372 804 509 l 804 271 q 739 68 804 136 q 547 0 674 0 l 386 0 l 386 907 l 227 907 l 215 215 m 492 104 l 552 104 q 658 140 617 104 q 698 273 698 176 l 698 376 q 658 509 698 473 q 552 545 617 545 l 492 545 l 492 104 z "},"Њ":{"ha":884,"x_min":80,"x_max":804,"o":"m 492 104 l 566 104 q 662 140 626 104 q 698 273 698 177 l 698 376 q 662 509 698 473 q 566 545 626 545 l 492 545 l 492 104 m 186 497 l 186 0 l 80 0 l 80 1010 l 186 1010 l 186 596 l 386 596 l 386 1010 l 492 1010 l 492 646 l 559 646 q 742 577 681 646 q 804 372 804 508 l 804 271 q 743 68 804 136 q 561 0 682 0 l 386 0 l 386 497 l 186 497 z "},"Ћ":{"ha":884,"x_min":28,"x_max":804,"o":"m 332 0 l 225 0 l 225 912 l 28 912 l 28 1010 l 664 1010 l 664 912 l 332 912 l 332 616 l 521 616 q 732 549 660 616 q 804 355 804 482 l 804 0 l 697 0 l 697 352 q 657 482 697 444 q 521 520 617 520 l 332 520 l 332 0 z "},"Џ":{"ha":884,"x_min":136,"x_max":749,"o":"m 389 -189 l 389 0 l 136 0 l 136 1010 l 244 1010 l 244 98 l 641 98 l 641 1010 l 749 1010 l 749 0 l 496 0 l 496 -189 l 389 -189 z "},"А":{"ha":884,"x_min":57,"x_max":830,"o":"m 586 402 l 439 876 l 294 402 l 586 402 m 711 0 l 617 303 l 264 303 l 170 0 l 57 0 l 390 1010 l 496 1010 l 830 0 l 711 0 z "},"Б":{"ha":884,"x_min":136,"x_max":766,"o":"m 136 0 l 136 1010 l 720 1010 l 720 912 l 244 912 l 244 568 l 485 568 q 693 506 620 568 q 766 326 766 443 l 766 260 q 693 68 766 135 q 486 0 620 0 l 136 0 m 244 98 l 460 98 q 613 136 567 98 q 659 266 659 173 l 659 307 q 613 435 659 398 q 460 472 567 472 l 244 472 l 244 98 z "},"В":{"ha":884,"x_min":136,"x_max":783,"o":"m 136 0 l 136 1010 l 437 1010 q 667 952 592 1010 q 741 773 741 894 l 741 713 q 704 608 741 653 q 605 553 667 563 l 605 516 q 735 453 687 509 q 783 311 783 398 l 783 256 q 701 63 783 126 q 447 0 619 0 l 136 0 m 244 576 l 455 576 q 593 612 549 576 q 636 727 636 648 l 636 758 q 593 873 636 837 q 455 909 549 909 l 244 909 l 244 576 m 244 101 l 485 101 q 629 141 583 101 q 676 270 676 182 l 676 306 q 629 434 676 394 q 485 475 583 475 l 244 475 l 244 101 z "},"Г":{"ha":884,"x_min":126,"x_max":774,"o":"m 126 0 l 126 1010 l 774 1010 l 774 912 l 234 912 l 234 0 l 126 0 z "},"Ѓ":{"ha":884,"x_min":126,"x_max":774,"o":"m 126 0 l 126 1010 l 774 1010 l 774 912 l 234 912 l 234 0 l 126 0 m 361 1136 l 539 1389 l 710 1389 l 468 1136 l 361 1136 z "},"Д":{"ha":884,"x_min":15,"x_max":859,"o":"m 217 131 l 217 98 l 617 98 l 617 912 l 290 912 l 287 383 q 275 233 285 292 q 217 131 264 174 m 126 0 l 126 -189 l 15 -189 l 15 98 l 91 98 q 157 204 135 134 q 181 390 179 274 l 184 1010 l 729 1010 l 729 98 l 859 98 l 859 -189 l 747 -189 l 747 0 l 126 0 z "},"Е":{"ha":884,"x_min":136,"x_max":778,"o":"m 136 0 l 136 1010 l 778 1010 l 778 912 l 244 912 l 244 601 l 715 601 l 715 503 l 244 503 l 244 98 l 778 98 l 778 0 l 136 0 z "},"Ѐ":{"ha":884,"x_min":136,"x_max":778,"o":"m 136 0 l 136 1010 l 778 1010 l 778 912 l 244 912 l 244 601 l 715 601 l 715 503 l 244 503 l 244 98 l 778 98 l 778 0 l 136 0 m 495 1136 l 254 1389 l 424 1389 l 602 1136 l 495 1136 z "},"Ё":{"ha":884,"x_min":136,"x_max":778,"o":"m 136 0 l 136 1010 l 778 1010 l 778 912 l 244 912 l 244 601 l 715 601 l 715 503 l 244 503 l 244 98 l 778 98 l 778 0 l 136 0 m 341 1154 q 286 1168 307 1154 q 265 1221 265 1182 l 265 1229 q 286 1283 265 1268 q 341 1298 307 1298 q 396 1283 375 1298 q 417 1229 417 1268 l 417 1221 q 395 1168 417 1182 q 341 1154 374 1154 m 626 1154 q 571 1168 592 1154 q 551 1221 551 1182 l 551 1229 q 571 1283 551 1268 q 626 1298 592 1298 q 681 1283 660 1298 q 702 1229 702 1268 l 702 1221 q 681 1168 702 1182 q 626 1154 659 1154 z "},"Ж":{"ha":884,"x_min":3,"x_max":883,"o":"m 338 496 l 119 0 l 3 0 l 256 540 l 6 1010 l 115 1010 l 337 585 l 391 585 l 391 1010 l 495 1010 l 495 585 l 549 585 l 771 1010 l 880 1010 l 630 544 l 883 0 l 766 0 l 548 496 l 495 496 l 495 0 l 391 0 l 391 496 l 338 496 z "},"З":{"ha":884,"x_min":95,"x_max":778,"o":"m 427 -13 q 184 56 264 -13 q 95 270 104 124 l 202 283 q 264 129 212 176 q 427 83 316 83 q 614 126 558 83 q 670 273 670 169 l 670 307 q 619 447 670 405 q 442 489 567 489 l 318 489 l 318 588 l 442 588 q 598 622 552 588 q 645 732 645 655 l 645 773 q 596 891 645 856 q 428 927 547 927 q 282 885 328 927 q 227 745 236 843 l 120 758 q 203 960 129 896 q 429 1023 277 1023 q 664 963 576 1023 q 753 768 753 904 l 753 723 q 699 605 753 648 q 552 558 646 563 l 552 521 q 722 451 665 513 q 778 311 778 390 l 778 274 q 700 64 778 140 q 427 -13 622 -13 z "},"И":{"ha":884,"x_min":136,"x_max":749,"o":"m 650 0 l 650 888 l 299 0 l 136 0 l 136 1010 l 234 1010 l 234 112 l 591 1010 l 749 1010 l 749 0 l 650 0 z "},"Ѝ":{"ha":884,"x_min":136,"x_max":749,"o":"m 650 0 l 650 888 l 299 0 l 136 0 l 136 1010 l 234 1010 l 234 112 l 591 1010 l 749 1010 l 749 0 l 650 0 m 437 1136 l 196 1389 l 366 1389 l 544 1136 l 437 1136 z "},"Й":{"ha":884,"x_min":136,"x_max":749,"o":"m 650 0 l 650 888 l 299 0 l 136 0 l 136 1010 l 234 1010 l 234 112 l 591 1010 l 749 1010 l 749 0 l 650 0 m 457 1128 q 275 1182 348 1128 q 198 1372 201 1237 l 312 1385 q 345 1256 314 1294 q 457 1217 376 1217 q 569 1256 538 1217 q 602 1385 600 1294 l 716 1372 q 640 1182 713 1237 q 457 1128 566 1128 z "},"К":{"ha":884,"x_min":136,"x_max":827,"o":"m 244 491 l 244 0 l 136 0 l 136 1010 l 244 1010 l 244 590 l 285 590 l 697 1010 l 827 1010 l 371 545 l 823 0 l 687 0 l 289 491 l 244 491 z "},"Ќ":{"ha":884,"x_min":136,"x_max":827,"o":"m 244 491 l 244 0 l 136 0 l 136 1010 l 244 1010 l 244 590 l 285 590 l 697 1010 l 827 1010 l 371 545 l 823 0 l 687 0 l 289 491 l 244 491 m 388 1136 l 566 1389 l 736 1389 l 495 1136 l 388 1136 z "},"Л":{"ha":884,"x_min":-5,"x_max":749,"o":"m 641 0 l 641 912 l 314 912 l 311 297 q 251 62 309 135 q 95 -11 193 -11 q 40 -8 66 -11 q -5 3 15 -4 l 16 97 q 55 87 38 90 q 88 85 72 85 q 179 140 152 85 q 208 313 207 196 l 212 1010 l 749 1010 l 749 0 l 641 0 z "},"М":{"ha":884,"x_min":95,"x_max":790,"o":"m 384 240 l 196 837 l 192 0 l 95 0 l 95 1010 l 255 1010 l 446 376 l 635 1010 l 790 1010 l 790 0 l 692 0 l 688 842 l 500 240 l 384 240 z "},"Н":{"ha":884,"x_min":136,"x_max":749,"o":"m 136 0 l 136 1010 l 244 1010 l 244 596 l 641 596 l 641 1010 l 749 1010 l 749 0 l 641 0 l 641 497 l 244 497 l 244 0 l 136 0 z "},"О":{"ha":884,"x_min":107,"x_max":778,"o":"m 442 -13 q 193 81 278 -13 q 107 357 107 176 l 107 648 q 193 927 107 832 q 443 1023 279 1023 q 692 927 606 1023 q 778 648 778 832 l 778 357 q 692 81 778 176 q 442 -13 606 -13 m 442 86 q 618 147 566 86 q 670 352 670 208 l 670 653 q 618 862 670 801 q 442 924 566 924 q 266 862 318 924 q 215 653 215 801 l 215 352 q 266 147 215 208 q 442 86 318 86 z "},"П":{"ha":884,"x_min":136,"x_max":749,"o":"m 136 0 l 136 1010 l 749 1010 l 749 0 l 641 0 l 641 912 l 244 912 l 244 0 l 136 0 z "},"Р":{"ha":884,"x_min":136,"x_max":792,"o":"m 136 0 l 136 1010 l 485 1010 q 717 944 641 1010 q 792 749 792 879 l 792 628 q 716 430 792 496 q 484 364 640 364 l 244 364 l 244 0 l 136 0 m 244 460 l 486 460 q 640 498 595 460 q 684 626 684 537 l 684 745 q 640 873 684 835 q 486 912 595 912 l 244 912 l 244 460 z "},"С":{"ha":884,"x_min":107,"x_max":803,"o":"m 455 -13 q 194 80 280 -13 q 107 357 107 172 l 107 648 q 194 929 107 836 q 456 1023 280 1023 q 709 942 626 1023 q 803 686 792 861 l 696 673 q 630 869 683 813 q 455 924 577 924 q 268 864 322 924 q 215 653 215 803 l 215 352 q 268 146 215 206 q 455 86 322 86 q 631 140 580 86 q 696 332 683 194 l 803 319 q 709 67 792 146 q 455 -13 626 -13 z "},"Т":{"ha":884,"x_min":67,"x_max":817,"o":"m 389 0 l 389 912 l 67 912 l 67 1010 l 817 1010 l 817 912 l 496 912 l 496 0 l 389 0 z "},"У":{"ha":884,"x_min":59,"x_max":823,"o":"m 249 0 q 201 3 226 0 q 152 11 177 6 l 173 110 q 222 102 199 105 q 263 98 244 98 q 355 131 323 98 q 412 229 386 164 l 417 240 l 376 240 l 59 1010 l 168 1010 l 446 302 l 721 1010 l 823 1010 l 489 186 q 382 39 443 77 q 249 0 321 0 z "},"Ў":{"ha":884,"x_min":59,"x_max":823,"o":"m 249 0 q 201 3 226 0 q 152 11 177 6 l 173 110 q 222 102 199 105 q 263 98 244 98 q 355 131 323 98 q 412 229 386 164 l 417 240 l 376 240 l 59 1010 l 168 1010 l 446 302 l 721 1010 l 823 1010 l 489 186 q 382 39 443 77 q 249 0 321 0 m 442 1128 q 259 1182 333 1128 q 183 1372 186 1237 l 297 1385 q 330 1256 299 1294 q 442 1217 361 1217 q 554 1256 523 1217 q 587 1385 585 1294 l 701 1372 q 624 1182 698 1237 q 442 1128 551 1128 z "},"Ф":{"ha":884,"x_min":66,"x_max":818,"o":"m 547 114 l 500 114 l 500 -13 l 385 -13 l 385 114 l 340 114 q 131 208 196 114 q 66 451 66 302 l 66 554 q 131 801 66 705 q 338 896 196 896 l 385 896 l 385 1023 l 500 1023 l 500 896 l 547 896 q 754 801 691 896 q 818 554 818 705 l 818 451 q 754 208 818 302 q 547 114 691 114 m 544 795 l 494 795 l 494 215 l 544 215 q 668 267 631 215 q 705 451 705 319 l 705 554 q 668 742 705 689 q 544 795 631 795 m 340 215 l 391 215 l 391 795 l 340 795 q 217 742 253 795 q 181 554 181 689 l 181 451 q 217 267 181 319 q 340 215 253 215 z "},"Х":{"ha":884,"x_min":24,"x_max":862,"o":"m 729 0 l 444 434 l 158 0 l 24 0 l 385 514 l 56 1010 l 184 1010 l 456 593 l 730 1010 l 862 1010 l 515 515 l 859 0 l 729 0 z "},"Ц":{"ha":884,"x_min":136,"x_max":812,"o":"m 705 -189 l 705 0 l 136 0 l 136 1010 l 244 1010 l 244 98 l 574 98 l 574 1010 l 682 1010 l 682 98 l 812 98 l 812 -189 l 705 -189 z "},"Ч":{"ha":884,"x_min":136,"x_max":749,"o":"m 749 1010 l 749 0 l 641 0 l 641 361 l 443 361 q 205 418 274 361 q 136 615 136 475 l 136 1010 l 244 1010 l 244 617 q 289 493 244 529 q 443 457 335 457 l 641 457 l 641 1010 l 749 1010 z "},"Ш":{"ha":884,"x_min":80,"x_max":804,"o":"m 80 0 l 80 1010 l 183 1010 l 183 95 l 390 95 l 390 1010 l 494 1010 l 494 95 l 701 95 l 701 1010 l 804 1010 l 804 0 l 80 0 z "},"Щ":{"ha":884,"x_min":80,"x_max":861,"o":"m 861 -177 l 753 -177 l 753 0 l 80 0 l 80 1010 l 183 1010 l 183 95 l 390 95 l 390 1010 l 494 1010 l 494 95 l 701 95 l 701 1010 l 804 1010 l 804 95 l 861 95 l 861 -177 z "},"Ъ":{"ha":884,"x_min":15,"x_max":819,"o":"m 535 0 l 266 0 l 266 912 l 15 912 l 15 1010 l 374 1010 l 374 646 l 534 646 q 751 583 683 646 q 819 380 819 519 l 819 264 q 752 62 819 125 q 535 0 684 0 m 374 98 l 539 98 q 672 136 633 98 q 711 265 711 174 l 711 384 q 672 513 711 475 q 539 551 633 551 l 374 551 l 374 98 z "},"Ы":{"ha":884,"x_min":109,"x_max":775,"o":"m 109 0 l 109 1010 l 212 1010 l 212 646 l 292 646 q 481 581 420 646 q 542 378 542 516 l 542 266 q 481 64 542 128 q 293 0 420 0 l 109 0 m 672 0 l 672 1010 l 775 1010 l 775 0 l 672 0 m 212 95 l 293 95 q 397 132 357 95 q 437 268 437 169 l 437 381 q 397 517 437 480 q 293 554 357 554 l 212 554 l 212 95 z "},"Ь":{"ha":884,"x_min":136,"x_max":787,"o":"m 136 0 l 136 1010 l 244 1010 l 244 646 l 477 646 q 713 583 639 646 q 787 380 787 519 l 787 264 q 713 63 787 126 q 479 0 639 0 l 136 0 m 244 98 l 484 98 q 625 134 571 98 q 679 265 679 170 l 679 384 q 625 515 679 479 q 484 551 571 551 l 244 551 l 244 98 z "},"Э":{"ha":884,"x_min":111,"x_max":807,"o":"m 458 -13 q 211 69 301 -13 q 111 319 121 150 l 218 332 q 285 143 230 201 q 458 86 341 86 q 643 145 586 86 q 699 352 699 205 l 699 503 l 340 503 l 340 601 l 699 601 l 699 653 q 644 863 699 802 q 458 924 588 924 q 285 866 341 924 q 218 673 230 808 l 111 686 q 211 941 121 859 q 457 1023 301 1023 q 722 932 638 1023 q 807 648 807 842 l 807 357 q 723 76 807 165 q 458 -13 639 -13 z "},"Ю":{"ha":884,"x_min":80,"x_max":804,"o":"m 558 -13 q 371 80 429 -13 q 312 322 312 172 l 312 509 l 183 509 l 183 0 l 80 0 l 80 1010 l 183 1010 l 183 595 l 312 595 l 312 683 q 371 930 312 837 q 559 1023 431 1023 q 746 930 688 1023 q 804 683 804 837 l 804 322 q 746 80 804 172 q 558 -13 688 -13 m 558 80 q 668 134 635 80 q 701 322 701 188 l 701 683 q 668 874 701 818 q 558 929 635 929 q 448 874 481 929 q 415 683 415 818 l 415 322 q 448 134 415 188 q 558 80 481 80 z "},"Я":{"ha":884,"x_min":54,"x_max":749,"o":"m 370 495 l 641 495 l 641 912 l 370 912 q 216 874 261 912 q 170 750 170 837 l 170 669 q 216 535 170 574 q 370 495 261 495 m 641 399 l 442 399 l 188 0 l 54 0 l 319 399 q 124 473 187 408 q 62 670 62 539 l 62 746 q 137 947 62 884 q 374 1010 212 1010 l 749 1010 l 749 0 l 641 0 l 641 399 z "},"Ґ":{"ha":884,"x_min":126,"x_max":774,"o":"m 126 0 l 126 1010 l 667 1010 l 667 1199 l 774 1199 l 774 912 l 234 912 l 234 0 l 126 0 z "},"a":{"ha":884,"x_min":95,"x_max":845,"o":"m 350 87 q 478 114 419 87 q 578 206 537 140 l 578 327 l 340 327 q 244 301 282 327 q 206 211 206 275 q 238 120 206 153 q 350 87 270 87 m 341 -13 q 171 37 247 -13 q 95 202 95 87 q 158 358 95 301 q 302 415 221 415 l 578 415 l 578 528 q 536 629 578 590 q 407 668 494 668 q 277 643 319 668 q 207 528 234 617 l 110 558 q 206 715 130 660 q 403 770 282 770 q 604 716 520 770 q 687 545 687 662 l 687 194 q 726 104 687 122 q 845 100 765 86 l 845 -6 q 701 6 770 -15 q 628 129 631 28 l 605 129 q 499 28 569 68 q 341 -13 428 -13 z "},"à":{"ha":884,"x_min":95,"x_max":845,"o":"m 350 87 q 478 114 419 87 q 578 206 537 140 l 578 327 l 340 327 q 244 301 282 327 q 206 211 206 275 q 238 120 206 153 q 350 87 270 87 m 341 -13 q 171 37 247 -13 q 95 202 95 87 q 158 358 95 301 q 302 415 221 415 l 578 415 l 578 528 q 536 629 578 590 q 407 668 494 668 q 277 643 319 668 q 207 528 234 617 l 110 558 q 206 715 130 660 q 403 770 282 770 q 604 716 520 770 q 687 545 687 662 l 687 194 q 726 104 687 122 q 845 100 765 86 l 845 -6 q 701 6 770 -15 q 628 129 631 28 l 605 129 q 499 28 569 68 q 341 -13 428 -13 m 420 884 l 179 1136 l 350 1136 l 528 884 l 420 884 z "},"á":{"ha":884,"x_min":95,"x_max":845,"o":"m 350 87 q 478 114 419 87 q 578 206 537 140 l 578 327 l 340 327 q 244 301 282 327 q 206 211 206 275 q 238 120 206 153 q 350 87 270 87 m 341 -13 q 171 37 247 -13 q 95 202 95 87 q 158 358 95 301 q 302 415 221 415 l 578 415 l 578 528 q 536 629 578 590 q 407 668 494 668 q 277 643 319 668 q 207 528 234 617 l 110 558 q 206 715 130 660 q 403 770 282 770 q 604 716 520 770 q 687 545 687 662 l 687 194 q 726 104 687 122 q 845 100 765 86 l 845 -6 q 701 6 770 -15 q 628 129 631 28 l 605 129 q 499 28 569 68 q 341 -13 428 -13 m 275 884 l 453 1136 l 624 1136 l 383 884 l 275 884 z "},"â":{"ha":884,"x_min":95,"x_max":845,"o":"m 350 87 q 478 114 419 87 q 578 206 537 140 l 578 327 l 340 327 q 244 301 282 327 q 206 211 206 275 q 238 120 206 153 q 350 87 270 87 m 341 -13 q 171 37 247 -13 q 95 202 95 87 q 158 358 95 301 q 302 415 221 415 l 578 415 l 578 528 q 536 629 578 590 q 407 668 494 668 q 277 643 319 668 q 207 528 234 617 l 110 558 q 206 715 130 660 q 403 770 282 770 q 604 716 520 770 q 687 545 687 662 l 687 194 q 726 104 687 122 q 845 100 765 86 l 845 -6 q 701 6 770 -15 q 628 129 631 28 l 605 129 q 499 28 569 68 q 341 -13 428 -13 m 216 894 l 172 970 l 390 1155 l 466 1155 l 687 970 l 643 894 l 428 1043 l 216 894 z "},"ã":{"ha":884,"x_min":95,"x_max":845,"o":"m 350 87 q 478 114 419 87 q 578 206 537 140 l 578 327 l 340 327 q 244 301 282 327 q 206 211 206 275 q 238 120 206 153 q 350 87 270 87 m 341 -13 q 171 37 247 -13 q 95 202 95 87 q 158 358 95 301 q 302 415 221 415 l 578 415 l 578 528 q 536 629 578 590 q 407 668 494 668 q 277 643 319 668 q 207 528 234 617 l 110 558 q 206 715 130 660 q 403 770 282 770 q 604 716 520 770 q 687 545 687 662 l 687 194 q 726 104 687 122 q 845 100 765 86 l 845 -6 q 701 6 770 -15 q 628 129 631 28 l 605 129 q 499 28 569 68 q 341 -13 428 -13 m 511 896 q 442 920 471 896 q 390 972 413 944 q 347 1023 367 1000 q 306 1047 327 1047 q 263 1023 282 1047 q 246 923 245 999 l 246 909 l 158 909 l 158 928 q 199 1082 158 1020 q 318 1144 240 1144 q 395 1121 365 1144 q 447 1069 426 1097 q 486 1018 468 1042 q 525 994 504 994 q 567 1018 549 994 q 585 1117 585 1042 l 585 1131 l 673 1131 l 673 1112 q 632 957 673 1018 q 511 896 591 896 z "},"ä":{"ha":884,"x_min":95,"x_max":845,"o":"m 350 87 q 478 114 419 87 q 578 206 537 140 l 578 327 l 340 327 q 244 301 282 327 q 206 211 206 275 q 238 120 206 153 q 350 87 270 87 m 341 -13 q 171 37 247 -13 q 95 202 95 87 q 158 358 95 301 q 302 415 221 415 l 578 415 l 578 528 q 536 629 578 590 q 407 668 494 668 q 277 643 319 668 q 207 528 234 617 l 110 558 q 206 715 130 660 q 403 770 282 770 q 604 716 520 770 q 687 545 687 662 l 687 194 q 726 104 687 122 q 845 100 765 86 l 845 -6 q 701 6 770 -15 q 628 129 631 28 l 605 129 q 499 28 569 68 q 341 -13 428 -13 m 273 902 q 218 915 239 902 q 197 968 197 929 l 197 976 q 218 1030 197 1015 q 273 1045 239 1045 q 328 1030 307 1045 q 348 976 348 1015 l 348 968 q 327 915 348 929 q 273 902 306 902 m 558 902 q 503 915 524 902 q 482 968 482 929 l 482 976 q 503 1030 482 1015 q 558 1045 524 1045 q 613 1030 592 1045 q 634 976 634 1015 l 634 968 q 612 915 634 929 q 558 902 591 902 z "},"å":{"ha":884,"x_min":95,"x_max":845,"o":"m 350 87 q 478 114 419 87 q 578 206 537 140 l 578 327 l 340 327 q 244 301 282 327 q 206 211 206 275 q 238 120 206 153 q 350 87 270 87 m 341 -13 q 171 37 247 -13 q 95 202 95 87 q 158 358 95 301 q 302 415 221 415 l 578 415 l 578 528 q 536 629 578 590 q 407 668 494 668 q 277 643 319 668 q 207 528 234 617 l 110 558 q 206 715 130 660 q 403 770 282 770 q 604 716 520 770 q 687 545 687 662 l 687 194 q 726 104 687 122 q 845 100 765 86 l 845 -6 q 701 6 770 -15 q 628 129 631 28 l 605 129 q 499 28 569 68 q 341 -13 428 -13 m 417 867 q 277 912 330 867 q 223 1048 223 956 l 223 1088 q 277 1227 223 1182 q 417 1273 330 1273 q 557 1227 504 1273 q 610 1088 610 1182 l 610 1048 q 557 912 610 956 q 417 867 504 867 m 417 952 q 496 974 468 952 q 523 1048 523 996 l 523 1088 q 496 1164 523 1139 q 417 1188 468 1188 q 337 1164 364 1188 q 311 1088 311 1139 l 311 1048 q 337 974 311 996 q 417 952 364 952 z "},"ā":{"ha":884,"x_min":95,"x_max":845,"o":"m 350 87 q 478 114 419 87 q 578 206 537 140 l 578 327 l 340 327 q 244 301 282 327 q 206 211 206 275 q 238 120 206 153 q 350 87 270 87 m 341 -13 q 171 37 247 -13 q 95 202 95 87 q 158 358 95 301 q 302 415 221 415 l 578 415 l 578 528 q 536 629 578 590 q 407 668 494 668 q 277 643 319 668 q 207 528 234 617 l 110 558 q 206 715 130 660 q 403 770 282 770 q 604 716 520 770 q 687 545 687 662 l 687 194 q 726 104 687 122 q 845 100 765 86 l 845 -6 q 701 6 770 -15 q 628 129 631 28 l 605 129 q 499 28 569 68 q 341 -13 428 -13 m 169 961 l 169 1059 l 664 1059 l 664 961 l 169 961 z "},"ă":{"ha":884,"x_min":95,"x_max":845,"o":"m 350 87 q 478 114 419 87 q 578 206 537 140 l 578 327 l 340 327 q 244 301 282 327 q 206 211 206 275 q 238 120 206 153 q 350 87 270 87 m 341 -13 q 171 37 247 -13 q 95 202 95 87 q 158 358 95 301 q 302 415 221 415 l 578 415 l 578 528 q 536 629 578 590 q 407 668 494 668 q 277 643 319 668 q 207 528 234 617 l 110 558 q 206 715 130 660 q 403 770 282 770 q 604 716 520 770 q 687 545 687 662 l 687 194 q 726 104 687 122 q 845 100 765 86 l 845 -6 q 701 6 770 -15 q 628 129 631 28 l 605 129 q 499 28 569 68 q 341 -13 428 -13 m 417 875 q 217 932 302 875 q 130 1133 131 989 l 245 1133 q 289 1003 246 1042 q 417 965 332 965 q 544 1003 501 965 q 588 1133 587 1042 l 703 1133 q 617 932 702 989 q 417 875 532 875 z "},"ą":{"ha":884,"x_min":95,"x_max":879,"o":"m 350 87 q 478 114 419 87 q 578 206 537 140 l 578 327 l 340 327 q 244 301 282 327 q 206 211 206 275 q 238 120 206 153 q 350 87 270 87 m 341 -13 q 171 37 247 -13 q 95 202 95 87 q 158 358 95 301 q 302 415 221 415 l 578 415 l 578 528 q 536 629 578 590 q 407 668 494 668 q 277 643 319 668 q 207 528 234 617 l 110 558 q 206 715 130 660 q 403 770 282 770 q 604 716 520 770 q 687 545 687 662 l 687 194 q 726 104 687 122 q 845 100 765 86 l 845 -6 q 701 6 770 -15 q 628 129 631 28 l 605 129 q 499 28 569 68 q 341 -13 428 -13 m 758 -269 q 628 -229 682 -269 q 573 -121 573 -189 q 619 -18 573 -64 q 721 52 665 28 l 755 29 q 695 -30 712 3 q 678 -90 678 -63 q 702 -144 678 -125 q 766 -163 726 -163 q 824 -159 789 -163 q 879 -150 860 -155 l 879 -258 q 822 -266 859 -263 q 758 -269 785 -269 z "},"ǻ":{"ha":884,"x_min":95,"x_max":845,"o":"m 350 87 q 478 114 419 87 q 578 206 537 140 l 578 327 l 340 327 q 244 301 282 327 q 206 211 206 275 q 238 120 206 153 q 350 87 270 87 m 341 -13 q 171 37 247 -13 q 95 202 95 87 q 158 358 95 301 q 302 415 221 415 l 578 415 l 578 528 q 536 629 578 590 q 407 668 494 668 q 277 643 319 668 q 207 528 234 617 l 110 558 q 206 715 130 660 q 403 770 282 770 q 604 716 520 770 q 687 545 687 662 l 687 194 q 726 104 687 122 q 845 100 765 86 l 845 -6 q 701 6 770 -15 q 628 129 631 28 l 605 129 q 499 28 569 68 q 341 -13 428 -13 m 417 867 q 277 912 330 867 q 223 1048 223 956 l 223 1088 q 277 1227 223 1182 q 417 1273 330 1273 q 557 1227 504 1273 q 610 1088 610 1182 l 610 1048 q 557 912 610 956 q 417 867 504 867 m 417 952 q 496 974 468 952 q 523 1048 523 996 l 523 1088 q 496 1164 523 1139 q 417 1188 468 1188 q 337 1164 364 1188 q 311 1088 311 1139 l 311 1048 q 337 974 311 996 q 417 952 364 952 m 355 1263 l 533 1515 l 703 1515 l 462 1263 l 355 1263 z "},"b":{"ha":884,"x_min":134,"x_max":750,"o":"m 432 -14 q 279 9 357 -14 q 134 73 201 32 l 134 1010 l 241 1010 l 241 634 l 279 634 q 371 734 313 698 q 499 770 429 770 q 684 693 619 770 q 750 475 750 616 l 750 277 q 666 62 750 139 q 432 -14 582 -14 m 428 85 q 590 133 538 85 q 643 279 643 182 l 643 484 q 603 619 643 574 q 482 664 563 664 q 357 628 417 664 q 241 518 298 592 l 241 136 q 330 97 284 110 q 428 85 375 85 z "},"":{"ha":884,"x_min":134,"x_max":750,"o":"m 432 -14 q 279 9 357 -14 q 134 73 201 32 l 134 1010 l 241 1010 l 241 634 l 279 634 q 371 734 313 698 q 499 770 429 770 q 684 693 619 770 q 750 475 750 616 l 750 277 q 666 62 750 139 q 432 -14 582 -14 m 428 85 q 590 133 538 85 q 643 279 643 182 l 643 484 q 603 619 643 574 q 482 664 563 664 q 357 628 417 664 q 241 518 298 592 l 241 136 q 330 97 284 110 q 428 85 375 85 z "},"c":{"ha":884,"x_min":134,"x_max":766,"o":"m 461 -13 q 217 59 299 -13 q 134 271 134 131 l 134 479 q 216 697 134 624 q 460 770 298 770 q 679 706 601 770 q 766 515 758 643 l 660 510 q 605 629 655 590 q 460 669 556 669 q 295 623 350 669 q 241 482 241 577 l 241 269 q 296 133 241 178 q 462 88 351 88 q 607 122 557 88 q 660 222 657 155 l 766 217 q 679 45 758 104 q 461 -13 600 -13 z "},"ç":{"ha":884,"x_min":134,"x_max":766,"o":"m 461 -13 q 217 59 299 -13 q 134 271 134 131 l 134 479 q 216 697 134 624 q 460 770 298 770 q 679 706 601 770 q 766 515 758 643 l 660 510 q 605 629 655 590 q 460 669 556 669 q 295 623 350 669 q 241 482 241 577 l 241 269 q 296 133 241 178 q 462 88 351 88 q 607 122 557 88 q 660 222 657 155 l 766 217 q 679 45 758 104 q 461 -13 600 -13 m 390 0 l 415 53 q 511 5 463 43 q 559 -116 559 -33 q 506 -233 559 -196 q 388 -270 453 -270 q 261 -241 311 -270 q 207 -144 212 -212 l 303 -131 q 323 -165 306 -155 q 381 -174 341 -174 q 441 -158 420 -174 q 461 -98 461 -141 q 444 -32 461 -53 q 390 0 428 -10 z "},"ć":{"ha":884,"x_min":134,"x_max":766,"o":"m 461 -13 q 217 59 299 -13 q 134 271 134 131 l 134 479 q 216 697 134 624 q 460 770 298 770 q 679 706 601 770 q 766 515 758 643 l 660 510 q 605 629 655 590 q 460 669 556 669 q 295 623 350 669 q 241 482 241 577 l 241 269 q 296 133 241 178 q 462 88 351 88 q 607 122 557 88 q 660 222 657 155 l 766 217 q 679 45 758 104 q 461 -13 600 -13 m 302 884 l 480 1136 l 650 1136 l 409 884 l 302 884 z "},"ĉ":{"ha":884,"x_min":134,"x_max":766,"o":"m 461 -13 q 217 59 299 -13 q 134 271 134 131 l 134 479 q 216 697 134 624 q 460 770 298 770 q 679 706 601 770 q 766 515 758 643 l 660 510 q 605 629 655 590 q 460 669 556 669 q 295 623 350 669 q 241 482 241 577 l 241 269 q 296 133 241 178 q 462 88 351 88 q 607 122 557 88 q 660 222 657 155 l 766 217 q 679 45 758 104 q 461 -13 600 -13 m 251 894 l 207 970 l 426 1155 l 501 1155 l 722 970 l 678 894 l 463 1043 l 251 894 z "},"ċ":{"ha":884,"x_min":134,"x_max":766,"o":"m 461 -13 q 217 59 299 -13 q 134 271 134 131 l 134 479 q 216 697 134 624 q 460 770 298 770 q 679 706 601 770 q 766 515 758 643 l 660 510 q 605 629 655 590 q 460 669 556 669 q 295 623 350 669 q 241 482 241 577 l 241 269 q 296 133 241 178 q 462 88 351 88 q 607 122 557 88 q 660 222 657 155 l 766 217 q 679 45 758 104 q 461 -13 600 -13 m 449 902 q 378 915 405 902 q 350 968 350 929 l 350 976 q 378 1030 350 1015 q 449 1045 405 1045 q 521 1030 494 1045 q 549 976 549 1015 l 549 968 q 521 915 549 929 q 449 902 492 902 z "},"č":{"ha":884,"x_min":134,"x_max":766,"o":"m 461 -13 q 217 59 299 -13 q 134 271 134 131 l 134 479 q 216 697 134 624 q 460 770 298 770 q 679 706 601 770 q 766 515 758 643 l 660 510 q 605 629 655 590 q 460 669 556 669 q 295 623 350 669 q 241 482 241 577 l 241 269 q 296 133 241 178 q 462 88 351 88 q 607 122 557 88 q 660 222 657 155 l 766 217 q 679 45 758 104 q 461 -13 600 -13 m 413 889 l 192 1074 l 236 1150 l 451 1001 l 663 1150 l 707 1074 l 489 889 l 413 889 z "},"d":{"ha":884,"x_min":134,"x_max":750,"o":"m 403 93 q 527 129 467 93 q 643 240 586 165 l 643 621 q 556 661 602 649 q 456 673 510 673 q 294 625 346 673 q 241 479 241 577 l 241 273 q 281 138 241 182 q 403 93 321 93 m 605 124 q 514 23 571 59 q 385 -13 457 -13 q 200 63 266 -13 q 134 283 134 139 l 134 481 q 220 696 134 620 q 462 771 306 771 q 552 761 505 771 q 643 735 600 751 l 643 1010 l 750 1010 l 750 0 l 643 0 l 643 124 l 605 124 z "},"ď":{"ha":884,"x_min":134,"x_max":1154,"o":"m 403 93 q 527 129 467 93 q 643 240 586 165 l 643 621 q 556 661 602 649 q 456 673 510 673 q 294 625 346 673 q 241 479 241 577 l 241 273 q 281 138 241 182 q 403 93 321 93 m 605 124 q 514 23 571 59 q 385 -13 457 -13 q 200 63 266 -13 q 134 283 134 139 l 134 481 q 220 696 134 620 q 462 771 306 771 q 552 761 505 771 q 643 735 600 751 l 643 1010 l 750 1010 l 750 0 l 643 0 l 643 124 l 605 124 m 879 890 l 986 1263 l 1154 1263 l 962 890 l 879 890 z "},"e":{"ha":884,"x_min":134,"x_max":750,"o":"m 750 164 q 651 30 718 72 q 443 -13 583 -13 q 214 60 294 -13 q 134 275 134 133 l 134 479 q 220 698 134 626 q 443 770 307 770 q 665 697 581 770 q 750 468 750 624 l 750 359 l 241 359 l 241 277 q 291 129 241 173 q 441 85 341 85 q 579 112 538 85 q 640 196 620 139 l 750 164 m 241 473 l 241 447 l 643 447 l 643 462 q 592 622 643 572 q 442 672 540 672 q 292 623 343 672 q 241 473 241 574 z "},"è":{"ha":884,"x_min":134,"x_max":750,"o":"m 750 164 q 651 30 718 72 q 443 -13 583 -13 q 214 60 294 -13 q 134 275 134 133 l 134 479 q 220 698 134 626 q 443 770 307 770 q 665 697 581 770 q 750 468 750 624 l 750 359 l 241 359 l 241 277 q 291 129 241 173 q 441 85 341 85 q 579 112 538 85 q 640 196 620 139 l 750 164 m 241 473 l 241 447 l 643 447 l 643 462 q 592 622 643 572 q 442 672 540 672 q 292 623 343 672 q 241 473 241 574 m 447 884 l 206 1136 l 376 1136 l 554 884 l 447 884 z "},"é":{"ha":884,"x_min":134,"x_max":750,"o":"m 750 164 q 651 30 718 72 q 443 -13 583 -13 q 214 60 294 -13 q 134 275 134 133 l 134 479 q 220 698 134 626 q 443 770 307 770 q 665 697 581 770 q 750 468 750 624 l 750 359 l 241 359 l 241 277 q 291 129 241 173 q 441 85 341 85 q 579 112 538 85 q 640 196 620 139 l 750 164 m 241 473 l 241 447 l 643 447 l 643 462 q 592 622 643 572 q 442 672 540 672 q 292 623 343 672 q 241 473 241 574 m 298 884 l 476 1136 l 646 1136 l 405 884 l 298 884 z "},"ê":{"ha":884,"x_min":134,"x_max":750,"o":"m 750 164 q 651 30 718 72 q 443 -13 583 -13 q 214 60 294 -13 q 134 275 134 133 l 134 479 q 220 698 134 626 q 443 770 307 770 q 665 697 581 770 q 750 468 750 624 l 750 359 l 241 359 l 241 277 q 291 129 241 173 q 441 85 341 85 q 579 112 538 85 q 640 196 620 139 l 750 164 m 241 473 l 241 447 l 643 447 l 643 462 q 592 622 643 572 q 442 672 540 672 q 292 623 343 672 q 241 473 241 574 m 229 894 l 184 970 l 403 1155 l 479 1155 l 699 970 l 655 894 l 441 1043 l 229 894 z "},"ë":{"ha":884,"x_min":134,"x_max":750,"o":"m 750 164 q 651 30 718 72 q 443 -13 583 -13 q 214 60 294 -13 q 134 275 134 133 l 134 479 q 220 698 134 626 q 443 770 307 770 q 665 697 581 770 q 750 468 750 624 l 750 359 l 241 359 l 241 277 q 291 129 241 173 q 441 85 341 85 q 579 112 538 85 q 640 196 620 139 l 750 164 m 241 473 l 241 447 l 643 447 l 643 462 q 592 622 643 572 q 442 672 540 672 q 292 623 343 672 q 241 473 241 574 m 299 902 q 244 915 265 902 q 223 968 223 929 l 223 976 q 244 1030 223 1015 q 299 1045 265 1045 q 354 1030 333 1045 q 375 976 375 1015 l 375 968 q 354 915 375 929 q 299 902 332 902 m 585 902 q 530 915 551 902 q 509 968 509 929 l 509 976 q 530 1030 509 1015 q 585 1045 551 1045 q 640 1030 619 1045 q 660 976 660 1015 l 660 968 q 639 915 660 929 q 585 902 617 902 z "},"ē":{"ha":884,"x_min":134,"x_max":750,"o":"m 750 164 q 651 30 718 72 q 443 -13 583 -13 q 214 60 294 -13 q 134 275 134 133 l 134 479 q 220 698 134 626 q 443 770 307 770 q 665 697 581 770 q 750 468 750 624 l 750 359 l 241 359 l 241 277 q 291 129 241 173 q 441 85 341 85 q 579 112 538 85 q 640 196 620 139 l 750 164 m 241 473 l 241 447 l 643 447 l 643 462 q 592 622 643 572 q 442 672 540 672 q 292 623 343 672 q 241 473 241 574 m 194 961 l 194 1059 l 689 1059 l 689 961 l 194 961 z "},"ĕ":{"ha":884,"x_min":134,"x_max":750,"o":"m 750 164 q 651 30 718 72 q 443 -13 583 -13 q 214 60 294 -13 q 134 275 134 133 l 134 479 q 220 698 134 626 q 443 770 307 770 q 665 697 581 770 q 750 468 750 624 l 750 359 l 241 359 l 241 277 q 291 129 241 173 q 441 85 341 85 q 579 112 538 85 q 640 196 620 139 l 750 164 m 241 473 l 241 447 l 643 447 l 643 462 q 592 622 643 572 q 442 672 540 672 q 292 623 343 672 q 241 473 241 574 m 444 875 q 244 932 330 875 q 158 1133 159 989 l 273 1133 q 317 1003 274 1042 q 444 965 360 965 q 572 1003 529 965 q 616 1133 615 1042 l 731 1133 q 645 932 730 989 q 444 875 559 875 z "},"ė":{"ha":884,"x_min":134,"x_max":750,"o":"m 750 164 q 651 30 718 72 q 443 -13 583 -13 q 214 60 294 -13 q 134 275 134 133 l 134 479 q 220 698 134 626 q 443 770 307 770 q 665 697 581 770 q 750 468 750 624 l 750 359 l 241 359 l 241 277 q 291 129 241 173 q 441 85 341 85 q 579 112 538 85 q 640 196 620 139 l 750 164 m 241 473 l 241 447 l 643 447 l 643 462 q 592 622 643 572 q 442 672 540 672 q 292 623 343 672 q 241 473 241 574 m 442 902 q 370 915 398 902 q 342 968 342 929 l 342 976 q 370 1030 342 1015 q 442 1045 398 1045 q 514 1030 486 1045 q 542 976 542 1015 l 542 968 q 513 915 542 929 q 442 902 485 902 z "},"ę":{"ha":884,"x_min":134,"x_max":750,"o":"m 619 -269 q 489 -229 543 -269 q 434 -121 434 -189 q 480 -18 434 -64 q 582 52 527 28 l 616 29 q 556 -30 573 3 q 539 -90 539 -63 q 563 -144 539 -125 q 628 -163 587 -163 q 686 -159 650 -163 q 740 -150 721 -155 l 740 -258 q 683 -266 720 -263 q 619 -269 646 -269 m 750 164 q 651 30 718 72 q 443 -13 583 -13 q 214 60 294 -13 q 134 275 134 133 l 134 479 q 220 698 134 626 q 443 770 307 770 q 665 697 581 770 q 750 468 750 624 l 750 359 l 241 359 l 241 277 q 291 129 241 173 q 441 85 341 85 q 579 112 538 85 q 640 196 620 139 l 750 164 m 241 473 l 241 447 l 643 447 l 643 462 q 592 622 643 572 q 442 672 540 672 q 292 623 343 672 q 241 473 241 574 z "},"ě":{"ha":884,"x_min":134,"x_max":750,"o":"m 750 164 q 651 30 718 72 q 443 -13 583 -13 q 214 60 294 -13 q 134 275 134 133 l 134 479 q 220 698 134 626 q 443 770 307 770 q 665 697 581 770 q 750 468 750 624 l 750 359 l 241 359 l 241 277 q 291 129 241 173 q 441 85 341 85 q 579 112 538 85 q 640 196 620 139 l 750 164 m 241 473 l 241 447 l 643 447 l 643 462 q 592 622 643 572 q 442 672 540 672 q 292 623 343 672 q 241 473 241 574 m 405 889 l 184 1074 l 229 1150 l 443 1001 l 655 1150 l 699 1074 l 481 889 l 405 889 z "},"f":{"ha":884,"x_min":105,"x_max":777,"o":"m 322 0 l 322 657 l 105 657 l 105 758 l 322 758 l 322 811 q 400 962 322 909 q 592 1015 479 1015 q 696 1004 652 1015 q 777 982 741 994 l 751 886 q 685 903 725 895 q 587 912 645 912 q 472 890 515 912 q 429 816 429 867 l 429 758 l 750 758 l 750 657 l 429 657 l 429 0 l 322 0 z "},"g":{"ha":884,"x_min":67,"x_max":817,"o":"m 817 -66 q 742 -217 817 -168 q 563 -265 668 -265 l 323 -265 q 141 -221 215 -265 q 67 -78 67 -177 q 98 18 67 -18 q 192 58 130 53 l 192 85 q 120 119 148 90 q 92 210 92 149 q 124 304 92 260 q 237 354 155 347 l 237 378 q 157 440 177 398 q 138 516 138 482 l 138 557 q 210 700 138 643 q 420 758 283 758 l 780 758 l 780 649 l 587 679 l 587 657 q 663 604 638 643 q 688 525 688 564 l 688 486 q 624 347 688 402 q 407 292 561 292 l 247 292 q 198 274 215 292 q 181 215 181 256 q 205 153 181 173 q 280 133 230 133 l 577 133 q 748 86 679 133 q 817 -66 817 40 m 415 384 q 540 413 496 384 q 583 506 583 442 l 583 542 q 540 635 583 606 q 415 664 497 664 q 292 635 335 664 q 249 542 249 606 l 249 506 q 292 413 249 442 q 415 384 335 384 m 319 -172 l 582 -172 q 678 -148 641 -172 q 715 -69 715 -124 q 682 7 715 -16 q 597 30 649 30 l 177 30 l 177 -62 q 213 -145 177 -117 q 319 -172 250 -172 z "},"ĝ":{"ha":884,"x_min":67,"x_max":817,"o":"m 817 -66 q 742 -217 817 -168 q 563 -265 668 -265 l 323 -265 q 141 -221 215 -265 q 67 -78 67 -177 q 98 18 67 -18 q 192 58 130 53 l 192 85 q 120 119 148 90 q 92 210 92 149 q 124 304 92 260 q 237 354 155 347 l 237 378 q 157 440 177 398 q 138 516 138 482 l 138 557 q 210 700 138 643 q 420 758 283 758 l 780 758 l 780 649 l 587 679 l 587 657 q 663 604 638 643 q 688 525 688 564 l 688 486 q 624 347 688 402 q 407 292 561 292 l 247 292 q 198 274 215 292 q 181 215 181 256 q 205 153 181 173 q 280 133 230 133 l 577 133 q 748 86 679 133 q 817 -66 817 40 m 415 384 q 540 413 496 384 q 583 506 583 442 l 583 542 q 540 635 583 606 q 415 664 497 664 q 292 635 335 664 q 249 542 249 606 l 249 506 q 292 413 249 442 q 415 384 335 384 m 319 -172 l 582 -172 q 678 -148 641 -172 q 715 -69 715 -124 q 682 7 715 -16 q 597 30 649 30 l 177 30 l 177 -62 q 213 -145 177 -117 q 319 -172 250 -172 m 212 894 l 168 970 l 386 1155 l 462 1155 l 683 970 l 639 894 l 424 1043 l 212 894 z "},"ğ":{"ha":884,"x_min":67,"x_max":817,"o":"m 817 -66 q 742 -217 817 -168 q 563 -265 668 -265 l 323 -265 q 141 -221 215 -265 q 67 -78 67 -177 q 98 18 67 -18 q 192 58 130 53 l 192 85 q 120 119 148 90 q 92 210 92 149 q 124 304 92 260 q 237 354 155 347 l 237 378 q 157 440 177 398 q 138 516 138 482 l 138 557 q 210 700 138 643 q 420 758 283 758 l 780 758 l 780 649 l 587 679 l 587 657 q 663 604 638 643 q 688 525 688 564 l 688 486 q 624 347 688 402 q 407 292 561 292 l 247 292 q 198 274 215 292 q 181 215 181 256 q 205 153 181 173 q 280 133 230 133 l 577 133 q 748 86 679 133 q 817 -66 817 40 m 415 384 q 540 413 496 384 q 583 506 583 442 l 583 542 q 540 635 583 606 q 415 664 497 664 q 292 635 335 664 q 249 542 249 606 l 249 506 q 292 413 249 442 q 415 384 335 384 m 319 -172 l 582 -172 q 678 -148 641 -172 q 715 -69 715 -124 q 682 7 715 -16 q 597 30 649 30 l 177 30 l 177 -62 q 213 -145 177 -117 q 319 -172 250 -172 m 442 875 q 242 932 327 875 q 155 1133 157 989 l 270 1133 q 314 1003 271 1042 q 442 965 357 965 q 569 1003 527 965 q 614 1133 612 1042 l 729 1133 q 642 932 727 989 q 442 875 557 875 z "},"ġ":{"ha":884,"x_min":67,"x_max":817,"o":"m 817 -66 q 742 -217 817 -168 q 563 -265 668 -265 l 323 -265 q 141 -221 215 -265 q 67 -78 67 -177 q 98 18 67 -18 q 192 58 130 53 l 192 85 q 120 119 148 90 q 92 210 92 149 q 124 304 92 260 q 237 354 155 347 l 237 378 q 157 440 177 398 q 138 516 138 482 l 138 557 q 210 700 138 643 q 420 758 283 758 l 780 758 l 780 649 l 587 679 l 587 657 q 663 604 638 643 q 688 525 688 564 l 688 486 q 624 347 688 402 q 407 292 561 292 l 247 292 q 198 274 215 292 q 181 215 181 256 q 205 153 181 173 q 280 133 230 133 l 577 133 q 748 86 679 133 q 817 -66 817 40 m 415 384 q 540 413 496 384 q 583 506 583 442 l 583 542 q 540 635 583 606 q 415 664 497 664 q 292 635 335 664 q 249 542 249 606 l 249 506 q 292 413 249 442 q 415 384 335 384 m 319 -172 l 582 -172 q 678 -148 641 -172 q 715 -69 715 -124 q 682 7 715 -16 q 597 30 649 30 l 177 30 l 177 -62 q 213 -145 177 -117 q 319 -172 250 -172 m 442 902 q 370 915 398 902 q 342 968 342 929 l 342 976 q 370 1030 342 1015 q 442 1045 398 1045 q 514 1030 486 1045 q 542 976 542 1015 l 542 968 q 513 915 542 929 q 442 902 485 902 z "},"ģ":{"ha":884,"x_min":67,"x_max":817,"o":"m 817 -66 q 742 -217 817 -168 q 563 -265 668 -265 l 323 -265 q 141 -221 215 -265 q 67 -78 67 -177 q 98 18 67 -18 q 192 58 130 53 l 192 85 q 120 119 148 90 q 92 210 92 149 q 124 304 92 260 q 237 354 155 347 l 237 378 q 157 440 177 398 q 138 516 138 482 l 138 557 q 210 700 138 643 q 420 758 283 758 l 780 758 l 780 649 l 587 679 l 587 657 q 663 604 638 643 q 688 525 688 564 l 688 486 q 624 347 688 402 q 407 292 561 292 l 247 292 q 198 274 215 292 q 181 215 181 256 q 205 153 181 173 q 280 133 230 133 l 577 133 q 748 86 679 133 q 817 -66 817 40 m 415 384 q 540 413 496 384 q 583 506 583 442 l 583 542 q 540 635 583 606 q 415 664 497 664 q 292 635 335 664 q 249 542 249 606 l 249 506 q 292 413 249 442 q 415 384 335 384 m 319 -172 l 582 -172 q 678 -148 641 -172 q 715 -69 715 -124 q 682 7 715 -16 q 597 30 649 30 l 177 30 l 177 -62 q 213 -145 177 -117 q 319 -172 250 -172 m 331 884 l 521 1136 l 629 1136 l 501 884 l 331 884 z "},"h":{"ha":884,"x_min":134,"x_max":750,"o":"m 134 0 l 134 1010 l 241 1010 l 241 634 l 279 634 q 365 733 306 696 q 500 770 424 770 q 683 699 616 770 q 750 506 750 629 l 750 0 l 643 0 l 643 489 q 602 619 643 574 q 482 664 561 664 q 361 629 423 664 q 241 527 299 595 l 241 0 l 134 0 z "},"ĥ":{"ha":884,"x_min":-69,"x_max":750,"o":"m 134 0 l 134 1010 l 241 1010 l 241 634 l 279 634 q 365 733 306 696 q 500 770 424 770 q 683 699 616 770 q 750 506 750 629 l 750 0 l 643 0 l 643 489 q 602 619 643 574 q 482 664 561 664 q 361 629 423 664 q 241 527 299 595 l 241 0 l 134 0 m -25 1146 l -69 1222 l 149 1408 l 225 1408 l 446 1222 l 402 1146 l 187 1295 l -25 1146 z "},"i":{"ha":884,"x_min":133,"x_max":753,"o":"m 133 0 l 133 101 l 389 101 l 389 657 l 133 657 l 133 758 l 496 758 l 496 101 l 753 101 l 753 0 l 133 0 m 439 902 q 367 915 395 902 q 340 968 340 929 l 340 976 q 367 1030 340 1015 q 439 1045 395 1045 q 511 1030 484 1045 q 539 976 539 1015 l 539 968 q 511 915 539 929 q 439 902 482 902 z "},"ì":{"ha":884,"x_min":133,"x_max":753,"o":"m 133 0 l 133 101 l 389 101 l 389 657 l 133 657 l 133 758 l 496 758 l 496 101 l 753 101 l 753 0 l 133 0 m 443 884 l 202 1136 l 372 1136 l 551 884 l 443 884 z "},"í":{"ha":884,"x_min":133,"x_max":753,"o":"m 133 0 l 133 101 l 389 101 l 389 657 l 133 657 l 133 758 l 496 758 l 496 101 l 753 101 l 753 0 l 133 0 m 302 884 l 480 1136 l 650 1136 l 409 884 l 302 884 z "},"î":{"ha":884,"x_min":133,"x_max":753,"o":"m 133 0 l 133 101 l 389 101 l 389 657 l 133 657 l 133 758 l 496 758 l 496 101 l 753 101 l 753 0 l 133 0 m 229 894 l 184 970 l 403 1155 l 479 1155 l 699 970 l 655 894 l 441 1043 l 229 894 z "},"ï":{"ha":884,"x_min":133,"x_max":753,"o":"m 133 0 l 133 101 l 389 101 l 389 657 l 133 657 l 133 758 l 496 758 l 496 101 l 753 101 l 753 0 l 133 0 m 299 902 q 244 915 265 902 q 223 968 223 929 l 223 976 q 244 1030 223 1015 q 299 1045 265 1045 q 354 1030 333 1045 q 375 976 375 1015 l 375 968 q 354 915 375 929 q 299 902 332 902 m 585 902 q 530 915 551 902 q 509 968 509 929 l 509 976 q 530 1030 509 1015 q 585 1045 551 1045 q 640 1030 619 1045 q 660 976 660 1015 l 660 968 q 639 915 660 929 q 585 902 617 902 z "},"ĩ":{"ha":884,"x_min":133,"x_max":753,"o":"m 133 0 l 133 101 l 389 101 l 389 657 l 133 657 l 133 758 l 496 758 l 496 101 l 753 101 l 753 0 l 133 0 m 538 896 q 468 920 497 896 q 417 972 439 944 q 374 1023 394 1000 q 332 1047 354 1047 q 290 1023 308 1047 q 273 923 271 999 l 273 909 l 184 909 l 184 928 q 225 1082 184 1020 q 345 1144 266 1144 q 422 1121 391 1144 q 473 1069 452 1097 q 513 1018 495 1042 q 552 994 530 994 q 593 1018 576 994 q 611 1117 611 1042 l 611 1131 l 699 1131 l 699 1112 q 658 957 699 1018 q 538 896 617 896 z "},"ī":{"ha":884,"x_min":133,"x_max":753,"o":"m 133 0 l 133 101 l 389 101 l 389 657 l 133 657 l 133 758 l 496 758 l 496 101 l 753 101 l 753 0 l 133 0 m 194 961 l 194 1059 l 689 1059 l 689 961 l 194 961 z "},"ĭ":{"ha":884,"x_min":133,"x_max":753,"o":"m 133 0 l 133 101 l 389 101 l 389 657 l 133 657 l 133 758 l 496 758 l 496 101 l 753 101 l 753 0 l 133 0 m 442 875 q 242 932 327 875 q 155 1133 157 989 l 270 1133 q 314 1003 271 1042 q 442 965 357 965 q 569 1003 527 965 q 614 1133 612 1042 l 729 1133 q 642 932 727 989 q 442 875 557 875 z "},"į":{"ha":884,"x_min":133,"x_max":753,"o":"m 439 902 q 367 915 395 902 q 340 968 340 929 l 340 976 q 367 1030 340 1015 q 439 1045 395 1045 q 511 1030 484 1045 q 539 976 539 1015 l 539 968 q 511 915 539 929 q 439 902 482 902 m 133 0 l 133 101 l 389 101 l 389 657 l 133 657 l 133 758 l 496 758 l 496 101 l 753 101 l 753 0 l 133 0 m 568 -269 q 438 -229 492 -269 q 384 -121 384 -189 q 430 -18 384 -64 q 532 52 476 28 l 566 29 q 506 -30 523 3 q 489 -90 489 -63 q 513 -144 489 -125 q 577 -163 537 -163 q 635 -159 600 -163 q 689 -150 670 -155 l 689 -258 q 633 -266 669 -263 q 568 -269 596 -269 z "},"j":{"ha":884,"x_min":138,"x_max":668,"o":"m 330 -263 q 237 -257 283 -263 q 138 -235 192 -251 l 163 -121 q 249 -143 210 -138 q 330 -149 289 -149 q 465 -113 413 -149 q 516 6 516 -77 l 516 657 l 157 657 l 157 758 l 624 758 l 624 -9 q 538 -201 624 -140 q 330 -263 452 -263 m 568 902 q 496 915 524 902 q 468 968 468 929 l 468 976 q 496 1030 468 1015 q 568 1045 524 1045 q 640 1030 612 1045 q 668 976 668 1015 l 668 968 q 640 915 668 929 q 568 902 611 902 z "},"ĵ":{"ha":884,"x_min":138,"x_max":785,"o":"m 330 -263 q 237 -257 283 -263 q 138 -235 192 -251 l 163 -121 q 249 -143 210 -138 q 330 -149 289 -149 q 465 -113 413 -149 q 516 6 516 -77 l 516 657 l 157 657 l 157 758 l 624 758 l 624 -9 q 538 -201 624 -140 q 330 -263 452 -263 m 314 894 l 270 970 l 489 1155 l 564 1155 l 785 970 l 741 894 l 527 1043 l 314 894 z "},"k":{"ha":884,"x_min":205,"x_max":768,"o":"m 312 352 l 312 0 l 205 0 l 205 1010 l 312 1010 l 312 446 l 379 446 l 629 758 l 768 758 l 461 403 l 764 0 l 638 0 l 379 352 l 312 352 z "},"ķ":{"ha":884,"x_min":205,"x_max":768,"o":"m 312 352 l 312 0 l 205 0 l 205 1010 l 312 1010 l 312 446 l 379 446 l 629 758 l 768 758 l 461 403 l 764 0 l 638 0 l 379 352 l 312 352 m 264 -379 l 391 -126 l 562 -126 l 371 -379 l 264 -379 z "},"l":{"ha":884,"x_min":130,"x_max":749,"o":"m 130 0 l 130 101 l 385 101 l 385 909 l 130 909 l 130 1010 l 492 1010 l 492 101 l 749 101 l 749 0 l 130 0 z "},"ĺ":{"ha":884,"x_min":130,"x_max":749,"o":"m 130 0 l 130 101 l 385 101 l 385 909 l 130 909 l 130 1010 l 492 1010 l 492 101 l 749 101 l 749 0 l 130 0 m 324 1136 l 503 1389 l 673 1389 l 432 1136 l 324 1136 z "},"ļ":{"ha":884,"x_min":130,"x_max":749,"o":"m 130 0 l 130 101 l 385 101 l 385 909 l 130 909 l 130 1010 l 492 1010 l 492 101 l 749 101 l 749 0 l 130 0 m 245 -379 l 372 -126 l 543 -126 l 352 -379 l 245 -379 z "},"ľ":{"ha":884,"x_min":130,"x_max":893,"o":"m 130 0 l 130 101 l 385 101 l 385 909 l 130 909 l 130 1010 l 492 1010 l 492 101 l 749 101 l 749 0 l 130 0 m 617 890 l 725 1263 l 893 1263 l 701 890 l 617 890 z "},"m":{"ha":884,"x_min":80,"x_max":804,"o":"m 183 544 l 183 0 l 80 0 l 80 758 l 183 758 l 183 657 l 207 657 q 271 741 231 710 q 354 771 311 771 q 438 741 404 771 q 485 657 472 711 l 511 657 q 576 741 535 710 q 664 771 617 771 q 766 720 729 771 q 804 578 804 668 l 804 0 l 701 0 l 701 563 q 684 657 701 625 q 636 689 668 689 q 573 650 611 689 q 494 544 534 611 l 494 0 l 390 0 l 390 563 q 373 657 390 625 q 324 689 356 689 q 262 653 298 689 q 183 544 226 616 z "},"n":{"ha":884,"x_min":134,"x_max":750,"o":"m 134 0 l 134 758 l 241 758 l 241 634 l 279 634 q 366 733 307 696 q 497 770 424 770 q 682 699 614 770 q 750 505 750 628 l 750 0 l 643 0 l 643 484 q 602 618 643 572 q 482 664 561 664 q 362 628 423 664 q 241 521 301 591 l 241 0 l 134 0 z "},"ñ":{"ha":884,"x_min":134,"x_max":750,"o":"m 134 0 l 134 758 l 241 758 l 241 634 l 279 634 q 366 733 307 696 q 497 770 424 770 q 682 699 614 770 q 750 505 750 628 l 750 0 l 643 0 l 643 484 q 602 618 643 572 q 482 664 561 664 q 362 628 423 664 q 241 521 301 591 l 241 0 l 134 0 m 563 896 q 494 920 523 896 q 442 972 465 944 q 399 1023 419 1000 q 357 1047 379 1047 q 315 1023 333 1047 q 298 923 297 999 l 298 909 l 210 909 l 210 928 q 251 1082 210 1020 q 370 1144 292 1144 q 447 1121 417 1144 q 499 1069 477 1097 q 538 1018 520 1042 q 577 994 556 994 q 619 1018 601 994 q 636 1117 636 1042 l 636 1131 l 725 1131 l 725 1112 q 684 957 725 1018 q 563 896 643 896 z "},"ń":{"ha":884,"x_min":134,"x_max":750,"o":"m 134 0 l 134 758 l 241 758 l 241 634 l 279 634 q 366 733 307 696 q 497 770 424 770 q 682 699 614 770 q 750 505 750 628 l 750 0 l 643 0 l 643 484 q 602 618 643 572 q 482 664 561 664 q 362 628 423 664 q 241 521 301 591 l 241 0 l 134 0 m 327 884 l 505 1136 l 676 1136 l 434 884 l 327 884 z "},"ņ":{"ha":884,"x_min":134,"x_max":750,"o":"m 278 -379 l 405 -126 l 576 -126 l 385 -379 l 278 -379 m 134 0 l 134 758 l 241 758 l 241 634 l 279 634 q 366 733 307 696 q 497 770 424 770 q 682 699 614 770 q 750 505 750 628 l 750 0 l 643 0 l 643 484 q 602 618 643 572 q 482 664 561 664 q 362 628 423 664 q 241 521 301 591 l 241 0 l 134 0 z "},"ň":{"ha":884,"x_min":134,"x_max":750,"o":"m 134 0 l 134 758 l 241 758 l 241 634 l 279 634 q 366 733 307 696 q 497 770 424 770 q 682 699 614 770 q 750 505 750 628 l 750 0 l 643 0 l 643 484 q 602 618 643 572 q 482 664 561 664 q 362 628 423 664 q 241 521 301 591 l 241 0 l 134 0 m 431 889 l 210 1074 l 254 1150 l 468 1001 l 681 1150 l 725 1074 l 506 889 l 431 889 z "},"o":{"ha":884,"x_min":134,"x_max":750,"o":"m 442 -13 q 213 61 292 -13 q 134 274 134 135 l 134 479 q 213 695 134 620 q 443 770 293 770 q 671 695 592 770 q 750 480 750 620 l 750 275 q 671 61 750 135 q 442 -13 592 -13 m 442 88 q 593 134 544 88 q 643 271 643 179 l 643 481 q 593 622 643 576 q 442 669 544 669 q 290 622 340 669 q 241 480 241 576 l 241 270 q 290 134 241 179 q 442 88 340 88 z "},"ò":{"ha":884,"x_min":134,"x_max":750,"o":"m 442 -13 q 213 61 292 -13 q 134 274 134 135 l 134 479 q 213 695 134 620 q 443 770 293 770 q 671 695 592 770 q 750 480 750 620 l 750 275 q 671 61 750 135 q 442 -13 592 -13 m 442 88 q 593 134 544 88 q 643 271 643 179 l 643 481 q 593 622 643 576 q 442 669 544 669 q 290 622 340 669 q 241 480 241 576 l 241 270 q 290 134 241 179 q 442 88 340 88 m 447 884 l 206 1136 l 376 1136 l 554 884 l 447 884 z "},"ó":{"ha":884,"x_min":134,"x_max":750,"o":"m 442 -13 q 213 61 292 -13 q 134 274 134 135 l 134 479 q 213 695 134 620 q 443 770 293 770 q 671 695 592 770 q 750 480 750 620 l 750 275 q 671 61 750 135 q 442 -13 592 -13 m 442 88 q 593 134 544 88 q 643 271 643 179 l 643 481 q 593 622 643 576 q 442 669 544 669 q 290 622 340 669 q 241 480 241 576 l 241 270 q 290 134 241 179 q 442 88 340 88 m 302 884 l 480 1136 l 650 1136 l 409 884 l 302 884 z "},"ô":{"ha":884,"x_min":134,"x_max":750,"o":"m 442 -13 q 213 61 292 -13 q 134 274 134 135 l 134 479 q 213 695 134 620 q 443 770 293 770 q 671 695 592 770 q 750 480 750 620 l 750 275 q 671 61 750 135 q 442 -13 592 -13 m 442 88 q 593 134 544 88 q 643 271 643 179 l 643 481 q 593 622 643 576 q 442 669 544 669 q 290 622 340 669 q 241 480 241 576 l 241 270 q 290 134 241 179 q 442 88 340 88 m 229 894 l 184 970 l 403 1155 l 479 1155 l 699 970 l 655 894 l 441 1043 l 229 894 z "},"õ":{"ha":884,"x_min":134,"x_max":750,"o":"m 442 -13 q 213 61 292 -13 q 134 274 134 135 l 134 479 q 213 695 134 620 q 443 770 293 770 q 671 695 592 770 q 750 480 750 620 l 750 275 q 671 61 750 135 q 442 -13 592 -13 m 442 88 q 593 134 544 88 q 643 271 643 179 l 643 481 q 593 622 643 576 q 442 669 544 669 q 290 622 340 669 q 241 480 241 576 l 241 270 q 290 134 241 179 q 442 88 340 88 m 538 896 q 468 920 497 896 q 417 972 439 944 q 374 1023 394 1000 q 332 1047 354 1047 q 290 1023 308 1047 q 273 923 271 999 l 273 909 l 184 909 l 184 928 q 225 1082 184 1020 q 345 1144 266 1144 q 422 1121 391 1144 q 473 1069 452 1097 q 513 1018 495 1042 q 552 994 530 994 q 593 1018 576 994 q 611 1117 611 1042 l 611 1131 l 699 1131 l 699 1112 q 658 957 699 1018 q 538 896 617 896 z "},"ö":{"ha":884,"x_min":134,"x_max":750,"o":"m 442 -13 q 213 61 292 -13 q 134 274 134 135 l 134 479 q 213 695 134 620 q 443 770 293 770 q 671 695 592 770 q 750 480 750 620 l 750 275 q 671 61 750 135 q 442 -13 592 -13 m 442 88 q 593 134 544 88 q 643 271 643 179 l 643 481 q 593 622 643 576 q 442 669 544 669 q 290 622 340 669 q 241 480 241 576 l 241 270 q 290 134 241 179 q 442 88 340 88 m 299 902 q 244 915 265 902 q 223 968 223 929 l 223 976 q 244 1030 223 1015 q 299 1045 265 1045 q 354 1030 333 1045 q 375 976 375 1015 l 375 968 q 354 915 375 929 q 299 902 332 902 m 585 902 q 530 915 551 902 q 509 968 509 929 l 509 976 q 530 1030 509 1015 q 585 1045 551 1045 q 640 1030 619 1045 q 660 976 660 1015 l 660 968 q 639 915 660 929 q 585 902 617 902 z "},"ō":{"ha":884,"x_min":134,"x_max":750,"o":"m 442 -13 q 213 61 292 -13 q 134 274 134 135 l 134 479 q 213 695 134 620 q 443 770 293 770 q 671 695 592 770 q 750 480 750 620 l 750 275 q 671 61 750 135 q 442 -13 592 -13 m 442 88 q 593 134 544 88 q 643 271 643 179 l 643 481 q 593 622 643 576 q 442 669 544 669 q 290 622 340 669 q 241 480 241 576 l 241 270 q 290 134 241 179 q 442 88 340 88 m 194 961 l 194 1059 l 689 1059 l 689 961 l 194 961 z "},"ŏ":{"ha":884,"x_min":134,"x_max":750,"o":"m 442 -13 q 213 61 292 -13 q 134 274 134 135 l 134 479 q 213 695 134 620 q 443 770 293 770 q 671 695 592 770 q 750 480 750 620 l 750 275 q 671 61 750 135 q 442 -13 592 -13 m 442 88 q 593 134 544 88 q 643 271 643 179 l 643 481 q 593 622 643 576 q 442 669 544 669 q 290 622 340 669 q 241 480 241 576 l 241 270 q 290 134 241 179 q 442 88 340 88 m 441 875 q 241 932 326 875 q 154 1133 155 989 l 269 1133 q 313 1003 270 1042 q 441 965 356 965 q 568 1003 525 965 q 612 1133 611 1042 l 727 1133 q 641 932 726 989 q 441 875 556 875 z "},"ő":{"ha":884,"x_min":134,"x_max":755,"o":"m 442 -13 q 213 61 292 -13 q 134 274 134 135 l 134 479 q 213 695 134 620 q 443 770 293 770 q 671 695 592 770 q 750 480 750 620 l 750 275 q 671 61 750 135 q 442 -13 592 -13 m 442 88 q 593 134 544 88 q 643 271 643 179 l 643 481 q 593 622 643 576 q 442 669 544 669 q 290 622 340 669 q 241 480 241 576 l 241 270 q 290 134 241 179 q 442 88 340 88 m 515 884 l 588 1136 l 755 1136 l 600 884 l 515 884 m 225 884 l 297 1136 l 465 1136 l 308 884 l 225 884 z "},"p":{"ha":884,"x_min":134,"x_max":750,"o":"m 428 85 q 592 131 542 85 q 643 279 643 177 l 643 486 q 605 622 643 581 q 482 664 567 664 q 357 629 414 664 q 241 518 299 595 l 241 135 q 326 97 280 110 q 428 85 371 85 m 423 -14 q 332 -4 380 -14 q 241 23 284 6 l 241 -253 l 134 -253 l 134 758 l 241 758 l 241 634 l 279 634 q 371 734 312 697 q 499 770 431 770 q 683 691 616 770 q 750 475 750 611 l 750 277 q 662 64 750 141 q 423 -14 574 -14 z "},"q":{"ha":884,"x_min":134,"x_max":750,"o":"m 643 -253 l 643 124 l 605 124 q 513 21 569 54 q 385 -13 456 -13 q 199 62 264 -13 q 134 283 134 136 l 134 481 q 227 697 134 622 q 452 771 319 771 q 609 751 535 771 q 750 692 683 731 l 750 -253 l 643 -253 m 403 93 q 526 129 467 93 q 643 240 585 164 l 643 621 q 551 661 597 649 q 456 673 505 673 q 304 625 367 673 q 241 479 241 577 l 241 288 q 280 141 241 188 q 403 93 319 93 z "},"r":{"ha":884,"x_min":203,"x_max":755,"o":"m 203 0 l 203 758 l 311 758 l 311 634 l 348 634 q 427 737 374 705 q 557 770 481 770 q 698 714 640 770 q 755 556 755 658 l 755 447 l 652 447 l 652 515 q 617 628 652 592 q 515 664 583 664 q 403 633 453 664 q 311 538 354 602 l 311 0 l 203 0 z "},"ŕ":{"ha":884,"x_min":203,"x_max":755,"o":"m 203 0 l 203 758 l 311 758 l 311 634 l 348 634 q 427 737 374 705 q 557 770 481 770 q 698 714 640 770 q 755 556 755 658 l 755 447 l 652 447 l 652 515 q 617 628 652 592 q 515 664 583 664 q 403 633 453 664 q 311 538 354 602 l 311 0 l 203 0 m 355 884 l 533 1136 l 703 1136 l 462 884 l 355 884 z "},"ŗ":{"ha":884,"x_min":109,"x_max":755,"o":"m 203 0 l 203 758 l 311 758 l 311 634 l 348 634 q 427 737 374 705 q 557 770 481 770 q 698 714 640 770 q 755 556 755 658 l 755 447 l 652 447 l 652 515 q 617 628 652 592 q 515 664 583 664 q 403 633 453 664 q 311 538 354 602 l 311 0 l 203 0 m 109 -379 l 236 -126 l 407 -126 l 216 -379 l 109 -379 z "},"ř":{"ha":884,"x_min":203,"x_max":755,"o":"m 203 0 l 203 758 l 311 758 l 311 634 l 348 634 q 427 737 374 705 q 557 770 481 770 q 698 714 640 770 q 755 556 755 658 l 755 447 l 652 447 l 652 515 q 617 628 652 592 q 515 664 583 664 q 403 633 453 664 q 311 538 354 602 l 311 0 l 203 0 m 458 889 l 237 1074 l 282 1150 l 496 1001 l 708 1150 l 753 1074 l 534 889 l 458 889 z "},"s":{"ha":884,"x_min":105,"x_max":756,"o":"m 453 -14 q 270 15 359 -14 q 105 106 181 44 l 162 196 q 297 119 222 145 q 452 92 371 92 q 585 113 520 92 q 650 206 650 134 q 598 286 650 263 q 404 328 547 309 q 199 394 268 345 q 130 547 130 443 q 216 715 130 659 q 408 770 302 770 q 581 738 499 770 q 735 648 664 706 l 677 556 q 552 634 621 604 q 407 664 484 664 q 290 640 345 664 q 236 551 236 616 q 283 471 236 496 q 470 429 331 446 q 684 359 612 413 q 756 211 756 306 q 660 39 756 91 q 453 -14 563 -14 z "},"":{"ha":884,"x_min":105,"x_max":756,"o":"m 453 -14 q 270 15 359 -14 q 105 106 181 44 l 162 196 q 297 119 222 145 q 452 92 371 92 q 585 113 520 92 q 650 206 650 134 q 598 286 650 263 q 404 328 547 309 q 199 394 268 345 q 130 547 130 443 q 216 715 130 659 q 408 770 302 770 q 581 738 499 770 q 735 648 664 706 l 677 556 q 552 634 621 604 q 407 664 484 664 q 290 640 345 664 q 236 551 236 616 q 283 471 236 496 q 470 429 331 446 q 684 359 612 413 q 756 211 756 306 q 660 39 756 91 q 453 -14 563 -14 z "},"ś":{"ha":884,"x_min":105,"x_max":756,"o":"m 453 -14 q 270 15 359 -14 q 105 106 181 44 l 162 196 q 297 119 222 145 q 452 92 371 92 q 585 113 520 92 q 650 206 650 134 q 598 286 650 263 q 404 328 547 309 q 199 394 268 345 q 130 547 130 443 q 216 715 130 659 q 408 770 302 770 q 581 738 499 770 q 735 648 664 706 l 677 556 q 552 634 621 604 q 407 664 484 664 q 290 640 345 664 q 236 551 236 616 q 283 471 236 496 q 470 429 331 446 q 684 359 612 413 q 756 211 756 306 q 660 39 756 91 q 453 -14 563 -14 m 298 884 l 476 1136 l 646 1136 l 405 884 l 298 884 z "},"ŝ":{"ha":884,"x_min":105,"x_max":756,"o":"m 453 -14 q 270 15 359 -14 q 105 106 181 44 l 162 196 q 297 119 222 145 q 452 92 371 92 q 585 113 520 92 q 650 206 650 134 q 598 286 650 263 q 404 328 547 309 q 199 394 268 345 q 130 547 130 443 q 216 715 130 659 q 408 770 302 770 q 581 738 499 770 q 735 648 664 706 l 677 556 q 552 634 621 604 q 407 664 484 664 q 290 640 345 664 q 236 551 236 616 q 283 471 236 496 q 470 429 331 446 q 684 359 612 413 q 756 211 756 306 q 660 39 756 91 q 453 -14 563 -14 m 226 894 l 182 970 l 400 1155 l 476 1155 l 697 970 l 653 894 l 438 1043 l 226 894 z "},"ş":{"ha":884,"x_min":105,"x_max":756,"o":"m 453 -14 q 270 15 359 -14 q 105 106 181 44 l 162 196 q 297 119 222 145 q 452 92 371 92 q 585 113 520 92 q 650 206 650 134 q 598 286 650 263 q 404 328 547 309 q 199 394 268 345 q 130 547 130 443 q 216 715 130 659 q 408 770 302 770 q 581 738 499 770 q 735 648 664 706 l 677 556 q 552 634 621 604 q 407 664 484 664 q 290 640 345 664 q 236 551 236 616 q 283 471 236 496 q 470 429 331 446 q 684 359 612 413 q 756 211 756 306 q 660 39 756 91 q 453 -14 563 -14 m 404 0 l 429 53 q 525 5 477 43 q 573 -116 573 -33 q 520 -233 573 -196 q 402 -270 467 -270 q 275 -241 324 -270 q 221 -144 226 -212 l 317 -131 q 337 -165 319 -155 q 395 -174 355 -174 q 455 -158 434 -174 q 475 -98 475 -141 q 458 -32 475 -53 q 404 0 442 -10 z "},"š":{"ha":884,"x_min":105,"x_max":756,"o":"m 453 -14 q 270 15 359 -14 q 105 106 181 44 l 162 196 q 297 119 222 145 q 452 92 371 92 q 585 113 520 92 q 650 206 650 134 q 598 286 650 263 q 404 328 547 309 q 199 394 268 345 q 130 547 130 443 q 216 715 130 659 q 408 770 302 770 q 581 738 499 770 q 735 648 664 706 l 677 556 q 552 634 621 604 q 407 664 484 664 q 290 640 345 664 q 236 551 236 616 q 283 471 236 496 q 470 429 331 446 q 684 359 612 413 q 756 211 756 306 q 660 39 756 91 q 453 -14 563 -14 m 403 889 l 182 1074 l 226 1150 l 441 1001 l 653 1150 l 697 1074 l 479 889 l 403 889 z "},"ș":{"ha":884,"x_min":105,"x_max":756,"o":"m 453 -14 q 270 15 359 -14 q 105 106 181 44 l 162 196 q 297 119 222 145 q 452 92 371 92 q 585 113 520 92 q 650 206 650 134 q 598 286 650 263 q 404 328 547 309 q 199 394 268 345 q 130 547 130 443 q 216 715 130 659 q 408 770 302 770 q 581 738 499 770 q 735 648 664 706 l 677 556 q 552 634 621 604 q 407 664 484 664 q 290 640 345 664 q 236 551 236 616 q 283 471 236 496 q 470 429 331 446 q 684 359 612 413 q 756 211 756 306 q 660 39 756 91 q 453 -14 563 -14 m 251 -379 l 379 -126 l 549 -126 l 359 -379 l 251 -379 z "},"t":{"ha":884,"x_min":91,"x_max":765,"o":"m 564 -11 q 377 48 443 -11 q 311 235 311 107 l 311 657 l 91 657 l 91 758 l 311 758 l 311 1010 l 418 1010 l 418 758 l 754 758 l 754 657 l 418 657 l 418 242 q 455 132 418 168 q 568 96 492 96 q 661 104 619 96 q 740 121 703 111 l 765 18 q 672 -3 720 5 q 564 -11 625 -11 z "},"ţ":{"ha":884,"x_min":91,"x_max":765,"o":"m 564 -11 q 377 48 443 -11 q 311 235 311 107 l 311 657 l 91 657 l 91 758 l 311 758 l 311 1010 l 418 1010 l 418 758 l 754 758 l 754 657 l 418 657 l 418 242 q 455 132 418 168 q 568 96 492 96 q 661 104 619 96 q 740 121 703 111 l 765 18 q 672 -3 720 5 q 564 -11 625 -11 m 490 0 l 515 53 q 611 5 563 43 q 659 -116 659 -33 q 606 -233 659 -196 q 487 -270 553 -270 q 361 -241 410 -270 q 307 -144 312 -212 l 403 -131 q 423 -165 405 -155 q 481 -174 441 -174 q 540 -158 520 -174 q 561 -98 561 -141 q 544 -32 561 -53 q 490 0 528 -10 z "},"ť":{"ha":884,"x_min":91,"x_max":814,"o":"m 564 -11 q 377 48 443 -11 q 311 235 311 107 l 311 657 l 91 657 l 91 758 l 311 758 l 311 1010 l 418 1010 l 418 758 l 754 758 l 754 657 l 418 657 l 418 242 q 455 132 418 168 q 568 96 492 96 q 661 104 619 96 q 740 121 703 111 l 765 18 q 672 -3 720 5 q 564 -11 625 -11 m 539 890 l 646 1263 l 814 1263 l 622 890 l 539 890 z "},"ț":{"ha":884,"x_min":91,"x_max":765,"o":"m 564 -11 q 377 48 443 -11 q 311 235 311 107 l 311 657 l 91 657 l 91 758 l 311 758 l 311 1010 l 418 1010 l 418 758 l 754 758 l 754 657 l 418 657 l 418 242 q 455 132 418 168 q 568 96 492 96 q 661 104 619 96 q 740 121 703 111 l 765 18 q 672 -3 720 5 q 564 -11 625 -11 m 273 -379 l 400 -126 l 571 -126 l 380 -379 l 273 -379 z "},"u":{"ha":884,"x_min":134,"x_max":750,"o":"m 384 -13 q 202 61 270 -13 q 134 253 134 135 l 134 758 l 241 758 l 241 269 q 280 136 241 178 q 402 93 318 93 q 522 126 463 93 q 643 231 581 159 l 643 758 l 750 758 l 750 0 l 643 0 l 643 124 l 605 124 q 520 27 580 66 q 384 -13 460 -13 z "},"ù":{"ha":884,"x_min":134,"x_max":750,"o":"m 384 -13 q 202 61 270 -13 q 134 253 134 135 l 134 758 l 241 758 l 241 269 q 280 136 241 178 q 402 93 318 93 q 522 126 463 93 q 643 231 581 159 l 643 758 l 750 758 l 750 0 l 643 0 l 643 124 l 605 124 q 520 27 580 66 q 384 -13 460 -13 m 402 884 l 160 1136 l 331 1136 l 509 884 l 402 884 z "},"ú":{"ha":884,"x_min":134,"x_max":750,"o":"m 384 -13 q 202 61 270 -13 q 134 253 134 135 l 134 758 l 241 758 l 241 269 q 280 136 241 178 q 402 93 318 93 q 522 126 463 93 q 643 231 581 159 l 643 758 l 750 758 l 750 0 l 643 0 l 643 124 l 605 124 q 520 27 580 66 q 384 -13 460 -13 m 351 884 l 529 1136 l 699 1136 l 458 884 l 351 884 z "},"û":{"ha":884,"x_min":134,"x_max":750,"o":"m 384 -13 q 202 61 270 -13 q 134 253 134 135 l 134 758 l 241 758 l 241 269 q 280 136 241 178 q 402 93 318 93 q 522 126 463 93 q 643 231 581 159 l 643 758 l 750 758 l 750 0 l 643 0 l 643 124 l 605 124 q 520 27 580 66 q 384 -13 460 -13 m 227 894 l 183 970 l 402 1155 l 477 1155 l 698 970 l 654 894 l 439 1043 l 227 894 z "},"ü":{"ha":884,"x_min":134,"x_max":750,"o":"m 384 -13 q 202 61 270 -13 q 134 253 134 135 l 134 758 l 241 758 l 241 269 q 280 136 241 178 q 402 93 318 93 q 522 126 463 93 q 643 231 581 159 l 643 758 l 750 758 l 750 0 l 643 0 l 643 124 l 605 124 q 520 27 580 66 q 384 -13 460 -13 m 298 902 q 243 915 264 902 q 222 968 222 929 l 222 976 q 243 1030 222 1015 q 298 1045 264 1045 q 353 1030 332 1045 q 374 976 374 1015 l 374 968 q 352 915 374 929 q 298 902 331 902 m 583 902 q 528 915 549 902 q 508 968 508 929 l 508 976 q 528 1030 508 1015 q 583 1045 549 1045 q 638 1030 617 1045 q 659 976 659 1015 l 659 968 q 638 915 659 929 q 583 902 616 902 z "},"ũ":{"ha":884,"x_min":134,"x_max":750,"o":"m 384 -13 q 202 61 270 -13 q 134 253 134 135 l 134 758 l 241 758 l 241 269 q 280 136 241 178 q 402 93 318 93 q 522 126 463 93 q 643 231 581 159 l 643 758 l 750 758 l 750 0 l 643 0 l 643 124 l 605 124 q 520 27 580 66 q 384 -13 460 -13 m 538 896 q 468 920 497 896 q 417 972 439 944 q 374 1023 394 1000 q 332 1047 354 1047 q 290 1023 308 1047 q 273 923 271 999 l 273 909 l 184 909 l 184 928 q 225 1082 184 1020 q 345 1144 266 1144 q 422 1121 391 1144 q 473 1069 452 1097 q 513 1018 495 1042 q 552 994 530 994 q 593 1018 576 994 q 611 1117 611 1042 l 611 1131 l 699 1131 l 699 1112 q 658 957 699 1018 q 538 896 617 896 z "},"ū":{"ha":884,"x_min":134,"x_max":750,"o":"m 384 -13 q 202 61 270 -13 q 134 253 134 135 l 134 758 l 241 758 l 241 269 q 280 136 241 178 q 402 93 318 93 q 522 126 463 93 q 643 231 581 159 l 643 758 l 750 758 l 750 0 l 643 0 l 643 124 l 605 124 q 520 27 580 66 q 384 -13 460 -13 m 194 961 l 194 1059 l 689 1059 l 689 961 l 194 961 z "},"ŭ":{"ha":884,"x_min":134,"x_max":750,"o":"m 384 -13 q 202 61 270 -13 q 134 253 134 135 l 134 758 l 241 758 l 241 269 q 280 136 241 178 q 402 93 318 93 q 522 126 463 93 q 643 231 581 159 l 643 758 l 750 758 l 750 0 l 643 0 l 643 124 l 605 124 q 520 27 580 66 q 384 -13 460 -13 m 441 875 q 241 932 326 875 q 154 1133 155 989 l 269 1133 q 313 1003 270 1042 q 441 965 356 965 q 568 1003 525 965 q 612 1133 611 1042 l 727 1133 q 641 932 726 989 q 441 875 556 875 z "},"ů":{"ha":884,"x_min":134,"x_max":750,"o":"m 384 -13 q 202 61 270 -13 q 134 253 134 135 l 134 758 l 241 758 l 241 269 q 280 136 241 178 q 402 93 318 93 q 522 126 463 93 q 643 231 581 159 l 643 758 l 750 758 l 750 0 l 643 0 l 643 124 l 605 124 q 520 27 580 66 q 384 -13 460 -13 m 441 867 q 301 912 354 867 q 247 1048 247 956 l 247 1088 q 301 1227 247 1182 q 441 1273 354 1273 q 581 1227 528 1273 q 634 1088 634 1182 l 634 1048 q 581 912 634 956 q 441 867 528 867 m 441 952 q 520 974 492 952 q 547 1048 547 996 l 547 1088 q 520 1164 547 1139 q 441 1188 492 1188 q 361 1164 388 1188 q 335 1088 335 1139 l 335 1048 q 361 974 335 996 q 441 952 388 952 z "},"ű":{"ha":884,"x_min":134,"x_max":784,"o":"m 384 -13 q 202 61 270 -13 q 134 253 134 135 l 134 758 l 241 758 l 241 269 q 280 136 241 178 q 402 93 318 93 q 522 126 463 93 q 643 231 581 159 l 643 758 l 750 758 l 750 0 l 643 0 l 643 124 l 605 124 q 520 27 580 66 q 384 -13 460 -13 m 544 884 l 617 1136 l 784 1136 l 629 884 l 544 884 m 254 884 l 326 1136 l 494 1136 l 337 884 l 254 884 z "},"ų":{"ha":884,"x_min":134,"x_max":864,"o":"m 742 -269 q 612 -229 667 -269 q 558 -121 558 -189 q 604 -18 558 -64 q 706 52 650 28 l 740 29 q 680 -30 697 3 q 663 -90 663 -63 q 687 -144 663 -125 q 751 -163 711 -163 q 809 -159 774 -163 q 864 -150 845 -155 l 864 -258 q 807 -266 843 -263 q 742 -269 770 -269 m 384 -13 q 202 61 270 -13 q 134 253 134 135 l 134 758 l 241 758 l 241 269 q 280 136 241 178 q 402 93 318 93 q 522 126 463 93 q 643 231 581 159 l 643 758 l 750 758 l 750 0 l 643 0 l 643 124 l 605 124 q 520 27 580 66 q 384 -13 460 -13 z "},"v":{"ha":884,"x_min":100,"x_max":784,"o":"m 508 0 l 376 0 l 100 758 l 222 758 l 442 88 l 664 758 l 784 758 l 508 0 z "},"w":{"ha":884,"x_min":56,"x_max":830,"o":"m 556 0 l 442 520 l 335 0 l 202 0 l 56 758 l 163 758 l 264 64 l 365 634 l 514 634 l 624 86 l 721 758 l 830 758 l 683 0 l 556 0 z "},"":{"ha":884,"x_min":56,"x_max":830,"o":"m 556 0 l 442 520 l 335 0 l 202 0 l 56 758 l 163 758 l 264 64 l 365 634 l 514 634 l 624 86 l 721 758 l 830 758 l 683 0 l 556 0 z "},"ŵ":{"ha":884,"x_min":56,"x_max":830,"o":"m 556 0 l 442 520 l 335 0 l 202 0 l 56 758 l 163 758 l 264 64 l 365 634 l 514 634 l 624 86 l 721 758 l 830 758 l 683 0 l 556 0 m 227 894 l 183 970 l 402 1155 l 477 1155 l 698 970 l 654 894 l 439 1043 l 227 894 z "},"ẁ":{"ha":884,"x_min":56,"x_max":830,"o":"m 556 0 l 442 520 l 335 0 l 202 0 l 56 758 l 163 758 l 264 64 l 365 634 l 514 634 l 624 86 l 721 758 l 830 758 l 683 0 l 556 0 m 447 884 l 206 1136 l 376 1136 l 554 884 l 447 884 z "},"ẃ":{"ha":884,"x_min":56,"x_max":830,"o":"m 556 0 l 442 520 l 335 0 l 202 0 l 56 758 l 163 758 l 264 64 l 365 634 l 514 634 l 624 86 l 721 758 l 830 758 l 683 0 l 556 0 m 293 884 l 471 1136 l 641 1136 l 400 884 l 293 884 z "},"ẅ":{"ha":884,"x_min":56,"x_max":830,"o":"m 556 0 l 442 520 l 335 0 l 202 0 l 56 758 l 163 758 l 264 64 l 365 634 l 514 634 l 624 86 l 721 758 l 830 758 l 683 0 l 556 0 m 298 902 q 243 915 264 902 q 222 968 222 929 l 222 976 q 243 1030 222 1015 q 298 1045 264 1045 q 353 1030 332 1045 q 374 976 374 1015 l 374 968 q 352 915 374 929 q 298 902 331 902 m 583 902 q 528 915 549 902 q 508 968 508 929 l 508 976 q 528 1030 508 1015 q 583 1045 549 1045 q 638 1030 617 1045 q 659 976 659 1015 l 659 968 q 638 915 659 929 q 583 902 616 902 z "},"x":{"ha":884,"x_min":116,"x_max":771,"o":"m 638 0 l 434 302 l 240 0 l 116 0 l 380 379 l 124 758 l 249 758 l 444 463 l 648 758 l 771 758 l 500 385 l 761 0 l 638 0 z "},"y":{"ha":884,"x_min":104,"x_max":780,"o":"m 213 -259 q 159 -255 186 -259 q 106 -245 133 -251 l 129 -145 q 185 -156 159 -153 q 234 -159 211 -159 q 336 -126 289 -159 q 407 -23 383 -92 l 412 -10 l 381 -10 l 104 758 l 222 758 l 446 88 l 664 758 l 780 758 l 495 -34 q 380 -204 452 -149 q 213 -259 308 -259 z "},"":{"ha":884,"x_min":104,"x_max":780,"o":"m 213 -259 q 159 -255 186 -259 q 106 -245 133 -251 l 129 -145 q 185 -156 159 -153 q 234 -159 211 -159 q 336 -126 289 -159 q 407 -23 383 -92 l 412 -10 l 381 -10 l 104 758 l 222 758 l 446 88 l 664 758 l 780 758 l 495 -34 q 380 -204 452 -149 q 213 -259 308 -259 z "},"ý":{"ha":884,"x_min":104,"x_max":780,"o":"m 213 -259 q 159 -255 186 -259 q 106 -245 133 -251 l 129 -145 q 185 -156 159 -153 q 234 -159 211 -159 q 336 -126 289 -159 q 407 -23 383 -92 l 412 -10 l 381 -10 l 104 758 l 222 758 l 446 88 l 664 758 l 780 758 l 495 -34 q 380 -204 452 -149 q 213 -259 308 -259 m 302 884 l 480 1136 l 650 1136 l 409 884 l 302 884 z "},"ÿ":{"ha":884,"x_min":104,"x_max":780,"o":"m 213 -259 q 159 -255 186 -259 q 106 -245 133 -251 l 129 -145 q 185 -156 159 -153 q 234 -159 211 -159 q 336 -126 289 -159 q 407 -23 383 -92 l 412 -10 l 381 -10 l 104 758 l 222 758 l 446 88 l 664 758 l 780 758 l 495 -34 q 380 -204 452 -149 q 213 -259 308 -259 m 299 902 q 244 915 265 902 q 223 968 223 929 l 223 976 q 244 1030 223 1015 q 299 1045 265 1045 q 354 1030 333 1045 q 375 976 375 1015 l 375 968 q 354 915 375 929 q 299 902 332 902 m 585 902 q 530 915 551 902 q 509 968 509 929 l 509 976 q 530 1030 509 1015 q 585 1045 551 1045 q 640 1030 619 1045 q 660 976 660 1015 l 660 968 q 639 915 660 929 q 585 902 617 902 z "},"ŷ":{"ha":884,"x_min":104,"x_max":780,"o":"m 213 -259 q 159 -255 186 -259 q 106 -245 133 -251 l 129 -145 q 185 -156 159 -153 q 234 -159 211 -159 q 336 -126 289 -159 q 407 -23 383 -92 l 412 -10 l 381 -10 l 104 758 l 222 758 l 446 88 l 664 758 l 780 758 l 495 -34 q 380 -204 452 -149 q 213 -259 308 -259 m 229 894 l 184 970 l 403 1155 l 479 1155 l 699 970 l 655 894 l 441 1043 l 229 894 z "},"ỳ":{"ha":884,"x_min":104,"x_max":780,"o":"m 213 -259 q 159 -255 186 -259 q 106 -245 133 -251 l 129 -145 q 185 -156 159 -153 q 234 -159 211 -159 q 336 -126 289 -159 q 407 -23 383 -92 l 412 -10 l 381 -10 l 104 758 l 222 758 l 446 88 l 664 758 l 780 758 l 495 -34 q 380 -204 452 -149 q 213 -259 308 -259 m 447 884 l 206 1136 l 376 1136 l 554 884 l 447 884 z "},"z":{"ha":884,"x_min":162,"x_max":723,"o":"m 723 0 l 162 0 l 162 101 l 583 657 l 162 657 l 162 758 l 723 758 l 723 657 l 301 101 l 723 101 l 723 0 z "},"ź":{"ha":884,"x_min":162,"x_max":723,"o":"m 723 0 l 162 0 l 162 101 l 583 657 l 162 657 l 162 758 l 723 758 l 723 657 l 301 101 l 723 101 l 723 0 m 293 884 l 471 1136 l 641 1136 l 400 884 l 293 884 z "},"ż":{"ha":884,"x_min":162,"x_max":723,"o":"m 723 0 l 162 0 l 162 101 l 583 657 l 162 657 l 162 758 l 723 758 l 723 657 l 301 101 l 723 101 l 723 0 m 444 902 q 372 915 400 902 q 345 968 345 929 l 345 976 q 372 1030 345 1015 q 444 1045 400 1045 q 516 1030 489 1045 q 544 976 544 1015 l 544 968 q 516 915 544 929 q 444 902 487 902 z "},"ž":{"ha":884,"x_min":162,"x_max":723,"o":"m 723 0 l 162 0 l 162 101 l 583 657 l 162 657 l 162 758 l 723 758 l 723 657 l 301 101 l 723 101 l 723 0 m 405 889 l 184 1074 l 229 1150 l 443 1001 l 655 1150 l 699 1074 l 481 889 l 405 889 z "},"ª":{"ha":884,"x_min":149,"x_max":744,"o":"m 366 501 q 458 525 417 501 q 533 602 500 548 l 533 665 l 357 665 q 276 648 308 665 q 244 586 244 630 q 271 523 244 544 q 366 501 299 501 m 345 415 q 208 455 266 415 q 149 581 149 494 q 202 699 149 655 q 323 744 255 744 l 533 744 l 533 818 q 501 904 533 869 q 400 939 468 939 q 297 920 332 939 q 242 831 263 902 l 163 857 q 235 979 179 936 q 396 1023 290 1023 q 559 975 492 1023 q 625 833 625 928 l 625 588 q 650 515 625 528 q 744 510 676 503 l 744 419 q 625 434 674 417 q 574 538 576 451 l 556 538 q 472 451 527 486 q 345 415 417 415 z "},"º":{"ha":884,"x_min":178,"x_max":705,"o":"m 442 415 q 250 472 322 415 q 178 646 178 529 l 178 784 q 250 963 178 904 q 442 1023 322 1023 q 633 963 562 1023 q 705 784 705 904 l 705 646 q 632 472 705 529 q 442 415 559 415 m 442 501 q 568 534 525 501 q 611 643 611 567 l 611 785 q 568 898 611 862 q 442 934 525 934 q 314 898 359 934 q 270 785 270 862 l 270 643 q 314 534 270 567 q 442 501 359 501 z "},"ß":{"ha":884,"x_min":66,"x_max":862,"o":"m 577 -8 q 419 23 494 -8 q 292 109 343 53 l 364 201 q 467 130 407 160 q 593 100 527 100 q 700 123 652 100 q 749 208 749 146 q 707 299 749 274 q 582 335 665 323 q 373 412 441 357 q 306 554 306 466 q 390 718 306 657 q 591 779 473 780 q 521 879 578 850 q 381 909 463 909 q 238 864 302 909 q 174 713 174 819 l 174 0 l 66 0 l 66 730 q 164 949 66 879 q 383 1020 261 1020 q 615 941 527 1020 q 703 737 703 862 l 703 687 q 497 663 578 687 q 417 563 417 639 q 470 482 417 505 q 619 447 524 460 q 803 372 744 428 q 862 217 862 316 q 775 44 862 95 q 577 -8 687 -8 z "},"æ":{"ha":884,"x_min":40,"x_max":846,"o":"m 846 179 q 785 33 835 80 q 628 -13 735 -13 q 504 15 556 -13 q 428 101 453 43 l 412 101 q 338 20 380 53 q 225 -13 295 -13 q 102 37 163 -13 q 40 205 40 87 q 98 359 40 303 q 232 415 157 415 l 395 415 l 395 530 q 362 641 395 598 q 268 683 330 683 q 188 660 212 683 q 143 558 164 638 l 56 588 q 124 722 72 673 q 283 770 177 770 q 376 750 333 770 q 444 688 418 730 q 514 750 472 730 q 610 770 556 770 q 781 710 717 770 q 845 521 845 649 l 845 359 l 484 359 l 484 223 q 515 105 484 140 q 612 69 547 69 q 706 93 681 69 q 742 186 732 117 l 846 179 m 484 527 l 484 432 l 740 432 l 740 514 q 708 645 740 604 q 611 687 676 687 q 516 647 549 687 q 484 527 484 607 m 395 176 l 395 342 l 266 342 q 176 313 212 342 q 140 211 140 284 q 164 109 140 146 q 245 72 187 72 q 328 100 292 72 q 395 176 364 129 z "},"ǽ":{"ha":884,"x_min":40,"x_max":846,"o":"m 846 179 q 785 33 835 80 q 628 -13 735 -13 q 504 15 556 -13 q 428 101 453 43 l 412 101 q 338 20 380 53 q 225 -13 295 -13 q 102 37 163 -13 q 40 205 40 87 q 98 359 40 303 q 232 415 157 415 l 395 415 l 395 530 q 362 641 395 598 q 268 683 330 683 q 188 660 212 683 q 143 558 164 638 l 56 588 q 124 722 72 673 q 283 770 177 770 q 376 750 333 770 q 444 688 418 730 q 514 750 472 730 q 610 770 556 770 q 781 710 717 770 q 845 521 845 649 l 845 359 l 484 359 l 484 223 q 515 105 484 140 q 612 69 547 69 q 706 93 681 69 q 742 186 732 117 l 846 179 m 484 527 l 484 432 l 740 432 l 740 514 q 708 645 740 604 q 611 687 676 687 q 516 647 549 687 q 484 527 484 607 m 395 176 l 395 342 l 266 342 q 176 313 212 342 q 140 211 140 284 q 164 109 140 146 q 245 72 187 72 q 328 100 292 72 q 395 176 364 129 m 359 884 l 537 1136 l 707 1136 l 466 884 l 359 884 z "},"ð":{"ha":884,"x_min":136,"x_max":831,"o":"m 442 -13 q 221 58 306 -13 q 136 275 136 129 l 136 371 q 217 561 136 491 q 424 631 297 631 q 554 604 504 631 q 625 538 605 576 l 653 538 q 629 684 648 620 q 574 798 610 749 l 326 684 l 326 780 l 510 865 q 410 921 467 896 q 282 965 354 946 l 295 1037 q 465 976 391 1010 q 590 899 538 942 l 831 1008 l 831 912 l 655 831 q 727 677 706 764 q 749 479 749 590 l 749 283 q 664 58 749 129 q 442 -13 580 -13 m 443 88 q 597 134 552 88 q 641 275 641 181 l 641 355 q 597 485 641 442 q 443 529 552 529 q 291 485 336 529 q 246 355 246 442 l 246 275 q 291 134 246 181 q 443 88 336 88 z "},"ø":{"ha":884,"x_min":129,"x_max":756,"o":"m 247 270 q 255 201 247 231 q 279 149 263 170 l 529 655 q 488 664 510 660 q 442 667 466 667 q 295 622 342 667 q 247 480 247 578 l 247 270 m 442 91 q 590 134 542 91 q 638 270 638 178 l 638 480 q 629 552 638 520 q 605 605 621 583 l 354 102 q 395 94 372 97 q 442 91 417 91 m 442 -13 q 375 -8 407 -13 q 316 5 343 -4 l 251 -126 l 129 -126 l 220 57 q 158 146 179 92 q 136 274 136 199 l 136 479 q 222 699 136 629 q 443 770 308 770 q 509 766 479 770 q 568 753 540 761 l 634 884 l 756 884 l 664 701 q 727 610 705 665 q 749 479 749 554 l 749 274 q 663 56 749 125 q 442 -13 577 -13 z "},"ǿ":{"ha":884,"x_min":129,"x_max":756,"o":"m 247 270 q 255 201 247 231 q 279 149 263 170 l 529 655 q 488 664 510 660 q 442 667 466 667 q 295 622 342 667 q 247 480 247 578 l 247 270 m 442 91 q 590 134 542 91 q 638 270 638 178 l 638 480 q 629 552 638 520 q 605 605 621 583 l 354 102 q 395 94 372 97 q 442 91 417 91 m 442 -13 q 375 -8 407 -13 q 316 5 343 -4 l 251 -126 l 129 -126 l 220 57 q 158 146 179 92 q 136 274 136 199 l 136 479 q 222 699 136 629 q 443 770 308 770 q 509 766 479 770 q 568 753 540 761 l 634 884 l 756 884 l 664 701 q 727 610 705 665 q 749 479 749 554 l 749 274 q 663 56 749 125 q 442 -13 577 -13 m 293 884 l 471 1136 l 641 1136 l 400 884 l 293 884 z "},"þ":{"ha":884,"x_min":134,"x_max":750,"o":"m 428 85 q 591 132 539 85 q 643 279 643 179 l 643 486 q 604 622 643 580 q 482 664 566 664 q 357 629 415 664 q 241 518 299 593 l 241 135 q 330 97 284 110 q 428 85 375 85 m 423 -14 q 330 -4 379 -14 q 241 23 280 6 l 241 -253 l 134 -253 l 134 1010 l 241 1010 l 241 634 l 279 634 q 371 733 312 696 q 499 770 431 770 q 682 691 615 770 q 750 475 750 611 l 750 277 q 662 64 750 143 q 423 -14 573 -14 z "},"đ":{"ha":884,"x_min":134,"x_max":876,"o":"m 403 93 q 527 129 468 93 q 643 240 585 164 l 643 564 q 558 602 604 590 q 457 615 513 615 q 295 568 346 615 q 244 420 244 520 l 244 288 q 282 140 244 187 q 403 93 319 93 m 605 124 q 511 23 572 59 q 385 -13 451 -13 q 203 66 271 -13 q 134 283 134 144 l 134 423 q 223 635 134 557 q 462 713 312 713 q 552 703 505 713 q 643 676 600 692 l 643 803 l 383 803 l 383 899 l 643 899 l 643 1010 l 750 1010 l 750 899 l 876 899 l 876 803 l 750 803 l 750 0 l 643 0 l 643 124 l 605 124 z "},"ħ":{"ha":884,"x_min":8,"x_max":750,"o":"m 241 468 l 241 0 l 134 0 l 134 803 l 8 803 l 8 899 l 134 899 l 134 1010 l 241 1010 l 241 899 l 501 899 l 501 803 l 241 803 l 241 576 l 279 576 q 369 676 307 639 q 511 712 432 712 q 686 650 622 712 q 750 482 750 588 l 750 0 l 643 0 l 643 460 q 604 570 643 534 q 482 606 564 606 q 362 573 420 606 q 241 468 303 539 z "},"ı":{"ha":884,"x_min":133,"x_max":753,"o":"m 133 0 l 133 101 l 389 101 l 389 657 l 133 657 l 133 758 l 496 758 l 496 101 l 753 101 l 753 0 l 133 0 z "},"ĳ":{"ha":884,"x_min":119,"x_max":793,"o":"m 220 902 q 146 915 174 902 q 119 968 119 929 l 119 976 q 146 1030 119 1015 q 220 1045 174 1045 q 293 1030 265 1045 q 321 976 321 1015 l 321 968 q 293 915 321 929 q 220 902 265 902 m 692 902 q 619 915 646 902 q 591 968 591 929 l 591 976 q 619 1030 591 1015 q 692 1045 646 1045 q 765 1030 737 1045 q 793 976 793 1015 l 793 968 q 765 915 793 929 q 692 902 736 902 m 274 0 l 163 0 l 163 758 l 274 758 l 274 0 m 476 -263 q 395 -256 434 -263 q 307 -235 355 -250 l 332 -121 q 407 -143 372 -136 q 476 -149 441 -149 q 593 -113 548 -149 q 639 6 639 -77 l 639 657 l 475 657 l 475 758 l 750 758 l 750 -9 q 670 -201 750 -140 q 476 -263 591 -263 z "},"ĸ":{"ha":884,"x_min":205,"x_max":768,"o":"m 312 352 l 312 0 l 205 0 l 205 758 l 312 758 l 312 446 l 379 446 l 629 758 l 768 758 l 461 403 l 764 0 l 638 0 l 379 352 l 312 352 z "},"ŀ":{"ha":884,"x_min":130,"x_max":939,"o":"m 130 0 l 130 101 l 385 101 l 385 909 l 130 909 l 130 1010 l 492 1010 l 492 101 l 749 101 l 749 0 l 130 0 m 840 389 q 768 403 795 389 q 740 456 740 417 l 740 463 q 768 518 740 503 q 840 533 795 533 q 912 518 884 533 q 939 463 939 503 l 939 456 q 911 403 939 417 q 840 389 883 389 z "},"ł":{"ha":884,"x_min":130,"x_max":749,"o":"m 130 0 l 130 101 l 385 101 l 385 451 l 197 399 l 197 490 l 385 542 l 385 909 l 130 909 l 130 1010 l 492 1010 l 492 571 l 693 626 l 693 535 l 492 480 l 492 101 l 749 101 l 749 0 l 130 0 z "},"ŉ":{"ha":884,"x_min":-14,"x_max":750,"o":"m 134 0 l 134 758 l 241 758 l 241 634 l 279 634 q 366 733 307 696 q 497 770 424 770 q 682 699 614 770 q 750 505 750 628 l 750 0 l 643 0 l 643 484 q 602 618 643 572 q 482 664 561 664 q 362 628 423 664 q 241 521 301 591 l 241 0 l 134 0 m -14 884 l 164 1136 l 335 1136 l 93 884 l -14 884 z "},"ŋ":{"ha":884,"x_min":134,"x_max":750,"o":"m 503 -263 q 427 -255 467 -263 q 345 -235 388 -247 l 370 -121 q 439 -141 405 -134 q 503 -149 473 -149 q 604 -113 564 -149 q 643 6 643 -77 l 643 513 q 604 626 643 588 q 482 664 564 664 q 362 629 420 664 q 241 521 303 593 l 241 0 l 134 0 l 134 758 l 241 758 l 241 634 l 279 634 q 367 732 306 694 q 510 770 429 770 q 686 707 621 770 q 750 540 750 644 l 750 -9 q 681 -199 750 -136 q 503 -263 611 -263 z "},"œ":{"ha":884,"x_min":37,"x_max":847,"o":"m 847 164 q 785 32 836 77 q 628 -13 735 -13 q 513 12 561 -13 q 439 87 465 37 q 363 12 409 37 q 258 -13 317 -13 q 97 61 158 -13 q 37 284 37 134 l 37 468 q 98 696 37 621 q 259 770 159 770 q 363 746 317 770 q 438 670 409 721 q 510 746 465 721 q 614 770 556 770 q 784 706 721 770 q 847 511 847 643 l 847 359 l 485 359 l 485 234 q 517 108 485 146 q 615 69 549 69 q 707 91 682 69 q 742 170 732 112 l 847 164 m 485 516 l 485 432 l 747 432 l 747 505 q 714 643 747 600 q 616 687 681 687 q 518 645 552 687 q 485 516 485 604 m 268 73 q 366 122 333 73 q 399 280 399 170 l 399 470 q 366 633 399 581 q 268 684 333 684 q 170 633 203 684 q 136 470 136 581 l 136 280 q 170 122 136 170 q 268 73 203 73 z "},"ŧ":{"ha":884,"x_min":91,"x_max":765,"o":"m 564 -11 q 377 48 443 -11 q 311 235 311 107 l 311 361 l 145 361 l 145 467 l 311 467 l 311 657 l 91 657 l 91 758 l 311 758 l 311 1010 l 418 1010 l 418 758 l 754 758 l 754 657 l 418 657 l 418 467 l 715 467 l 715 361 l 418 361 l 418 242 q 455 132 418 168 q 568 96 492 96 q 661 104 619 96 q 740 121 703 111 l 765 18 q 672 -3 720 5 q 564 -11 625 -11 z "},"ſ":{"ha":884,"x_min":237,"x_max":760,"o":"m 389 0 l 389 657 l 237 657 l 237 758 l 389 758 l 389 811 q 454 962 389 909 q 601 1015 519 1015 q 682 1004 636 1015 q 760 982 729 994 l 735 886 q 677 904 710 896 q 611 912 645 912 q 527 889 558 912 q 496 816 496 866 l 496 0 l 389 0 z "},"ȷ":{"ha":884,"x_min":138,"x_max":624,"o":"m 330 -263 q 237 -257 283 -263 q 138 -235 192 -251 l 163 -121 q 249 -143 210 -138 q 330 -149 289 -149 q 465 -113 413 -149 q 516 6 516 -77 l 516 657 l 157 657 l 157 758 l 624 758 l 624 -9 q 538 -201 624 -140 q 330 -263 452 -263 z "},"":{"ha":884,"x_min":138,"x_max":624,"o":"m 330 -263 q 237 -257 283 -263 q 138 -235 192 -251 l 163 -121 q 249 -143 210 -138 q 330 -149 289 -149 q 465 -113 413 -149 q 516 6 516 -77 l 516 657 l 157 657 l 157 758 l 624 758 l 624 -9 q 538 -201 624 -140 q 330 -263 452 -263 z "},"α":{"ha":884,"x_min":120,"x_max":846,"o":"m 375 93 q 496 130 442 93 q 607 240 549 167 l 607 518 q 496 628 549 591 q 376 664 442 664 q 265 616 301 664 q 230 470 230 567 l 230 289 q 266 143 230 193 q 375 93 303 93 m 622 134 l 585 134 q 490 26 549 64 q 354 -13 431 -13 q 184 64 247 -13 q 120 282 120 140 l 120 480 q 184 695 120 620 q 357 770 249 770 q 482 733 428 770 q 569 634 537 696 l 607 634 l 607 758 l 715 758 l 715 189 q 748 103 715 119 q 846 100 782 87 l 846 -6 q 687 13 746 -16 q 622 134 628 43 z "},"ά":{"ha":884,"x_min":120,"x_max":846,"o":"m 375 93 q 496 130 442 93 q 607 240 549 167 l 607 518 q 496 628 549 591 q 376 664 442 664 q 265 616 301 664 q 230 470 230 567 l 230 289 q 266 143 230 193 q 375 93 303 93 m 622 134 l 585 134 q 490 26 549 64 q 354 -13 431 -13 q 184 64 247 -13 q 120 282 120 140 l 120 480 q 184 695 120 620 q 357 770 249 770 q 482 733 428 770 q 569 634 537 696 l 607 634 l 607 758 l 715 758 l 715 189 q 748 103 715 119 q 846 100 782 87 l 846 -6 q 687 13 746 -16 q 622 134 628 43 m 412 884 l 514 1136 l 672 1136 l 506 884 l 412 884 z "},"β":{"ha":884,"x_min":134,"x_max":750,"o":"m 429 83 q 589 131 538 83 q 640 274 640 179 l 640 332 q 592 446 640 408 q 444 485 543 485 l 375 485 l 375 591 l 437 591 q 563 627 520 591 q 605 734 605 663 l 605 756 q 559 882 605 840 q 422 924 514 924 q 286 876 331 924 q 241 732 241 828 l 241 134 q 328 95 282 107 q 429 83 375 83 m 423 -13 q 326 -2 372 -13 q 241 25 279 9 l 241 -253 l 134 -253 l 134 723 q 218 953 134 883 q 422 1023 302 1023 q 626 958 542 1023 q 710 774 710 894 l 710 739 q 680 626 710 673 q 582 566 650 578 l 582 529 q 704 469 660 521 q 750 348 747 417 l 750 279 q 643 52 750 117 q 423 -13 537 -13 z "},"γ":{"ha":884,"x_min":104,"x_max":780,"o":"m 506 -253 l 378 -253 l 389 25 l 104 758 l 225 758 l 447 176 l 665 758 l 780 758 l 496 25 l 506 -253 z "},"δ":{"ha":884,"x_min":134,"x_max":750,"o":"m 442 -13 q 220 57 306 -13 q 134 274 134 126 l 134 390 q 179 524 134 463 q 308 621 225 585 q 203 697 235 653 q 172 807 172 741 q 239 961 172 912 q 438 1010 307 1010 l 668 1010 l 668 909 l 438 909 q 311 889 352 909 q 270 807 270 869 q 309 737 270 760 q 519 659 348 713 q 698 563 645 620 q 750 408 750 505 l 750 274 q 664 57 750 126 q 442 -13 578 -13 m 442 88 q 592 132 542 88 q 643 274 643 176 l 643 408 q 589 516 643 477 q 383 593 535 554 q 278 508 314 562 q 241 390 241 455 l 241 274 q 292 132 241 176 q 442 88 342 88 z "},"ε":{"ha":884,"x_min":106,"x_max":774,"o":"m 446 -13 q 189 43 273 -13 q 106 213 106 98 l 106 223 q 155 339 106 290 q 303 394 205 388 l 303 422 q 176 461 222 427 q 129 556 129 496 l 129 571 q 205 721 129 672 q 446 770 280 770 q 668 715 593 770 q 751 548 742 660 l 641 538 q 586 638 633 609 q 446 668 540 668 q 284 644 332 668 q 236 566 236 620 l 236 548 q 282 481 236 501 q 433 461 327 461 l 504 461 l 504 365 l 433 365 q 265 335 317 365 q 213 234 213 306 l 213 221 q 268 117 213 148 q 446 87 323 87 q 602 121 548 87 q 664 234 655 154 l 774 225 q 682 45 765 102 q 446 -13 598 -13 z "},"έ":{"ha":884,"x_min":106,"x_max":774,"o":"m 446 -13 q 189 43 273 -13 q 106 213 106 98 l 106 223 q 155 339 106 290 q 303 394 205 388 l 303 422 q 176 461 222 427 q 129 556 129 496 l 129 571 q 205 721 129 672 q 446 770 280 770 q 668 715 593 770 q 751 548 742 660 l 641 538 q 586 638 633 609 q 446 668 540 668 q 284 644 332 668 q 236 566 236 620 l 236 548 q 282 481 236 501 q 433 461 327 461 l 504 461 l 504 365 l 433 365 q 265 335 317 365 q 213 234 213 306 l 213 221 q 268 117 213 148 q 446 87 323 87 q 602 121 548 87 q 664 234 655 154 l 774 225 q 682 45 765 102 q 446 -13 598 -13 m 348 884 l 451 1136 l 609 1136 l 443 884 l 348 884 z "},"ζ":{"ha":884,"x_min":121,"x_max":804,"o":"m 520 -253 l 386 -253 l 386 -149 l 543 -149 q 617 -133 590 -149 q 645 -64 645 -116 q 617 3 645 -14 q 543 19 590 19 l 432 19 q 199 114 273 19 q 126 318 126 208 q 154 456 126 384 q 227 574 182 528 l 423 788 l 414 808 q 211 869 283 799 q 121 1025 139 938 l 231 1037 q 315 924 240 960 q 492 919 390 888 l 747 1035 l 804 910 l 606 845 l 323 530 q 258 437 283 490 q 234 321 234 384 q 282 177 234 232 q 432 122 330 122 l 535 122 q 692 78 634 122 q 750 -67 750 34 q 688 -205 750 -157 q 520 -253 626 -253 z "},"η":{"ha":884,"x_min":134,"x_max":750,"o":"m 643 -253 l 643 513 q 604 626 643 588 q 482 664 564 664 q 362 629 420 664 q 241 521 303 593 l 241 0 l 134 0 l 134 758 l 241 758 l 241 634 l 279 634 q 369 733 307 696 q 510 770 432 770 q 685 707 620 770 q 750 540 750 644 l 750 -253 l 643 -253 z "},"ή":{"ha":884,"x_min":134,"x_max":750,"o":"m 643 -253 l 643 513 q 604 626 643 588 q 482 664 564 664 q 362 629 420 664 q 241 521 303 593 l 241 0 l 134 0 l 134 758 l 241 758 l 241 634 l 279 634 q 369 733 307 696 q 510 770 432 770 q 685 707 620 770 q 750 540 750 644 l 750 -253 l 643 -253 m 337 884 l 439 1136 l 597 1136 l 432 884 l 337 884 z "},"θ":{"ha":884,"x_min":134,"x_max":750,"o":"m 442 -13 q 219 56 304 -13 q 134 274 134 125 l 134 731 q 220 952 134 881 q 443 1023 307 1023 q 665 952 581 1023 q 750 731 750 881 l 750 274 q 665 56 750 125 q 442 -13 580 -13 m 244 732 l 244 564 l 641 564 l 641 732 q 592 876 641 830 q 442 922 542 922 q 293 876 342 922 q 244 732 244 830 m 442 88 q 592 134 542 88 q 641 270 641 179 l 641 458 l 244 458 l 244 270 q 293 134 244 179 q 442 88 342 88 z "},"ι":{"ha":884,"x_min":104,"x_max":777,"o":"m 629 -5 q 455 60 518 -5 q 393 244 393 125 l 393 657 l 104 657 l 104 758 l 500 758 l 500 232 q 531 129 500 164 q 626 95 562 95 q 690 102 652 95 q 753 119 729 109 l 777 21 q 711 2 750 9 q 629 -5 672 -5 z "},"ΐ":{"ha":884,"x_min":104,"x_max":777,"o":"m 629 -5 q 455 60 518 -5 q 393 244 393 125 l 393 657 l 104 657 l 104 758 l 500 758 l 500 232 q 531 129 500 164 q 626 95 562 95 q 690 102 652 95 q 753 119 729 109 l 777 21 q 711 2 750 9 q 629 -5 672 -5 m 354 884 l 412 1136 l 553 1136 l 420 884 l 354 884 m 217 886 q 172 900 189 886 q 154 953 154 914 l 154 961 q 172 1015 154 1000 q 217 1030 189 1030 q 263 1015 245 1030 q 282 961 282 1000 l 282 953 q 263 900 282 914 q 217 886 245 886 m 641 886 q 595 900 612 886 q 577 953 577 914 l 577 961 q 595 1015 577 1000 q 641 1030 612 1030 q 687 1015 669 1030 q 705 961 705 1000 l 705 953 q 687 900 705 914 q 641 886 669 886 z "},"ί":{"ha":884,"x_min":104,"x_max":777,"o":"m 629 -5 q 455 60 518 -5 q 393 244 393 125 l 393 657 l 104 657 l 104 758 l 500 758 l 500 232 q 531 129 500 164 q 626 95 562 95 q 690 102 652 95 q 753 119 729 109 l 777 21 q 711 2 750 9 q 629 -5 672 -5 m 345 884 l 447 1136 l 605 1136 l 439 884 l 345 884 z "},"ϊ":{"ha":884,"x_min":104,"x_max":777,"o":"m 629 -5 q 455 60 518 -5 q 393 244 393 125 l 393 657 l 104 657 l 104 758 l 500 758 l 500 232 q 531 129 500 164 q 626 95 562 95 q 690 102 652 95 q 753 119 729 109 l 777 21 q 711 2 750 9 q 629 -5 672 -5 m 293 902 q 238 915 259 902 q 217 968 217 929 l 217 976 q 238 1030 217 1015 q 293 1045 259 1045 q 348 1030 327 1045 q 369 976 369 1015 l 369 968 q 347 915 369 929 q 293 902 326 902 m 578 902 q 523 915 544 902 q 503 968 503 929 l 503 976 q 523 1030 503 1015 q 578 1045 544 1045 q 633 1030 612 1045 q 654 976 654 1015 l 654 968 q 633 915 654 929 q 578 902 611 902 z "},"κ":{"ha":884,"x_min":205,"x_max":768,"o":"m 312 352 l 312 0 l 205 0 l 205 758 l 312 758 l 312 446 l 379 446 l 629 758 l 768 758 l 461 403 l 764 0 l 638 0 l 379 352 l 312 352 z "},"λ":{"ha":884,"x_min":102,"x_max":780,"o":"m 659 0 l 441 665 l 220 0 l 104 0 l 385 780 l 402 780 l 393 807 q 342 886 376 855 q 240 918 308 918 q 187 914 216 918 q 124 902 158 910 l 102 1003 q 163 1013 133 1010 q 221 1016 193 1016 q 371 979 301 1016 q 475 852 441 941 l 780 0 l 659 0 z "},"μ":{"ha":884,"x_min":120,"x_max":832,"o":"m 240 25 l 253 -253 l 120 -253 l 133 25 l 133 758 l 240 758 l 240 240 q 286 126 240 160 q 400 92 332 92 q 505 120 460 92 q 591 194 551 148 l 591 758 l 698 758 l 698 189 q 732 103 698 119 q 832 100 766 87 l 832 -6 q 689 16 739 -19 q 639 131 640 52 l 615 131 q 523 31 582 74 q 378 -13 465 -13 q 302 4 338 -13 q 240 52 266 20 l 240 25 z "},"ν":{"ha":884,"x_min":104,"x_max":780,"o":"m 499 0 l 385 0 l 104 758 l 217 758 l 456 66 q 605 415 551 239 q 676 758 660 591 l 780 758 q 679 354 756 544 q 499 0 602 163 z "},"ξ":{"ha":884,"x_min":47,"x_max":779,"o":"m 779 -67 q 716 -205 779 -157 q 551 -253 653 -253 l 414 -253 l 414 -149 l 573 -149 q 647 -133 620 -149 q 674 -64 674 -116 q 647 3 674 -14 q 573 19 620 19 l 436 19 q 215 83 297 19 q 133 256 133 148 l 133 293 q 188 431 133 371 q 356 499 244 490 l 356 528 q 246 566 284 528 q 208 664 208 605 q 230 748 208 711 q 304 808 253 785 l 304 837 q 128 895 191 845 q 47 1025 64 944 l 157 1037 q 254 952 165 982 q 451 934 343 922 l 705 1035 l 761 910 l 490 837 l 414 794 q 338 732 361 764 q 316 664 316 701 q 345 586 316 609 q 420 563 375 563 l 665 563 l 665 460 l 426 460 q 283 417 327 460 q 240 312 240 374 l 240 275 q 283 165 240 207 q 424 122 327 122 l 567 122 q 721 78 663 122 q 779 -67 779 34 z "},"ο":{"ha":884,"x_min":134,"x_max":750,"o":"m 442 -13 q 213 61 292 -13 q 134 274 134 135 l 134 479 q 213 695 134 620 q 443 770 293 770 q 671 695 592 770 q 750 480 750 620 l 750 275 q 671 61 750 135 q 442 -13 592 -13 m 442 88 q 593 134 544 88 q 643 271 643 179 l 643 481 q 593 622 643 576 q 442 669 544 669 q 290 622 340 669 q 241 480 241 576 l 241 270 q 290 134 241 179 q 442 88 340 88 z "},"ό":{"ha":884,"x_min":134,"x_max":750,"o":"m 442 -13 q 213 61 292 -13 q 134 274 134 135 l 134 479 q 213 695 134 620 q 443 770 293 770 q 671 695 592 770 q 750 480 750 620 l 750 275 q 671 61 750 135 q 442 -13 592 -13 m 442 88 q 593 134 544 88 q 643 271 643 179 l 643 481 q 593 622 643 576 q 442 669 544 669 q 290 622 340 669 q 241 480 241 576 l 241 270 q 290 134 241 179 q 442 88 340 88 m 352 884 l 455 1136 l 612 1136 l 447 884 l 352 884 z "},"π":{"ha":884,"x_min":57,"x_max":792,"o":"m 792 758 l 792 657 l 633 657 l 633 189 q 664 106 633 125 q 788 100 696 87 l 788 -6 q 587 20 653 -15 q 521 136 521 54 l 521 657 l 299 657 l 299 0 l 188 0 l 188 657 l 57 657 l 57 758 l 792 758 z "},"ρ":{"ha":884,"x_min":134,"x_max":750,"o":"m 482 93 q 603 141 563 93 q 643 288 643 189 l 643 479 q 593 622 643 573 q 441 670 543 670 q 290 622 340 670 q 241 479 241 573 l 241 240 q 358 129 298 165 q 482 93 418 93 m 134 -253 l 134 479 q 222 699 134 628 q 444 771 309 771 q 665 699 580 771 q 750 479 750 628 l 750 280 q 682 63 750 139 q 505 -13 615 -13 q 372 23 431 -13 q 279 124 314 59 l 241 124 l 241 -253 l 134 -253 z "},"ς":{"ha":884,"x_min":134,"x_max":756,"o":"m 394 -253 l 394 -152 l 551 -152 q 625 -134 597 -152 q 653 -66 653 -117 q 625 2 653 -15 q 551 19 597 19 l 443 19 q 204 95 274 19 q 134 318 134 172 l 134 476 q 205 695 134 620 q 446 770 277 770 q 662 705 592 770 q 739 500 731 640 l 640 495 q 588 628 635 586 q 446 669 542 669 q 290 626 340 669 q 241 489 241 583 l 241 301 q 287 163 241 206 q 433 120 333 120 l 539 120 q 698 76 640 120 q 756 -68 756 33 q 696 -206 756 -159 q 533 -253 635 -253 l 394 -253 z "},"σ":{"ha":884,"x_min":134,"x_max":884,"o":"m 417 88 q 548 131 504 88 q 592 273 592 174 l 592 432 q 548 600 592 547 q 417 654 504 654 q 285 607 330 654 q 241 462 241 561 l 241 273 q 285 131 241 174 q 417 88 330 88 m 417 -13 q 213 56 292 -13 q 134 274 134 125 l 134 463 q 213 682 134 606 q 418 758 293 758 l 884 758 l 884 644 l 597 668 q 673 581 646 636 q 699 446 699 525 l 699 274 q 621 56 699 125 q 417 -13 542 -13 z "},"τ":{"ha":884,"x_min":136,"x_max":761,"o":"m 648 -6 q 448 17 506 -15 q 389 136 389 49 l 389 659 l 136 659 l 136 758 l 761 758 l 761 659 l 496 659 l 496 189 q 528 109 496 128 q 648 100 559 90 l 648 -6 z "},"υ":{"ha":884,"x_min":134,"x_max":750,"o":"m 442 -13 q 213 59 292 -13 q 134 265 134 130 l 134 758 l 241 758 l 241 264 q 288 128 241 169 q 442 86 335 86 q 596 128 549 86 q 643 264 643 169 l 643 758 l 750 758 l 750 265 q 671 59 750 130 q 442 -13 592 -13 z "},"ΰ":{"ha":884,"x_min":134,"x_max":750,"o":"m 442 -13 q 213 59 292 -13 q 134 265 134 130 l 134 758 l 241 758 l 241 264 q 288 128 241 169 q 442 86 335 86 q 596 128 549 86 q 643 264 643 169 l 643 758 l 750 758 l 750 265 q 671 59 750 130 q 442 -13 592 -13 m 366 884 l 424 1136 l 566 1136 l 433 884 l 366 884 m 230 886 q 184 900 202 886 q 167 953 167 914 l 167 961 q 184 1015 167 1000 q 230 1030 202 1030 q 276 1015 258 1030 q 294 961 294 1000 l 294 953 q 276 900 294 914 q 230 886 258 886 m 654 886 q 607 900 625 886 q 590 953 590 914 l 590 961 q 607 1015 590 1000 q 654 1030 625 1030 q 699 1015 682 1030 q 717 961 717 1000 l 717 953 q 699 900 717 914 q 654 886 682 886 z "},"ϋ":{"ha":884,"x_min":134,"x_max":750,"o":"m 442 -13 q 213 59 292 -13 q 134 265 134 130 l 134 758 l 241 758 l 241 264 q 288 128 241 169 q 442 86 335 86 q 596 128 549 86 q 643 264 643 169 l 643 758 l 750 758 l 750 265 q 671 59 750 130 q 442 -13 592 -13 m 299 902 q 244 915 265 902 q 223 968 223 929 l 223 976 q 244 1030 223 1015 q 299 1045 265 1045 q 354 1030 333 1045 q 375 976 375 1015 l 375 968 q 354 915 375 929 q 299 902 332 902 m 585 902 q 530 915 551 902 q 509 968 509 929 l 509 976 q 530 1030 509 1015 q 585 1045 551 1045 q 640 1030 619 1045 q 660 976 660 1015 l 660 968 q 639 915 660 929 q 585 902 617 902 z "},"ύ":{"ha":884,"x_min":134,"x_max":750,"o":"m 442 -13 q 213 59 292 -13 q 134 265 134 130 l 134 758 l 241 758 l 241 264 q 288 128 241 169 q 442 86 335 86 q 596 128 549 86 q 643 264 643 169 l 643 758 l 750 758 l 750 265 q 671 59 750 130 q 442 -13 592 -13 m 355 884 l 457 1136 l 615 1136 l 449 884 l 355 884 z "},"φ":{"ha":884,"x_min":80,"x_max":804,"o":"m 494 -253 l 390 -253 l 390 -11 q 165 80 251 0 q 80 307 80 160 l 80 436 q 107 628 80 542 q 177 782 134 715 l 273 741 q 210 606 237 683 q 183 436 183 529 l 183 307 q 235 147 183 206 q 386 76 287 88 l 386 758 l 508 758 q 722 673 640 758 q 804 405 804 588 l 804 319 q 718 85 804 168 q 494 -11 633 1 l 494 -253 m 497 672 l 497 77 q 646 152 596 90 q 697 319 697 213 l 697 405 q 646 608 697 544 q 497 672 596 672 z "},"χ":{"ha":884,"x_min":119,"x_max":766,"o":"m 630 -253 l 429 167 l 222 -253 l 119 -253 l 388 247 l 140 758 l 246 758 l 449 333 l 663 758 l 766 758 l 492 253 l 739 -253 l 630 -253 z "},"ψ":{"ha":884,"x_min":80,"x_max":804,"o":"m 494 -253 l 390 -253 l 390 -9 q 154 85 229 4 q 80 294 80 167 l 80 758 l 183 758 l 183 287 q 232 147 183 194 q 389 92 282 100 l 389 758 l 495 758 l 495 92 q 652 147 602 100 q 701 287 701 194 l 701 758 l 804 758 l 804 294 q 730 85 804 167 q 494 -9 655 4 l 494 -253 z "},"ω":{"ha":884,"x_min":80,"x_max":804,"o":"m 270 -13 q 133 62 186 -13 q 80 279 80 136 l 80 400 q 105 626 80 518 q 162 779 130 735 l 259 739 q 210 609 237 707 q 183 400 183 511 l 183 279 q 209 134 183 183 q 289 86 235 86 q 364 122 340 86 q 389 244 389 159 l 389 586 l 495 586 l 495 244 q 520 122 495 159 q 595 86 544 86 q 674 134 648 86 q 701 279 701 183 l 701 400 q 674 609 701 511 q 625 739 646 707 l 722 779 q 779 626 754 735 q 804 400 804 518 l 804 279 q 751 62 804 136 q 615 -13 698 -13 q 513 25 559 -13 q 448 148 467 62 l 437 148 q 371 25 417 62 q 270 -13 324 -13 z "},"ώ":{"ha":884,"x_min":80,"x_max":804,"o":"m 270 -13 q 133 62 186 -13 q 80 279 80 136 l 80 400 q 105 626 80 518 q 162 779 130 735 l 259 739 q 210 609 237 707 q 183 400 183 511 l 183 279 q 209 134 183 183 q 289 86 235 86 q 364 122 340 86 q 389 244 389 159 l 389 586 l 495 586 l 495 244 q 520 122 495 159 q 595 86 544 86 q 674 134 648 86 q 701 279 701 183 l 701 400 q 674 609 701 511 q 625 739 646 707 l 722 779 q 779 626 754 735 q 804 400 804 518 l 804 279 q 751 62 804 136 q 615 -13 698 -13 q 513 25 559 -13 q 448 148 467 62 l 437 148 q 371 25 417 62 q 270 -13 324 -13 m 366 884 l 468 1136 l 626 1136 l 461 884 l 366 884 z "},"а":{"ha":884,"x_min":95,"x_max":845,"o":"m 350 87 q 478 114 419 87 q 578 206 537 140 l 578 327 l 340 327 q 244 301 282 327 q 206 211 206 275 q 238 120 206 153 q 350 87 270 87 m 341 -13 q 171 37 247 -13 q 95 202 95 87 q 158 358 95 301 q 302 415 221 415 l 578 415 l 578 528 q 536 629 578 590 q 407 668 494 668 q 277 643 319 668 q 207 528 234 617 l 110 558 q 206 715 130 660 q 403 770 282 770 q 604 716 520 770 q 687 545 687 662 l 687 194 q 726 104 687 122 q 845 100 765 86 l 845 -6 q 701 6 770 -15 q 628 129 631 28 l 605 129 q 499 28 569 68 q 341 -13 428 -13 z "},"б":{"ha":884,"x_min":134,"x_max":750,"o":"m 442 -13 q 220 56 307 -13 q 134 278 134 124 l 134 674 q 222 884 134 817 q 432 976 309 952 l 696 1028 l 715 936 l 448 885 q 283 810 338 865 q 229 630 227 755 l 229 596 l 258 596 q 328 655 275 628 q 476 682 381 682 q 682 610 615 682 q 750 417 750 538 l 750 275 q 664 58 750 129 q 442 -13 577 -13 m 441 88 q 595 134 551 88 q 640 275 640 181 l 640 405 q 595 536 640 492 q 441 580 551 580 q 287 536 332 580 q 241 405 241 492 l 241 275 q 287 134 241 181 q 441 88 332 88 z "},"в":{"ha":884,"x_min":134,"x_max":774,"o":"m 134 0 l 134 758 l 436 758 q 674 709 597 758 q 751 562 751 660 l 751 547 q 705 453 751 487 q 577 414 658 419 l 577 386 q 725 335 676 380 q 774 225 774 289 l 774 215 q 689 52 774 105 q 436 0 605 0 l 134 0 m 244 446 l 446 446 q 601 465 559 446 q 643 537 643 485 l 643 554 q 598 634 643 612 q 433 655 553 655 l 244 655 l 244 446 m 244 100 l 433 100 q 616 124 566 100 q 665 220 665 149 l 665 232 q 618 325 665 301 q 446 350 571 350 l 244 350 l 244 100 z "},"г":{"ha":884,"x_min":199,"x_max":769,"o":"m 199 0 l 199 758 l 769 758 l 769 659 l 307 659 l 307 0 l 199 0 z "},"ѓ":{"ha":884,"x_min":199,"x_max":769,"o":"m 199 0 l 199 758 l 769 758 l 769 659 l 307 659 l 307 0 l 199 0 m 410 884 l 588 1136 l 759 1136 l 518 884 l 410 884 z "},"д":{"ha":884,"x_min":54,"x_max":830,"o":"m 279 131 l 279 98 l 588 98 l 588 659 l 333 659 l 330 307 q 318 207 328 251 q 279 131 307 163 m 165 0 l 165 -189 l 54 -189 l 54 98 l 148 98 q 203 179 184 126 q 223 314 222 231 l 227 758 l 699 758 l 699 98 l 830 98 l 830 -189 l 718 -189 l 718 0 l 165 0 z "},"е":{"ha":884,"x_min":134,"x_max":750,"o":"m 750 164 q 651 30 718 72 q 443 -13 583 -13 q 214 60 294 -13 q 134 275 134 133 l 134 479 q 220 698 134 626 q 443 770 307 770 q 665 697 581 770 q 750 468 750 624 l 750 359 l 241 359 l 241 277 q 291 129 241 173 q 441 85 341 85 q 579 112 538 85 q 640 196 620 139 l 750 164 m 241 473 l 241 447 l 643 447 l 643 462 q 592 622 643 572 q 442 672 540 672 q 292 623 343 672 q 241 473 241 574 z "},"ѐ":{"ha":884,"x_min":134,"x_max":750,"o":"m 750 164 q 651 30 718 72 q 443 -13 583 -13 q 214 60 294 -13 q 134 275 134 133 l 134 479 q 220 698 134 626 q 443 770 307 770 q 665 697 581 770 q 750 468 750 624 l 750 359 l 241 359 l 241 277 q 291 129 241 173 q 441 85 341 85 q 579 112 538 85 q 640 196 620 139 l 750 164 m 241 473 l 241 447 l 643 447 l 643 462 q 592 622 643 572 q 442 672 540 672 q 292 623 343 672 q 241 473 241 574 m 447 884 l 206 1136 l 376 1136 l 554 884 l 447 884 z "},"ё":{"ha":884,"x_min":134,"x_max":750,"o":"m 750 164 q 651 30 718 72 q 443 -13 583 -13 q 214 60 294 -13 q 134 275 134 133 l 134 479 q 220 698 134 626 q 443 770 307 770 q 665 697 581 770 q 750 468 750 624 l 750 359 l 241 359 l 241 277 q 291 129 241 173 q 441 85 341 85 q 579 112 538 85 q 640 196 620 139 l 750 164 m 241 473 l 241 447 l 643 447 l 643 462 q 592 622 643 572 q 442 672 540 672 q 292 623 343 672 q 241 473 241 574 m 301 902 q 246 915 266 902 q 225 968 225 929 l 225 976 q 246 1030 225 1015 q 301 1045 266 1045 q 355 1030 335 1045 q 376 976 376 1015 l 376 968 q 355 915 376 929 q 301 902 333 902 m 586 902 q 531 915 552 902 q 510 968 510 929 l 510 976 q 531 1030 510 1015 q 586 1045 552 1045 q 641 1030 620 1045 q 662 976 662 1015 l 662 968 q 640 915 662 929 q 586 902 619 902 z "},"ж":{"ha":884,"x_min":37,"x_max":847,"o":"m 354 369 l 159 0 l 40 0 l 270 414 l 37 758 l 155 758 l 350 460 l 390 460 l 390 758 l 494 758 l 494 460 l 534 460 l 731 758 l 847 758 l 612 415 l 843 0 l 726 0 l 532 369 l 494 369 l 494 0 l 390 0 l 390 369 l 354 369 z "},"з":{"ha":884,"x_min":106,"x_max":774,"o":"m 436 -13 q 192 42 268 -13 q 106 225 116 97 l 216 234 q 276 119 226 148 q 436 90 326 90 q 614 115 562 90 q 667 221 667 140 l 667 234 q 616 339 667 313 q 447 365 566 365 l 375 365 l 375 461 l 447 461 q 599 479 554 461 q 644 548 644 496 l 644 566 q 597 648 644 628 q 436 668 549 668 q 293 642 338 668 q 239 538 247 616 l 129 548 q 208 720 138 669 q 436 770 279 770 q 665 725 578 770 q 751 571 751 679 l 751 556 q 705 461 751 496 q 577 422 658 427 l 577 394 q 725 339 676 388 q 774 223 774 290 l 774 213 q 699 47 774 107 q 436 -13 624 -13 z "},"и":{"ha":884,"x_min":134,"x_max":750,"o":"m 644 0 l 644 631 l 289 0 l 134 0 l 134 758 l 240 758 l 240 120 l 601 758 l 750 758 l 750 0 l 644 0 z "},"й":{"ha":884,"x_min":134,"x_max":750,"o":"m 644 0 l 644 631 l 289 0 l 134 0 l 134 758 l 240 758 l 240 120 l 601 758 l 750 758 l 750 0 l 644 0 m 442 875 q 259 930 333 875 q 183 1120 186 985 l 297 1133 q 330 1003 299 1042 q 442 965 361 965 q 554 1003 523 965 q 587 1133 585 1042 l 701 1120 q 624 930 698 985 q 442 875 551 875 z "},"ѝ":{"ha":884,"x_min":134,"x_max":750,"o":"m 644 0 l 644 631 l 289 0 l 134 0 l 134 758 l 240 758 l 240 120 l 601 758 l 750 758 l 750 0 l 644 0 m 443 884 l 202 1136 l 372 1136 l 551 884 l 443 884 z "},"к":{"ha":884,"x_min":205,"x_max":768,"o":"m 312 352 l 312 0 l 205 0 l 205 758 l 312 758 l 312 446 l 379 446 l 629 758 l 768 758 l 461 403 l 764 0 l 638 0 l 379 352 l 312 352 z "},"ќ":{"ha":884,"x_min":205,"x_max":768,"o":"m 312 352 l 312 0 l 205 0 l 205 758 l 312 758 l 312 446 l 379 446 l 629 758 l 768 758 l 461 403 l 764 0 l 638 0 l 379 352 l 312 352 m 381 884 l 559 1136 l 730 1136 l 489 884 l 381 884 z "},"л":{"ha":884,"x_min":39,"x_max":749,"o":"m 641 0 l 641 657 l 346 657 l 341 299 q 281 62 340 136 q 124 -11 222 -11 q 78 -7 100 -11 q 39 3 56 -3 l 59 100 q 96 89 83 91 q 117 87 109 87 q 211 138 186 87 q 237 316 236 188 l 241 758 l 749 758 l 749 0 l 641 0 z "},"м":{"ha":884,"x_min":121,"x_max":763,"o":"m 376 189 l 223 679 l 220 0 l 121 0 l 121 758 l 312 758 l 446 289 l 580 758 l 763 758 l 763 0 l 664 0 l 658 676 l 506 189 l 376 189 z "},"н":{"ha":884,"x_min":134,"x_max":750,"o":"m 134 0 l 134 758 l 241 758 l 241 490 l 643 490 l 643 758 l 750 758 l 750 0 l 643 0 l 643 391 l 241 391 l 241 0 l 134 0 z "},"о":{"ha":884,"x_min":134,"x_max":750,"o":"m 442 -13 q 213 61 292 -13 q 134 274 134 135 l 134 479 q 213 695 134 620 q 443 770 293 770 q 671 695 592 770 q 750 480 750 620 l 750 275 q 671 61 750 135 q 442 -13 592 -13 m 442 88 q 593 134 544 88 q 643 271 643 179 l 643 481 q 593 622 643 576 q 442 669 544 669 q 290 622 340 669 q 241 480 241 576 l 241 270 q 290 134 241 179 q 442 88 340 88 z "},"п":{"ha":884,"x_min":134,"x_max":750,"o":"m 134 0 l 134 758 l 750 758 l 750 0 l 643 0 l 643 659 l 241 659 l 241 0 l 134 0 z "},"р":{"ha":884,"x_min":134,"x_max":750,"o":"m 428 85 q 592 131 542 85 q 643 279 643 177 l 643 486 q 605 622 643 581 q 482 664 567 664 q 357 629 414 664 q 241 518 299 595 l 241 135 q 326 97 280 110 q 428 85 371 85 m 423 -14 q 332 -4 380 -14 q 241 23 284 6 l 241 -253 l 134 -253 l 134 758 l 241 758 l 241 634 l 279 634 q 371 734 312 697 q 499 770 431 770 q 683 691 616 770 q 750 475 750 611 l 750 277 q 662 64 750 141 q 423 -14 574 -14 z "},"с":{"ha":884,"x_min":134,"x_max":766,"o":"m 461 -13 q 217 59 299 -13 q 134 271 134 131 l 134 479 q 216 697 134 624 q 460 770 298 770 q 679 706 601 770 q 766 515 758 643 l 660 510 q 605 629 655 590 q 460 669 556 669 q 295 623 350 669 q 241 482 241 577 l 241 269 q 296 133 241 178 q 462 88 351 88 q 607 122 557 88 q 660 222 657 155 l 766 217 q 679 45 758 104 q 461 -13 600 -13 z "},"т":{"ha":884,"x_min":92,"x_max":792,"o":"m 389 0 l 389 659 l 92 659 l 92 758 l 792 758 l 792 659 l 496 659 l 496 0 l 389 0 z "},"у":{"ha":884,"x_min":104,"x_max":780,"o":"m 213 -259 q 159 -255 186 -259 q 106 -245 133 -251 l 129 -145 q 185 -156 159 -153 q 234 -159 211 -159 q 336 -126 289 -159 q 407 -23 383 -92 l 412 -10 l 381 -10 l 104 758 l 222 758 l 446 88 l 664 758 l 780 758 l 495 -34 q 380 -204 452 -149 q 213 -259 308 -259 z "},"ў":{"ha":884,"x_min":104,"x_max":780,"o":"m 213 -259 q 159 -255 186 -259 q 106 -245 133 -251 l 129 -145 q 185 -156 159 -153 q 234 -159 211 -159 q 336 -126 289 -159 q 407 -23 383 -92 l 412 -10 l 381 -10 l 104 758 l 222 758 l 446 88 l 664 758 l 780 758 l 495 -34 q 380 -204 452 -149 q 213 -259 308 -259 m 442 875 q 259 930 333 875 q 183 1120 186 985 l 297 1133 q 330 1003 299 1042 q 442 965 361 965 q 554 1003 523 965 q 587 1133 585 1042 l 701 1120 q 624 930 698 985 q 442 875 551 875 z "},"ф":{"ha":884,"x_min":80,"x_max":804,"o":"m 537 0 l 494 0 l 494 -253 l 390 -253 l 390 0 l 347 0 q 151 83 222 0 q 80 312 80 165 l 80 446 q 151 675 80 592 q 347 758 222 758 l 390 758 l 390 1010 l 494 1010 l 494 758 l 537 758 q 733 675 662 758 q 804 446 804 592 l 804 312 q 733 83 804 165 q 537 0 662 0 m 361 98 l 395 98 l 395 659 l 361 659 q 228 603 271 659 q 184 441 184 547 l 184 314 q 228 153 184 208 q 361 98 271 98 m 523 659 l 489 659 l 489 98 l 523 98 q 656 153 612 98 q 699 314 699 208 l 699 441 q 656 603 699 547 q 523 659 612 659 z "},"х":{"ha":884,"x_min":116,"x_max":771,"o":"m 638 0 l 434 302 l 240 0 l 116 0 l 380 379 l 124 758 l 249 758 l 444 463 l 648 758 l 771 758 l 500 385 l 761 0 l 638 0 z "},"ц":{"ha":884,"x_min":134,"x_max":812,"o":"m 711 -189 l 711 0 l 134 0 l 134 758 l 241 758 l 241 98 l 573 98 l 573 758 l 681 758 l 681 98 l 812 98 l 812 -189 l 711 -189 z "},"ч":{"ha":884,"x_min":107,"x_max":679,"o":"m 679 758 l 679 0 l 572 0 l 572 275 q 496 255 539 263 q 405 247 453 247 q 181 314 254 247 q 107 519 107 380 l 107 758 l 215 758 l 215 521 q 265 382 215 419 q 402 343 314 345 q 502 355 456 342 q 572 384 548 367 l 572 758 l 679 758 z "},"ш":{"ha":884,"x_min":80,"x_max":804,"o":"m 80 0 l 80 758 l 184 758 l 184 88 l 390 88 l 390 758 l 494 758 l 494 88 l 699 88 l 699 758 l 804 758 l 804 0 l 80 0 z "},"щ":{"ha":884,"x_min":80,"x_max":876,"o":"m 876 -189 l 773 -189 l 773 0 l 80 0 l 80 758 l 184 758 l 184 88 l 390 88 l 390 758 l 494 758 l 494 88 l 699 88 l 699 758 l 804 758 l 804 101 l 876 101 l 876 -189 z "},"ъ":{"ha":884,"x_min":0,"x_max":787,"o":"m 529 0 l 189 0 l 189 659 l 0 659 l 0 758 l 297 758 l 297 495 l 528 495 q 718 437 649 495 q 787 277 787 379 l 787 226 q 718 60 787 120 q 529 0 650 0 m 297 101 l 505 101 q 638 130 596 101 q 679 222 679 159 l 679 278 q 638 368 679 340 q 505 396 596 396 l 297 396 l 297 101 z "},"ы":{"ha":884,"x_min":109,"x_max":775,"o":"m 109 0 l 109 758 l 212 758 l 212 490 l 336 490 q 497 430 438 490 q 556 264 556 370 l 556 229 q 497 61 556 121 q 337 0 439 0 l 109 0 m 672 0 l 672 758 l 775 758 l 775 0 l 672 0 m 212 97 l 307 97 q 416 128 383 97 q 449 223 449 159 l 449 271 q 416 365 449 335 q 307 395 383 395 l 212 395 l 212 97 z "},"ь":{"ha":884,"x_min":136,"x_max":792,"o":"m 136 0 l 136 758 l 244 758 l 244 495 l 538 495 q 724 437 657 495 q 792 277 792 379 l 792 226 q 724 60 792 120 q 539 0 657 0 l 136 0 m 244 101 l 515 101 q 644 131 604 101 q 684 223 684 160 l 684 279 q 644 369 684 341 q 515 396 604 396 l 244 396 l 244 101 z "},"э":{"ha":884,"x_min":120,"x_max":750,"o":"m 424 -13 q 206 47 283 -13 q 120 218 129 106 l 226 223 q 279 126 229 159 q 423 92 330 92 q 588 137 533 92 q 643 273 643 182 l 643 345 l 343 345 l 343 438 l 643 438 l 643 477 q 589 619 643 572 q 426 665 535 665 q 280 624 330 665 q 226 500 231 583 l 120 505 q 206 702 129 634 q 426 770 283 770 q 669 696 587 770 q 750 479 750 622 l 750 271 q 668 59 750 131 q 424 -13 586 -13 z "},"ю":{"ha":884,"x_min":80,"x_max":804,"o":"m 558 -13 q 371 59 429 -13 q 312 251 312 130 l 312 374 l 194 374 l 194 0 l 80 0 l 80 758 l 194 758 l 194 477 l 312 477 l 312 501 q 371 697 312 624 q 559 770 431 770 q 747 697 689 770 q 804 501 804 624 l 804 251 q 746 59 804 130 q 558 -13 688 -13 m 558 91 q 670 128 635 91 q 705 251 705 165 l 705 501 q 670 629 705 591 q 558 667 635 667 q 447 629 481 667 q 413 501 413 591 l 413 251 q 447 128 413 165 q 558 91 481 91 z "},"я":{"ha":884,"x_min":122,"x_max":750,"o":"m 371 374 l 643 374 l 643 654 l 371 654 q 268 625 299 654 q 237 534 237 596 l 237 506 q 268 406 237 438 q 371 374 299 374 m 643 273 l 513 273 l 261 0 l 122 0 l 372 269 q 193 330 255 270 q 130 500 130 390 l 130 525 q 194 698 130 638 q 380 758 259 758 l 750 758 l 750 0 l 643 0 l 643 273 z "},"ђ":{"ha":884,"x_min":8,"x_max":750,"o":"m 505 -263 q 429 -255 470 -263 q 346 -235 389 -247 l 371 -121 q 441 -141 407 -134 q 505 -149 475 -149 q 605 -113 567 -149 q 643 6 643 -77 l 643 460 q 602 568 643 530 q 482 606 561 606 q 361 571 423 606 q 241 468 299 535 l 241 0 l 134 0 l 134 803 l 8 803 l 8 899 l 134 899 l 134 1010 l 241 1010 l 241 899 l 501 899 l 501 803 l 241 803 l 241 576 l 279 576 q 369 675 306 638 q 511 712 432 712 q 686 650 622 712 q 750 482 750 587 l 750 -9 q 681 -199 750 -136 q 505 -263 611 -263 z "},"є":{"ha":884,"x_min":134,"x_max":764,"o":"m 764 218 q 678 47 755 106 q 460 -13 601 -13 q 216 59 298 -13 q 134 271 134 131 l 134 479 q 215 696 134 622 q 458 770 297 770 q 678 702 601 770 q 764 505 755 634 l 658 500 q 604 624 653 583 q 458 665 554 665 q 295 619 350 665 q 241 477 241 572 l 241 439 l 537 439 l 537 343 l 241 343 l 241 273 q 296 137 241 182 q 461 92 351 92 q 605 126 554 92 q 658 223 655 159 l 764 218 z "},"ѕ":{"ha":884,"x_min":105,"x_max":756,"o":"m 453 -14 q 270 15 359 -14 q 105 106 181 44 l 162 196 q 297 119 222 145 q 452 92 371 92 q 585 113 520 92 q 650 206 650 134 q 598 286 650 263 q 404 328 547 309 q 199 394 268 345 q 130 547 130 443 q 216 715 130 659 q 408 770 302 770 q 581 738 499 770 q 735 648 664 706 l 677 556 q 552 634 621 604 q 407 664 484 664 q 290 640 345 664 q 236 551 236 616 q 283 471 236 496 q 470 429 331 446 q 684 359 612 413 q 756 211 756 306 q 660 39 756 91 q 453 -14 563 -14 z "},"і":{"ha":884,"x_min":133,"x_max":753,"o":"m 133 0 l 133 101 l 389 101 l 389 657 l 133 657 l 133 758 l 496 758 l 496 101 l 753 101 l 753 0 l 133 0 m 439 902 q 367 915 395 902 q 340 968 340 929 l 340 976 q 367 1030 340 1015 q 439 1045 395 1045 q 511 1030 484 1045 q 539 976 539 1015 l 539 968 q 511 915 539 929 q 439 902 482 902 z "},"ї":{"ha":884,"x_min":133,"x_max":753,"o":"m 133 0 l 133 101 l 389 101 l 389 657 l 133 657 l 133 758 l 496 758 l 496 101 l 753 101 l 753 0 l 133 0 m 299 902 q 244 915 265 902 q 223 968 223 929 l 223 976 q 244 1030 223 1015 q 299 1045 265 1045 q 354 1030 333 1045 q 375 976 375 1015 l 375 968 q 354 915 375 929 q 299 902 332 902 m 585 902 q 530 915 551 902 q 509 968 509 929 l 509 976 q 530 1030 509 1015 q 585 1045 551 1045 q 640 1030 619 1045 q 660 976 660 1015 l 660 968 q 639 915 660 929 q 585 902 617 902 z "},"ј":{"ha":884,"x_min":138,"x_max":668,"o":"m 330 -263 q 237 -257 283 -263 q 138 -235 192 -251 l 163 -121 q 249 -143 210 -138 q 330 -149 289 -149 q 465 -113 413 -149 q 516 6 516 -77 l 516 657 l 157 657 l 157 758 l 624 758 l 624 -9 q 538 -201 624 -140 q 330 -263 452 -263 m 568 902 q 496 915 524 902 q 468 968 468 929 l 468 976 q 496 1030 468 1015 q 568 1045 524 1045 q 640 1030 612 1045 q 668 976 668 1015 l 668 968 q 640 915 668 929 q 568 902 611 902 z "},"љ":{"ha":884,"x_min":-10,"x_max":818,"o":"m 268 652 l 254 184 q 199 35 250 82 q 80 -11 148 -11 q 35 -7 58 -11 q -10 5 13 -3 l 15 117 q 49 107 32 111 q 80 104 66 104 q 127 122 107 104 q 148 192 146 141 l 164 758 l 506 758 l 506 495 l 617 495 q 764 436 710 495 q 818 277 818 376 l 818 203 q 764 55 818 110 q 619 0 710 0 l 402 0 l 402 652 l 268 652 m 506 100 l 595 100 q 684 130 655 101 q 713 217 713 159 l 713 280 q 684 368 713 338 q 595 398 655 398 l 506 398 l 506 100 z "},"њ":{"ha":884,"x_min":80,"x_max":804,"o":"m 492 100 l 581 100 q 669 126 640 100 q 698 203 698 153 l 698 277 q 669 364 698 335 q 581 393 640 393 l 492 393 l 492 100 m 186 390 l 186 0 l 80 0 l 80 758 l 186 758 l 186 487 l 386 487 l 386 758 l 492 758 l 492 490 l 604 490 q 749 431 694 490 q 804 269 804 371 l 804 208 q 750 56 804 112 q 605 0 696 0 l 386 0 l 386 390 l 186 390 z "},"ћ":{"ha":884,"x_min":8,"x_max":750,"o":"m 241 468 l 241 0 l 134 0 l 134 803 l 8 803 l 8 899 l 134 899 l 134 1010 l 241 1010 l 241 899 l 501 899 l 501 803 l 241 803 l 241 576 l 279 576 q 369 676 307 639 q 511 712 432 712 q 686 650 622 712 q 750 482 750 588 l 750 0 l 643 0 l 643 460 q 604 570 643 534 q 482 606 564 606 q 362 573 420 606 q 241 468 303 539 z "},"џ":{"ha":884,"x_min":134,"x_max":750,"o":"m 390 -189 l 390 0 l 134 0 l 134 758 l 241 758 l 241 98 l 643 98 l 643 758 l 750 758 l 750 0 l 494 0 l 494 -189 l 390 -189 z "},"ґ":{"ha":884,"x_min":199,"x_max":769,"o":"m 199 0 l 199 758 l 667 758 l 667 947 l 769 947 l 769 659 l 307 659 l 307 0 l 199 0 z "},"ⁿ":{"ha":884,"x_min":199,"x_max":686,"o":"m 199 384 l 199 1013 l 287 1013 l 287 910 l 318 910 q 352 965 332 943 q 394 1000 372 987 q 440 1018 417 1013 q 486 1023 463 1023 q 564 1009 528 1023 q 628 968 600 995 q 670 904 655 942 q 686 818 686 866 l 686 384 l 597 384 l 597 794 q 588 857 597 830 q 562 902 578 884 q 521 927 544 918 q 471 936 499 936 q 419 927 443 936 q 372 905 394 919 q 331 872 351 891 q 287 826 312 854 l 287 384 l 199 384 z "},"̀":{"ha":0,"x_min":-236,"x_max":112,"o":"m 5 884 l -236 1136 l -66 1136 l 112 884 l 5 884 z "},"́":{"ha":0,"x_min":-140,"x_max":208,"o":"m -140 884 l 38 1136 l 208 1136 l -33 884 l -140 884 z "},"̂":{"ha":0,"x_min":-258,"x_max":258,"o":"m -213 894 l -258 970 l -39 1155 l 37 1155 l 258 970 l 213 894 l -1 1043 l -213 894 z "},"̃":{"ha":0,"x_min":-258,"x_max":258,"o":"m 96 896 q 27 920 56 896 q -25 972 -3 944 q -68 1023 -48 1000 q -110 1047 -88 1047 q -152 1023 -134 1047 q -169 923 -170 999 l -169 909 l -258 909 l -258 928 q -217 1082 -258 1020 q -97 1144 -176 1144 q -20 1121 -51 1144 q 32 1069 10 1097 q 71 1018 53 1042 q 110 994 88 994 q 152 1018 134 994 q 169 1117 169 1042 l 169 1131 l 258 1131 l 258 1112 q 217 957 258 1018 q 96 896 176 896 z "},"̄":{"ha":0,"x_min":-247,"x_max":247,"o":"m -247 961 l -247 1059 l 247 1059 l 247 961 l -247 961 z "},"̆":{"ha":0,"x_min":-287,"x_max":287,"o":"m 0 875 q -200 932 -115 875 q -287 1133 -285 989 l -172 1133 q -128 1003 -170 1042 q 0 965 -85 965 q 128 1003 85 965 q 172 1133 170 1042 l 287 1133 q 200 932 285 989 q 0 875 115 875 z "},"̇":{"ha":0,"x_min":-100,"x_max":100,"o":"m 0 902 q -72 915 -44 902 q -100 968 -100 929 l -100 976 q -72 1030 -100 1015 q 0 1045 -44 1045 q 72 1030 44 1045 q 100 976 100 1015 l 100 968 q 71 915 100 929 q 0 902 43 902 z "},"̈":{"ha":0,"x_min":-218,"x_max":218,"o":"m -143 902 q -198 915 -177 902 q -218 968 -218 929 l -218 976 q -198 1030 -218 1015 q -143 1045 -177 1045 q -88 1030 -109 1045 q -67 976 -67 1015 l -67 968 q -88 915 -67 929 q -143 902 -110 902 m 143 902 q 88 915 109 902 q 67 968 67 929 l 67 976 q 88 1030 67 1015 q 143 1045 109 1045 q 198 1030 177 1045 q 218 976 218 1015 l 218 968 q 197 915 218 929 q 143 902 176 902 z "},"̊":{"ha":0,"x_min":-193,"x_max":193,"o":"m 0 867 q -140 912 -87 867 q -193 1048 -193 956 l -193 1088 q -140 1227 -193 1182 q 0 1273 -87 1273 q 140 1227 87 1273 q 193 1088 193 1182 l 193 1048 q 140 912 193 956 q 0 867 87 867 m 0 952 q 79 974 52 952 q 106 1048 106 996 l 106 1088 q 79 1164 106 1139 q 0 1188 52 1188 q -80 1164 -53 1188 q -106 1088 -106 1139 l -106 1048 q -80 974 -106 996 q 0 952 -53 952 z "},"̋":{"ha":0,"x_min":-187,"x_max":343,"o":"m 104 884 l 177 1136 l 343 1136 l 188 884 l 104 884 m -187 884 l -115 1136 l 53 1136 l -104 884 l -187 884 z "},"̌":{"ha":0,"x_min":-258,"x_max":258,"o":"m -37 889 l -258 1074 l -213 1150 l 1 1001 l 213 1150 l 258 1074 l 39 889 l -37 889 z "},"̒":{"ha":0,"x_min":-165,"x_max":133,"o":"m -165 884 l 25 1136 l 133 1136 l 5 884 l -165 884 z "},"̦":{"ha":0,"x_min":-164,"x_max":134,"o":"m -164 -379 l -37 -126 l 134 -126 l -57 -379 l -164 -379 z "},"̧":{"ha":0,"x_min":-221,"x_max":131,"o":"m -38 0 l -13 53 q 83 5 35 43 q 131 -116 131 -33 q 78 -233 131 -196 q -40 -270 25 -270 q -167 -241 -117 -270 q -221 -144 -216 -212 l -125 -131 q -105 -165 -122 -155 q -47 -174 -87 -174 q 13 -158 -8 -174 q 33 -98 33 -141 q 16 -32 33 -53 q -38 0 0 -10 z "},"̨":{"ha":0,"x_min":-107,"x_max":198,"o":"m 77 -269 q -53 -229 1 -269 q -107 -121 -107 -189 q -61 -18 -107 -64 q 40 52 -15 28 l 74 29 q 15 -30 32 3 q -3 -90 -3 -63 q 21 -144 -3 -125 q 86 -163 45 -163 q 144 -159 109 -163 q 198 -150 179 -155 l 198 -258 q 141 -266 178 -263 q 77 -269 105 -269 z "},"¼":{"ha":884,"x_min":0,"x_max":884,"o":"m 230 518 l 230 605 l 402 605 l 402 888 l 384 888 q 360 843 376 864 q 323 808 345 823 q 275 785 301 793 q 221 777 249 777 l 213 864 q 275 874 245 865 q 332 902 306 884 q 378 949 359 920 q 404 1018 396 979 l 505 1018 l 505 605 l 662 605 l 662 518 l 230 518 m 0 317 l 0 436 l 402 410 l 402 342 l 0 317 m 500 342 l 500 410 l 884 436 l 884 317 l 500 342 m 730 -144 l 612 -144 l 612 -265 l 509 -265 l 509 -144 l 188 -144 l 188 -63 l 473 273 l 612 273 l 612 -63 l 730 -63 l 730 -144 m 280 -63 l 509 -63 l 509 202 l 280 -63 z "},"½":{"ha":884,"x_min":0,"x_max":884,"o":"m 230 518 l 230 605 l 402 605 l 402 888 l 384 888 q 360 843 376 864 q 323 808 345 823 q 275 785 301 793 q 221 777 249 777 l 213 864 q 275 874 245 865 q 332 902 306 884 q 378 949 359 920 q 404 1018 396 979 l 505 1018 l 505 605 l 662 605 l 662 518 l 230 518 m 0 317 l 0 436 l 402 410 l 402 342 l 0 317 m 500 342 l 500 410 l 884 436 l 884 317 l 500 342 m 196 -265 l 196 -163 q 204 -107 196 -133 q 230 -62 212 -82 q 276 -27 247 -42 q 343 -5 304 -13 l 497 27 q 536 37 520 32 q 561 49 552 42 q 575 66 571 57 q 580 90 580 76 l 580 117 q 574 146 580 134 q 553 167 568 158 q 511 180 538 176 q 442 184 484 184 q 374 179 399 184 q 335 162 348 173 q 315 133 321 150 q 307 86 309 115 l 203 95 q 219 171 206 139 q 259 225 232 203 q 331 257 287 246 q 442 268 376 268 q 554 258 508 268 q 628 230 600 247 q 669 184 655 211 q 682 124 682 158 l 682 77 q 672 25 682 47 q 643 -14 662 3 q 598 -39 624 -29 q 538 -57 572 -49 l 384 -88 q 347 -98 361 -93 q 321 -112 332 -102 q 305 -138 311 -121 q 299 -182 299 -155 l 691 -182 l 691 -265 l 196 -265 z "},"¾":{"ha":884,"x_min":0,"x_max":884,"o":"m 438 510 q 323 520 370 510 q 247 548 277 529 q 205 596 218 567 q 188 665 191 625 l 290 673 q 299 636 293 650 q 321 614 306 622 q 364 600 336 605 q 438 596 391 596 q 513 600 484 596 q 558 610 542 604 q 581 628 574 617 q 587 652 587 638 l 587 672 q 581 696 587 686 q 558 712 574 706 q 513 723 542 720 q 442 726 485 726 l 388 726 l 388 813 l 442 813 q 503 816 479 813 q 543 826 528 818 q 565 843 558 832 q 572 872 572 855 l 572 902 q 563 919 572 912 q 535 932 553 927 q 492 937 516 936 q 434 939 467 939 q 378 936 402 939 q 340 924 355 932 q 317 904 324 917 q 307 872 309 891 l 203 880 q 221 948 206 920 q 264 992 236 975 q 333 1017 292 1009 q 434 1025 375 1025 q 531 1020 489 1025 q 606 1001 573 1014 q 656 964 638 987 q 674 905 674 941 l 674 883 q 666 843 674 861 q 641 813 658 826 q 604 794 626 802 q 554 784 582 787 l 554 761 q 611 751 586 759 q 654 731 636 742 q 681 703 672 718 q 691 669 691 687 l 691 650 q 676 587 691 614 q 629 544 660 561 q 551 518 598 527 q 438 510 504 510 m 0 317 l 0 436 l 402 410 l 402 342 l 0 317 m 500 342 l 500 410 l 884 436 l 884 317 l 500 342 m 730 -144 l 612 -144 l 612 -265 l 509 -265 l 509 -144 l 188 -144 l 188 -63 l 473 273 l 612 273 l 612 -63 l 730 -63 l 730 -144 m 280 -63 l 509 -63 l 509 202 l 280 -63 z "},"⅛":{"ha":884,"x_min":0,"x_max":884,"o":"m 230 518 l 230 605 l 402 605 l 402 888 l 384 888 q 360 843 376 864 q 323 808 345 823 q 275 785 301 793 q 221 777 249 777 l 213 864 q 275 874 245 865 q 332 902 306 884 q 378 949 359 920 q 404 1018 396 979 l 505 1018 l 505 605 l 662 605 l 662 518 l 230 518 m 0 317 l 0 436 l 402 410 l 402 342 l 0 317 m 500 342 l 500 410 l 884 436 l 884 317 l 500 342 m 448 -271 q 331 -261 379 -271 q 254 -232 283 -251 q 213 -186 226 -213 q 201 -124 201 -159 l 201 -106 q 209 -63 201 -82 q 234 -30 217 -44 q 273 -7 250 -15 q 326 4 297 1 l 326 27 q 282 36 302 29 q 247 54 263 43 q 224 81 232 66 q 216 115 216 96 l 216 140 q 231 198 216 174 q 277 239 246 222 q 348 261 306 254 q 448 269 391 269 q 548 262 505 269 q 620 240 591 255 q 664 199 649 223 q 679 140 679 174 l 679 115 q 671 81 679 96 q 648 54 663 66 q 613 36 633 43 q 569 27 593 29 l 569 4 q 623 -8 600 1 q 663 -30 646 -16 q 688 -64 679 -45 q 696 -106 696 -83 l 696 -124 q 683 -187 696 -160 q 643 -234 670 -215 q 566 -262 614 -253 q 448 -271 518 -271 m 448 59 q 508 62 484 59 q 547 72 532 66 q 569 88 562 78 q 577 114 577 98 l 577 130 q 569 155 577 145 q 547 172 562 165 q 508 181 532 178 q 448 183 484 183 q 389 181 413 183 q 350 172 365 178 q 327 155 335 165 q 319 130 319 145 l 319 114 q 327 88 319 98 q 350 72 335 78 q 389 62 365 66 q 448 59 413 59 m 448 -187 q 524 -182 495 -187 q 567 -167 553 -177 q 587 -145 582 -158 q 592 -112 592 -131 l 592 -102 q 587 -69 592 -83 q 567 -47 582 -56 q 524 -32 553 -37 q 448 -27 495 -27 q 372 -32 402 -27 q 328 -47 343 -37 q 309 -69 314 -56 q 304 -102 304 -82 l 304 -112 q 309 -145 304 -131 q 328 -167 314 -158 q 372 -182 343 -177 q 448 -187 402 -187 z "},"⅜":{"ha":884,"x_min":0,"x_max":884,"o":"m 438 510 q 323 520 370 510 q 247 548 275 529 q 205 596 218 567 q 188 665 191 625 l 290 673 q 299 636 293 650 q 321 614 306 622 q 364 600 336 605 q 438 596 391 596 q 513 600 484 596 q 558 610 542 604 q 581 628 574 617 q 587 652 587 638 l 587 672 q 581 696 587 686 q 558 712 574 706 q 513 723 542 720 q 442 726 485 726 l 388 726 l 388 813 l 442 813 q 503 816 479 813 q 543 826 528 818 q 565 843 558 832 q 572 872 572 855 l 572 902 q 563 919 572 912 q 535 932 553 927 q 492 937 516 936 q 434 939 467 939 q 378 936 402 939 q 340 924 355 932 q 317 904 324 917 q 307 872 309 891 l 203 880 q 220 946 206 919 q 263 991 235 973 q 333 1017 290 1009 q 434 1025 375 1025 q 532 1020 489 1025 q 607 1000 576 1014 q 657 963 639 986 q 674 905 674 939 l 674 883 q 666 843 674 861 q 641 813 658 826 q 604 794 626 802 q 554 784 582 787 l 554 761 q 611 751 586 759 q 654 731 636 742 q 681 703 672 718 q 691 669 691 687 l 691 650 q 676 588 691 615 q 630 545 662 562 q 552 519 600 528 q 438 510 504 510 m 0 317 l 0 436 l 402 410 l 402 342 l 0 317 m 500 342 l 500 410 l 884 436 l 884 317 l 500 342 m 448 -271 q 331 -261 379 -271 q 254 -232 283 -251 q 213 -186 226 -213 q 201 -124 201 -159 l 201 -106 q 209 -63 201 -82 q 234 -30 217 -44 q 273 -7 250 -15 q 326 4 297 1 l 326 27 q 282 36 302 29 q 247 54 263 43 q 224 81 232 66 q 216 115 216 96 l 216 140 q 231 198 216 174 q 277 239 246 222 q 348 261 306 254 q 448 269 391 269 q 548 262 505 269 q 620 240 591 255 q 664 199 649 223 q 679 140 679 174 l 679 115 q 671 81 679 96 q 648 54 663 66 q 613 36 633 43 q 569 27 593 29 l 569 4 q 623 -8 600 1 q 663 -30 646 -16 q 688 -64 679 -45 q 696 -106 696 -83 l 696 -124 q 683 -187 696 -160 q 643 -234 670 -215 q 566 -262 614 -253 q 448 -271 518 -271 m 448 59 q 508 62 484 59 q 547 72 532 66 q 569 88 562 78 q 577 114 577 98 l 577 130 q 569 155 577 145 q 547 172 562 165 q 508 181 532 178 q 448 183 484 183 q 389 181 413 183 q 350 172 365 178 q 327 155 335 165 q 319 130 319 145 l 319 114 q 327 88 319 98 q 350 72 335 78 q 389 62 365 66 q 448 59 413 59 m 448 -187 q 524 -182 495 -187 q 567 -167 553 -177 q 587 -145 582 -158 q 592 -112 592 -131 l 592 -102 q 587 -69 592 -83 q 567 -47 582 -56 q 524 -32 553 -37 q 448 -27 495 -27 q 372 -32 402 -27 q 328 -47 343 -37 q 309 -69 314 -56 q 304 -102 304 -82 l 304 -112 q 309 -145 304 -131 q 328 -167 314 -158 q 372 -182 343 -177 q 448 -187 402 -187 z "},"⅝":{"ha":884,"x_min":0,"x_max":884,"o":"m 441 513 q 325 520 371 513 q 250 543 279 527 q 205 588 220 559 q 188 662 191 617 l 290 669 q 299 631 292 645 q 324 609 307 616 q 368 598 341 601 q 441 596 395 596 q 510 600 482 596 q 554 611 538 604 q 580 629 572 617 q 587 657 587 640 l 587 691 q 580 717 587 706 q 558 736 573 729 q 518 746 543 742 q 455 750 492 750 l 211 750 l 211 1018 l 662 1018 l 662 934 l 314 934 l 314 842 l 472 842 q 566 833 525 842 q 634 807 606 824 q 676 763 662 789 q 691 701 691 736 l 691 658 q 675 598 691 625 q 628 552 659 572 q 549 523 596 533 q 441 513 503 513 m 0 317 l 0 436 l 402 410 l 402 342 l 0 317 m 500 342 l 500 410 l 884 436 l 884 317 l 500 342 m 448 -271 q 331 -261 379 -271 q 254 -232 283 -251 q 213 -186 226 -213 q 201 -124 201 -159 l 201 -106 q 209 -63 201 -82 q 234 -30 217 -44 q 273 -7 250 -15 q 326 4 297 1 l 326 27 q 282 36 302 29 q 247 54 263 43 q 224 81 232 66 q 216 115 216 96 l 216 140 q 231 198 216 174 q 277 239 246 222 q 348 261 306 254 q 448 269 391 269 q 548 262 505 269 q 620 240 591 255 q 664 199 649 223 q 679 140 679 174 l 679 115 q 671 81 679 96 q 648 54 663 66 q 613 36 633 43 q 569 27 593 29 l 569 4 q 623 -8 600 1 q 663 -30 646 -16 q 688 -64 679 -45 q 696 -106 696 -83 l 696 -124 q 683 -187 696 -160 q 643 -234 670 -215 q 566 -262 614 -253 q 448 -271 518 -271 m 448 59 q 508 62 484 59 q 547 72 532 66 q 569 88 562 78 q 577 114 577 98 l 577 130 q 569 155 577 145 q 547 172 562 165 q 508 181 532 178 q 448 183 484 183 q 389 181 413 183 q 350 172 365 178 q 327 155 335 165 q 319 130 319 145 l 319 114 q 327 88 319 98 q 350 72 335 78 q 389 62 365 66 q 448 59 413 59 m 448 -187 q 524 -182 495 -187 q 567 -167 553 -177 q 587 -145 582 -158 q 592 -112 592 -131 l 592 -102 q 587 -69 592 -83 q 567 -47 582 -56 q 524 -32 553 -37 q 448 -27 495 -27 q 372 -32 402 -27 q 328 -47 343 -37 q 309 -69 314 -56 q 304 -102 304 -82 l 304 -112 q 309 -145 304 -131 q 328 -167 314 -158 q 372 -182 343 -177 q 448 -187 402 -187 z "},"⅞":{"ha":884,"x_min":0,"x_max":884,"o":"m 346 518 q 383 644 364 588 q 431 747 403 699 q 494 840 457 795 q 581 929 530 884 l 189 929 l 189 1018 l 684 1018 l 684 929 q 598 830 635 880 q 533 730 561 780 q 486 627 505 679 q 457 518 467 574 l 346 518 m 0 317 l 0 436 l 402 410 l 402 342 l 0 317 m 500 342 l 500 410 l 884 436 l 884 317 l 500 342 m 448 -271 q 331 -261 379 -271 q 254 -232 283 -251 q 213 -186 226 -213 q 201 -124 201 -159 l 201 -106 q 209 -63 201 -82 q 234 -30 217 -44 q 273 -7 250 -15 q 326 4 297 1 l 326 27 q 282 36 302 29 q 247 54 263 43 q 224 81 232 66 q 216 115 216 96 l 216 140 q 231 198 216 174 q 277 239 246 222 q 348 261 306 254 q 448 269 391 269 q 548 262 505 269 q 620 240 591 255 q 664 199 649 223 q 679 140 679 174 l 679 115 q 671 81 679 96 q 648 54 663 66 q 613 36 633 43 q 569 27 593 29 l 569 4 q 623 -8 600 1 q 663 -30 646 -16 q 688 -64 679 -45 q 696 -106 696 -83 l 696 -124 q 683 -187 696 -160 q 643 -234 670 -215 q 566 -262 614 -253 q 448 -271 518 -271 m 448 59 q 508 62 484 59 q 547 72 532 66 q 569 88 562 78 q 577 114 577 98 l 577 130 q 569 155 577 145 q 547 172 562 165 q 508 181 532 178 q 448 183 484 183 q 389 181 413 183 q 350 172 365 178 q 327 155 335 165 q 319 130 319 145 l 319 114 q 327 88 319 98 q 350 72 335 78 q 389 62 365 66 q 448 59 413 59 m 448 -187 q 524 -182 495 -187 q 567 -167 553 -177 q 587 -145 582 -158 q 592 -112 592 -131 l 592 -102 q 587 -69 592 -83 q 567 -47 582 -56 q 524 -32 553 -37 q 448 -27 495 -27 q 372 -32 402 -27 q 328 -47 343 -37 q 309 -69 314 -56 q 304 -102 304 -82 l 304 -112 q 309 -145 304 -131 q 328 -167 314 -158 q 372 -182 343 -177 q 448 -187 402 -187 z "},"_":{"ha":884,"x_min":91,"x_max":794,"o":"m 91 -253 l 91 -144 l 794 -144 l 794 -253 l 91 -253 z "},"-":{"ha":884,"x_min":91,"x_max":794,"o":"m 91 386 l 91 495 l 794 495 l 794 386 l 91 386 z "},"­":{"ha":884,"x_min":91,"x_max":794,"o":"m 91 386 l 91 495 l 794 495 l 794 386 l 91 386 z "},"‐":{"ha":884,"x_min":91,"x_max":794,"o":"m 91 386 l 91 495 l 794 495 l 794 386 l 91 386 z "},"‑":{"ha":884,"x_min":91,"x_max":794,"o":"m 91 386 l 91 495 l 794 495 l 794 386 l 91 386 z "},"–":{"ha":884,"x_min":138,"x_max":746,"o":"m 138 386 l 138 495 l 746 495 l 746 386 l 138 386 z "},"—":{"ha":884,"x_min":0,"x_max":884,"o":"m 0 386 l 0 495 l 884 495 l 884 386 l 0 386 z "},"―":{"ha":884,"x_min":0,"x_max":884,"o":"m 0 386 l 0 495 l 884 495 l 884 386 l 0 386 z "},"(":{"ha":884,"x_min":263,"x_max":699,"o":"m 689 -265 q 386 -52 509 -218 q 263 379 263 114 q 386 811 263 646 q 689 1023 509 976 l 699 937 q 451 736 533 890 q 370 379 370 582 q 451 20 370 176 q 699 -182 533 -135 l 689 -265 z "},")":{"ha":884,"x_min":184,"x_max":622,"o":"m 196 -265 l 184 -182 q 433 21 351 -135 q 515 379 515 177 q 433 737 515 585 q 184 937 351 890 l 196 1023 q 499 810 376 976 q 622 379 622 644 q 499 -52 622 115 q 196 -265 376 -218 z "},"[":{"ha":884,"x_min":263,"x_max":686,"o":"m 263 -253 l 263 1010 l 686 1010 l 686 909 l 370 909 l 370 -169 l 686 -169 l 686 -253 l 263 -253 z "},"]":{"ha":884,"x_min":199,"x_max":622,"o":"m 199 -253 l 199 -169 l 515 -169 l 515 909 l 199 909 l 199 1010 l 622 1010 l 622 -253 l 199 -253 z "},"{":{"ha":884,"x_min":73,"x_max":686,"o":"m 686 -265 q 315 -216 431 -270 q 199 -56 199 -162 q 227 53 199 9 q 282 128 254 97 q 336 186 309 158 q 364 249 364 213 q 300 333 364 308 q 73 361 236 357 l 73 427 q 300 455 236 431 q 364 537 364 479 q 336 593 364 571 q 280 643 309 616 q 226 710 253 669 q 199 818 199 751 q 315 975 199 922 q 686 1023 431 1028 l 686 922 q 390 898 472 926 q 307 808 307 870 q 325 755 307 783 q 390 683 343 727 q 453 609 436 639 q 471 543 471 578 q 411 437 471 473 q 247 395 351 400 l 247 389 q 411 335 351 376 q 471 218 471 293 q 451 160 471 191 q 384 83 432 130 q 323 16 340 44 q 307 -47 307 -11 q 390 -141 307 -111 q 686 -167 472 -170 l 686 -265 z "},"}":{"ha":884,"x_min":199,"x_max":812,"o":"m 686 -56 q 569 -216 686 -162 q 199 -265 453 -270 l 199 -167 q 496 -141 413 -170 q 578 -47 578 -111 q 561 16 578 -11 q 500 83 544 44 q 433 160 452 130 q 414 218 414 191 q 473 335 414 293 q 638 389 533 376 l 638 395 q 473 437 533 400 q 414 543 414 473 q 432 609 414 578 q 494 683 449 639 q 560 755 542 727 q 578 808 578 783 q 496 898 578 870 q 199 922 413 926 l 199 1023 q 569 975 453 1028 q 686 818 686 922 q 658 710 686 751 q 604 643 631 669 q 548 593 574 616 q 521 537 521 571 q 585 455 521 479 q 812 427 648 431 l 812 361 q 585 333 648 357 q 521 249 521 308 q 548 186 521 213 q 602 128 574 158 q 658 53 630 97 q 686 -56 686 9 z "},"#":{"ha":884,"x_min":73,"x_max":812,"o":"m 527 364 l 540 646 l 360 646 l 346 364 l 527 364 m 508 0 l 520 260 l 340 260 l 327 0 l 225 0 l 237 260 l 73 260 l 73 364 l 244 364 l 258 646 l 73 646 l 73 750 l 261 750 l 275 1010 l 378 1010 l 364 750 l 544 750 l 558 1010 l 660 1010 l 646 750 l 812 750 l 812 646 l 643 646 l 629 364 l 812 364 l 812 260 l 622 260 l 610 0 l 508 0 z "},"%":{"ha":884,"x_min":54,"x_max":830,"o":"m 247 561 q 107 609 160 561 q 54 756 54 657 l 54 837 q 108 987 54 938 q 247 1035 162 1035 q 386 987 333 1035 q 439 837 439 938 l 439 756 q 386 609 439 657 q 247 561 332 561 m 247 659 q 309 682 287 659 q 332 755 332 705 l 332 838 q 309 913 332 889 q 247 937 287 937 q 184 913 208 937 q 160 838 160 889 l 160 755 q 184 682 160 705 q 247 659 208 659 m 59 206 l 765 880 l 830 816 l 125 141 l 59 206 m 638 -28 q 499 20 552 -28 q 446 168 446 68 l 446 249 q 499 398 446 350 q 638 447 553 447 q 777 398 725 447 q 830 249 830 350 l 830 168 q 777 20 830 68 q 638 -28 723 -28 m 638 72 q 701 95 678 72 q 723 168 723 117 l 723 251 q 701 326 723 302 q 638 350 678 350 q 575 326 598 350 q 552 251 552 302 l 552 168 q 575 95 552 117 q 638 72 598 72 z "},"‰":{"ha":884,"x_min":18,"x_max":859,"o":"m 220 561 q 100 605 146 561 q 54 741 54 649 l 54 852 q 101 991 54 946 q 220 1035 148 1035 q 340 991 294 1035 q 385 852 385 946 l 385 741 q 339 605 385 649 q 220 561 293 561 m 163 740 q 178 678 163 697 q 220 659 193 659 q 262 678 247 659 q 277 740 277 697 l 277 854 q 262 917 277 896 q 220 937 247 937 q 178 917 193 937 q 163 854 163 896 l 163 740 m 784 818 l 87 116 l 18 184 l 715 888 l 784 818 m 732 -28 q 670 -13 697 -28 q 628 30 644 3 q 583 -13 610 3 q 524 -28 557 -28 q 430 16 466 -28 q 394 153 394 61 l 394 266 q 430 405 394 360 q 523 449 466 449 q 584 434 557 449 q 628 389 611 419 q 671 434 644 419 q 732 449 698 449 q 824 405 790 449 q 859 266 859 360 l 859 153 q 824 16 859 61 q 732 -28 789 -28 m 491 136 q 503 74 491 93 q 535 56 515 56 q 568 74 557 56 q 580 136 580 93 l 580 283 q 568 346 580 326 q 535 366 557 366 q 503 346 515 366 q 491 283 491 326 l 491 136 m 673 136 q 686 74 673 93 q 718 56 698 56 q 751 74 739 56 q 763 136 763 93 l 763 283 q 751 346 763 326 q 718 366 739 366 q 686 346 698 366 q 673 283 673 326 l 673 136 z "},"'":{"ha":884,"x_min":348,"x_max":535,"o":"m 385 518 l 348 1010 l 535 1010 l 499 518 l 385 518 z "},"\"":{"ha":884,"x_min":158,"x_max":727,"o":"m 573 518 l 537 1010 l 727 1010 l 689 518 l 573 518 m 194 518 l 158 1010 l 348 1010 l 311 518 l 194 518 z "},"ʻ":{"ha":884,"x_min":261,"x_max":639,"o":"m 261 518 l 540 1010 l 639 1010 l 497 518 l 261 518 z "},"‘":{"ha":884,"x_min":261,"x_max":639,"o":"m 261 518 l 540 1010 l 639 1010 l 497 518 l 261 518 z "},"’":{"ha":884,"x_min":245,"x_max":622,"o":"m 245 518 l 386 1010 l 622 1010 l 343 518 l 245 518 z "},"“":{"ha":884,"x_min":67,"x_max":817,"o":"m 446 518 l 730 1010 l 817 1010 l 672 518 l 446 518 m 67 518 l 350 1010 l 437 1010 l 293 518 l 67 518 z "},"”":{"ha":884,"x_min":67,"x_max":817,"o":"m 447 518 l 591 1010 l 817 1010 l 534 518 l 447 518 m 67 518 l 212 1010 l 438 1010 l 154 518 l 67 518 z "},"‛":{"ha":884,"x_min":220,"x_max":597,"o":"m 499 518 l 220 1010 l 455 1010 l 597 518 l 499 518 z "},"‚":{"ha":884,"x_min":258,"x_max":610,"o":"m 258 -265 l 374 227 l 610 227 l 356 -265 l 258 -265 z "},"„":{"ha":884,"x_min":-78,"x_max":672,"o":"m 302 -259 l 446 234 l 672 234 l 389 -259 l 302 -259 m -78 -259 l 67 234 l 293 234 l 9 -259 l -78 -259 z "},"‹":{"ha":884,"x_min":263,"x_max":622,"o":"m 622 146 l 263 391 l 263 492 l 622 737 l 622 638 l 336 442 l 622 246 l 622 146 z "},"›":{"ha":884,"x_min":263,"x_max":622,"o":"m 263 146 l 263 246 l 549 442 l 263 638 l 263 737 l 622 492 l 622 391 l 263 146 z "},"«":{"ha":884,"x_min":98,"x_max":788,"o":"m 788 145 l 467 390 l 467 491 l 788 736 l 788 636 l 535 441 l 788 245 l 788 145 m 419 145 l 98 390 l 98 491 l 419 736 l 419 636 l 165 441 l 419 245 l 419 145 z "},"»":{"ha":884,"x_min":98,"x_max":788,"o":"m 98 145 l 98 245 l 351 441 l 98 636 l 98 736 l 419 491 l 419 390 l 98 145 m 467 145 l 467 245 l 721 441 l 467 636 l 467 736 l 788 491 l 788 390 l 467 145 z "},"*":{"ha":884,"x_min":78,"x_max":804,"o":"m 734 357 l 481 559 l 513 253 l 369 253 l 400 558 l 149 357 l 78 479 l 371 633 l 78 787 l 149 908 l 400 706 l 369 1010 l 513 1010 l 481 705 l 734 908 l 804 787 l 511 633 l 804 479 l 734 357 z "},"†":{"ha":884,"x_min":111,"x_max":774,"o":"m 385 -253 l 385 657 l 253 657 l 201 394 l 111 394 l 149 758 l 381 758 l 372 1010 l 511 1010 l 503 758 l 736 758 l 774 394 l 684 394 l 631 657 l 499 657 l 499 -253 l 385 -253 z "},"‡":{"ha":884,"x_min":111,"x_max":773,"o":"m 372 -253 l 381 8 l 149 8 l 111 290 l 203 290 l 254 109 l 385 109 l 385 649 l 254 649 l 203 467 l 111 467 l 149 750 l 381 750 l 372 1010 l 511 1010 l 503 750 l 735 750 l 773 467 l 681 467 l 630 649 l 499 649 l 499 109 l 630 109 l 681 290 l 773 290 l 735 8 l 503 8 l 511 -253 l 372 -253 z "},".":{"ha":884,"x_min":309,"x_max":576,"o":"m 443 -13 q 347 15 384 -13 q 309 102 309 42 l 309 122 q 347 211 309 184 q 443 239 384 239 q 540 211 504 239 q 576 122 576 184 l 576 102 q 539 15 576 42 q 443 -13 501 -13 z "},",":{"ha":884,"x_min":258,"x_max":610,"o":"m 258 -265 l 374 227 l 610 227 l 356 -265 l 258 -265 z "},":":{"ha":884,"x_min":307,"x_max":580,"o":"m 443 494 q 344 518 381 494 q 307 596 307 542 l 307 654 q 344 734 307 708 q 443 759 381 759 q 542 734 505 759 q 580 654 580 708 l 580 596 q 541 518 580 542 q 443 494 503 494 m 443 -14 q 344 10 381 -14 q 307 88 307 34 l 307 146 q 344 226 307 201 q 443 251 381 251 q 542 226 505 251 q 580 146 580 201 l 580 88 q 541 10 580 34 q 443 -14 503 -14 z "},";":{"ha":884,"x_min":254,"x_max":612,"o":"m 443 494 q 344 518 381 494 q 307 596 307 542 l 307 654 q 344 734 307 708 q 443 759 381 759 q 542 734 505 759 q 580 654 580 708 l 580 596 q 541 518 580 542 q 443 494 503 494 m 254 -270 l 372 232 l 612 232 l 355 -270 l 254 -270 z "},"…":{"ha":884,"x_min":53,"x_max":832,"o":"m 744 -11 q 681 15 705 -11 q 657 95 657 40 l 657 133 q 681 215 657 188 q 744 241 705 241 q 807 215 783 241 q 832 133 832 188 l 832 95 q 807 15 832 40 q 744 -11 782 -11 m 442 -11 q 379 15 403 -11 q 355 95 355 40 l 355 133 q 379 215 355 188 q 442 241 403 241 q 506 215 481 241 q 530 133 530 188 l 530 95 q 505 15 530 40 q 442 -11 480 -11 m 141 -11 q 78 15 102 -11 q 53 95 53 40 l 53 133 q 78 215 53 188 q 141 241 102 241 q 205 215 181 241 q 229 133 229 188 l 229 95 q 204 15 229 40 q 141 -11 179 -11 z "},"!":{"ha":884,"x_min":331,"x_max":556,"o":"m 402 379 l 364 1010 l 521 1010 l 484 379 l 402 379 m 443 -13 q 358 13 385 -13 q 331 93 331 39 l 331 129 q 358 211 331 184 q 443 237 385 237 q 529 211 503 237 q 556 129 556 184 l 556 93 q 528 13 556 39 q 443 -13 501 -13 z "},"¡":{"ha":884,"x_min":331,"x_max":556,"o":"m 442 1023 q 528 997 501 1023 q 556 917 556 971 l 556 881 q 528 799 556 826 q 442 773 501 773 q 357 799 384 773 q 331 881 331 826 l 331 917 q 358 997 331 971 q 442 1023 385 1023 m 484 631 l 521 0 l 364 0 l 402 631 l 484 631 z "},"‼":{"ha":884,"x_min":155,"x_max":726,"o":"m 566 379 l 528 1010 l 693 1010 l 655 379 l 566 379 m 227 379 l 189 1010 l 355 1010 l 317 379 l 227 379 m 611 -13 q 558 -6 581 -13 q 521 13 535 0 q 501 45 508 25 q 494 93 494 66 l 494 129 q 501 177 494 157 q 521 211 508 198 q 558 231 535 225 q 611 237 581 237 q 663 231 641 237 q 698 211 684 225 q 719 177 712 198 q 726 129 726 157 l 726 93 q 719 46 726 66 q 698 13 712 27 q 662 -6 684 0 q 611 -13 640 -13 m 273 -13 q 220 -6 242 -13 q 183 13 197 0 q 162 45 169 25 q 155 93 155 66 l 155 129 q 162 177 155 157 q 183 211 169 198 q 220 231 197 225 q 273 237 242 237 q 324 231 303 237 q 360 211 346 225 q 381 177 374 198 q 388 129 388 157 l 388 93 q 381 46 388 66 q 360 13 374 27 q 324 -6 346 0 q 273 -13 302 -13 z "},"?":{"ha":884,"x_min":63,"x_max":808,"o":"m 351 408 l 326 497 q 626 577 551 533 q 701 697 701 621 l 701 737 q 652 868 701 814 q 442 922 604 922 q 224 871 269 922 q 170 693 179 819 l 63 706 q 151 954 72 885 q 441 1023 230 1023 q 730 945 653 1023 q 808 754 808 867 l 808 692 q 696 501 808 557 q 351 408 583 444 m 386 -13 q 301 13 327 -13 q 274 93 274 39 l 274 129 q 301 211 274 184 q 386 237 327 237 q 472 211 444 237 q 499 129 499 184 l 499 93 q 471 13 499 39 q 386 -13 443 -13 z "}}}
